<?xml version="1.0" encoding="UTF-8" standalone="no"?>
<!-- Created with Inkscape (http://www.inkscape.org/) -->

<svg
   xmlns:dc="http://purl.org/dc/elements/1.1/"
   xmlns:cc="http://creativecommons.org/ns#"
   xmlns:rdf="http://www.w3.org/1999/02/22-rdf-syntax-ns#"
   xmlns:svg="http://www.w3.org/2000/svg"
   xmlns="http://www.w3.org/2000/svg"
   xmlns:sodipodi="http://sodipodi.sourceforge.net/DTD/sodipodi-0.dtd"
   xmlns:inkscape="http://www.inkscape.org/namespaces/inkscape"
   width="440.72726"
   height="136"
   id="svg3756"
   version="1.1"
   inkscape:version="0.92.1 r15371"
   viewBox="0 0 440.72726 136.00001"
   inkscape:export-filename="/home/william/LogoHorsgle.png"
   inkscape:export-xdpi="90"
   inkscape:export-ydpi="90"
   sodipodi:docname="horsgle-footer.svg">
  <defs
     id="defs3758" />
  <sodipodi:namedview
     id="base"
     pagecolor="#ffffff"
     bordercolor="#666666"
     borderopacity="1.0"
     inkscape:pageopacity="0.0"
     inkscape:pageshadow="2"
     inkscape:zoom="1.375"
     inkscape:cx="306.76806"
     inkscape:cy="112.3979"
     inkscape:current-layer="g851"
     showgrid="true"
     inkscape:document-units="px"
     inkscape:grid-bbox="true"
     inkscape:window-width="1920"
     inkscape:window-height="1003"
     inkscape:window-x="-9"
     inkscape:window-y="-9"
     inkscape:window-maximized="1"
     fit-margin-top="0"
     fit-margin-left="0"
     fit-margin-right="0"
     fit-margin-bottom="0" />
  <metadata
     id="metadata3761">
    <rdf:RDF>
      <cc:Work
         rdf:about="">
        <dc:format>image/svg+xml</dc:format>
        <dc:type
           rdf:resource="http://purl.org/dc/dcmitype/StillImage" />
        <dc:title></dc:title>
      </cc:Work>
    </rdf:RDF>
  </metadata>
  <g
     id="layer1"
     inkscape:label="Layer 1"
     inkscape:groupmode="layer"
     transform="translate(28.240681,0.13410777)">
    <g
       id="g851">
      <rect
         y="-0.13410777"
         x="-28.240681"
         height="136"
         width="440.72726"
         id="rect832"
         style="opacity:1;fill:#f2f2f2;fill-opacity:0;stroke:none;stroke-width:1.87973845;stroke-miterlimit:4;stroke-dasharray:none;stroke-opacity:1;paint-order:markers stroke fill" />
      <path
         inkscape:connector-curvature="0"
         id="path853"
         style="font-style:normal;font-variant:normal;font-weight:normal;font-stretch:normal;font-size:medium;line-height:1.25;font-family:'Times New Roman';-inkscape-font-specification:'Times New Roman, ';letter-spacing:0px;word-spacing:0px;fill:#e6e6e6;fill-opacity:1;stroke:none;stroke-width:3.5742898"
         d="M 90.081729,45.489256 H 122.33411 V 25.625884 q 0,-5.324203 -0.66552,-7.013614 -0.51195,-1.279856 -2.15016,-2.201353 -2.20136,-1.228662 -4.65868,-1.228662 h -2.45732 v -1.894188 h 29.69266 v 1.894188 h -2.45732 q -2.45732,0 -4.65868,1.177468 -1.63821,0.819108 -2.25254,2.508519 -0.56314,1.638216 -0.56314,6.757642 v 44.794975 q 0,5.273009 0.66552,6.96242 0.51195,1.279856 2.09897,2.201353 2.25255,1.228662 4.70987,1.228662 h 2.45732 v 1.894187 h -29.69266 v -1.894187 h 2.45732 q 4.24912,0 6.1945,-2.508519 1.27986,-1.638216 1.27986,-7.883916 V 49.277631 H 90.081729 v 21.143228 q 0,5.273009 0.665525,6.96242 0.511942,1.279856 2.150159,2.201353 2.201353,1.228662 4.658677,1.228662 h 2.50852 v 1.894187 H 70.320745 v -1.894187 h 2.457324 q 4.300318,0 6.2457,-2.508519 1.228662,-1.638216 1.228662,-7.883916 V 25.625884 q 0,-5.324203 -0.665525,-7.013614 -0.511943,-1.279856 -2.098965,-2.201353 -2.252547,-1.228662 -4.709872,-1.228662 h -2.457324 v -1.894188 h 29.743865 v 1.894188 h -2.50852 q -2.457324,0 -4.658677,1.177468 -1.587022,0.819108 -2.201353,2.508519 -0.614331,1.638216 -0.614331,6.757642 z" />
      <path
         inkscape:connector-curvature="0"
         id="path855"
         style="font-style:normal;font-variant:normal;font-weight:normal;font-stretch:normal;font-size:medium;line-height:1.25;font-family:'Times New Roman';-inkscape-font-specification:'Times New Roman, ';letter-spacing:0px;word-spacing:0px;fill:#e6e6e6;fill-opacity:1;stroke:none;stroke-width:3.5742898"
         d="m 170.50791,34.431296 q 10.6484,0 17.09888,8.088693 5.47779,6.911225 5.47779,15.87022 0,6.296894 -3.02047,12.74737 -3.02046,6.450477 -8.34466,9.726909 -5.27301,3.276433 -11.77468,3.276433 -10.59721,0 -16.84291,-8.447053 -5.27301,-7.116002 -5.27301,-15.972608 0,-6.450477 3.17405,-12.798565 3.22523,-6.399282 8.44705,-9.419743 5.22181,-3.071656 11.05796,-3.071656 z m -1.58702,3.327627 q -2.7133,0 -5.47779,1.638216 -2.7133,1.587022 -4.40271,5.631368 -1.68941,4.044347 -1.68941,10.392435 0,10.238851 4.04435,17.662019 4.09554,7.423167 10.75079,7.423167 4.96585,0 8.19109,-4.09554 3.22523,-4.095541 3.22523,-14.078421 0,-12.491399 -5.37539,-19.658595 -3.6348,-4.914649 -9.26616,-4.914649 z" />
      <path
         inkscape:connector-curvature="0"
         id="path857"
         style="font-style:normal;font-variant:normal;font-weight:normal;font-stretch:normal;font-size:medium;line-height:1.25;font-family:'Times New Roman';-inkscape-font-specification:'Times New Roman, ';letter-spacing:0px;word-spacing:0px;fill:#e6e6e6;fill-opacity:1;stroke:none;stroke-width:3.5742898"
         d="m 213.71587,34.431296 v 10.546017 q 5.88734,-10.546017 12.08184,-10.546017 2.81569,0 4.65868,1.740605 1.84299,1.68941 1.84299,3.941958 0,1.996576 -1.33105,3.378821 -1.33105,1.382245 -3.17404,1.382245 -1.7918,0 -4.04435,-1.740605 -2.20135,-1.791799 -3.27643,-1.791799 -0.9215,0 -1.99657,1.023885 -2.30375,2.098965 -4.76107,6.911225 V 71.75191 q 0,3.890764 0.97269,5.88734 0.66553,1.382245 2.35494,2.303741 1.68941,0.921497 4.86345,0.921497 v 1.842993 h -24.01011 v -1.842993 q 3.5836,0 5.32421,-1.126274 1.27985,-0.819108 1.7918,-2.610907 0.25597,-0.870302 0.25597,-4.965843 V 53.987503 q 0,-8.191082 -0.35836,-9.726909 -0.30717,-1.587022 -1.22867,-2.303742 -0.8703,-0.71672 -2.20135,-0.71672 -1.58702,0 -3.5836,0.767914 l -0.51194,-1.842993 14.18081,-5.733757 z" />
      <path
         inkscape:connector-curvature="0"
         id="path859"
         style="font-style:normal;font-variant:normal;font-weight:normal;font-stretch:normal;font-size:medium;line-height:1.25;font-family:'Times New Roman';-inkscape-font-specification:'Times New Roman, ';letter-spacing:0px;word-spacing:0px;fill:#e6e6e6;fill-opacity:1;stroke:none;stroke-width:3.5742898"
         d="m 265.31967,34.431296 v 15.972609 h -1.68941 q -1.94538,-7.525556 -5.01704,-10.238852 -3.02046,-2.713296 -7.73033,-2.713296 -3.5836,0 -5.78495,1.894188 -2.20136,1.894187 -2.20136,4.197929 0,2.866878 1.63822,4.914649 1.58702,2.098964 6.45048,4.4539 l 7.47436,3.634793 q 10.39243,5.068231 10.39243,13.361701 0,6.399282 -4.86345,10.34124 -4.81226,3.890764 -10.80199,3.890764 -4.30032,0 -9.8293,-1.535828 -1.68941,-0.511943 -2.76449,-0.511943 -1.17746,0 -1.84299,1.331051 h -1.68941 V 66.683679 h 1.68941 q 1.43344,7.167196 5.47779,10.801988 4.04434,3.634792 9.06138,3.634792 3.5324,0 5.73376,-2.04777 2.25254,-2.098965 2.25254,-5.017037 0,-3.532404 -2.50852,-5.938534 -2.45732,-2.40613 -9.88049,-6.092117 -7.42316,-3.685986 -9.72691,-6.655253 -2.30374,-2.918073 -2.30374,-7.371974 0,-5.784951 3.94196,-9.675714 3.99315,-3.890764 10.29005,-3.890764 2.76449,0 6.70644,1.177468 2.61091,0.767914 3.48121,0.767914 0.81911,0 1.27986,-0.35836 0.46075,-0.35836 1.07508,-1.587022 z" />
      <path
         inkscape:connector-curvature="0"
         id="path861"
         style="font-style:normal;font-variant:normal;font-weight:normal;font-stretch:normal;font-size:medium;line-height:1.25;font-family:'Times New Roman';-inkscape-font-specification:'Times New Roman, ';letter-spacing:0px;word-spacing:0px;fill:#e6e6e6;fill-opacity:1;stroke:none;stroke-width:3.5742898"
         d="m 288.30589,65.608599 q -4.30032,-2.098964 -6.60406,-5.836145 -2.30374,-3.788375 -2.30374,-8.344664 0,-6.962419 5.22181,-11.979457 5.27301,-5.017037 13.46409,-5.017037 6.70645,0 11.6211,3.276433 h 9.93168 q 2.20136,0 2.55972,0.153582 0.35836,0.102389 0.51194,0.409554 0.30716,0.460749 0.30716,1.638217 0,1.33105 -0.25597,1.842993 -0.15358,0.255971 -0.56313,0.409554 -0.35836,0.153583 -2.55972,0.153583 h -6.09211 q 2.86688,3.685986 2.86688,9.419743 0,6.552865 -5.01704,11.211543 -5.01704,4.658677 -13.46409,4.658677 -3.48121,0 -7.116,-1.023885 -2.25255,1.945382 -3.07166,3.430015 -0.76791,1.43344 -0.76791,2.457325 0,0.870302 0.81911,1.68941 0.8703,0.819108 3.32762,1.177468 1.43344,0.204777 7.1672,0.35836 10.54602,0.255971 13.66887,0.71672 4.76106,0.665525 7.57675,3.532403 2.86687,2.866879 2.86687,7.064808 0,5.784951 -5.42659,10.853183 -7.9863,7.474358 -20.83606,7.474358 -9.88049,0 -16.68933,-4.4539 -3.83957,-2.55971 -3.83957,-5.3242 0,-1.228662 0.56314,-2.457324 0.8703,-1.894188 3.5836,-5.273009 0.35836,-0.460748 5.22181,-5.52898 -2.6621,-1.587022 -3.78837,-2.815684 -1.07508,-1.279856 -1.07508,-2.866878 0,-1.791799 1.43344,-4.197929 1.48463,-2.406131 6.75764,-6.808837 z m 8.9078,-28.719979 q -3.78838,0 -6.34809,3.020462 -2.55971,3.020461 -2.55971,9.26616 0,8.088693 3.48121,12.542594 2.6621,3.378821 6.75764,3.378821 3.89076,0 6.39928,-2.918073 2.50852,-2.918073 2.50852,-9.163772 0,-8.139887 -3.5324,-12.747371 -2.61091,-3.378821 -6.70645,-3.378821 z m -9.41974,45.818861 q -2.40613,2.610908 -3.6348,4.863455 -1.22866,2.252547 -1.22866,4.146735 0,2.457324 2.96927,4.300317 5.11942,3.174044 14.79514,3.174044 9.21496,0 13.56648,-3.276432 4.4027,-3.225238 4.4027,-6.911225 0,-2.662101 -2.6109,-3.788375 -2.66211,-1.126274 -10.54602,-1.331051 -11.51871,-0.307165 -17.71321,-1.177468 z" />
      <path
         inkscape:connector-curvature="0"
         id="path863"
         style="font-style:normal;font-variant:normal;font-weight:normal;font-stretch:normal;font-size:medium;line-height:1.25;font-family:'Times New Roman';-inkscape-font-specification:'Times New Roman, ';letter-spacing:0px;word-spacing:0px;fill:#e6e6e6;fill-opacity:1;stroke:none;stroke-width:3.5742898"
         d="M 344.31243,9.9092465 V 72.11027 q 0,4.402706 0.61433,5.836145 0.66553,1.43344 1.99658,2.201353 1.33105,0.71672 4.96584,0.71672 v 1.842993 h -22.98622 v -1.842993 q 3.22524,0 4.4027,-0.665525 1.17747,-0.665526 1.843,-2.201353 0.66552,-1.535828 0.66552,-5.88734 V 29.516647 q 0,-7.93511 -0.35836,-9.726909 -0.35836,-1.842993 -1.17747,-2.508518 -0.76791,-0.665526 -1.99657,-0.665526 -1.33105,0 -3.37882,0.819108 l -0.8703,-1.791799 13.97603,-5.7337565 z" />
      <path
         inkscape:connector-curvature="0"
         id="path865"
         style="font-style:normal;font-variant:normal;font-weight:normal;font-stretch:normal;font-size:medium;line-height:1.25;font-family:'Times New Roman';-inkscape-font-specification:'Times New Roman, ';letter-spacing:0px;word-spacing:0px;fill:#e6e6e6;fill-opacity:1;stroke:none;stroke-width:3.5742898"
         d="m 365.14846,53.47556 q -0.0512,10.443629 5.06823,16.382163 5.11943,5.938534 12.03065,5.938534 4.60749,0 7.98631,-2.508519 3.43001,-2.559713 5.73375,-8.703024 l 1.58703,1.023885 q -1.07508,7.013614 -6.2457,12.798565 -5.17062,5.733757 -12.95215,5.733757 -8.44705,0 -14.48797,-6.552865 -5.98973,-6.60406 -5.98973,-17.713214 0,-12.03065 6.14331,-18.737098 6.1945,-6.757642 15.51186,-6.757642 7.88391,0 12.95215,5.221814 5.06823,5.17062 5.06823,13.873644 z m 0,-2.969267 h 21.70637 q -0.25597,-4.505095 -1.07508,-6.348088 -1.27986,-2.866878 -3.83957,-4.505095 -2.50852,-1.638216 -5.27301,-1.638216 -4.24912,0 -7.62794,3.327627 -3.32763,3.276432 -3.89077,9.163772 z" />
      <text
         xml:space="preserve"
         style="font-style:normal;font-variant:normal;font-weight:normal;font-stretch:normal;font-size:29.26911163px;line-height:1.25;font-family:Roboto;-inkscape-font-specification:Roboto;letter-spacing:0px;word-spacing:0px;fill:#4d4d4d;fill-opacity:1;stroke:none;stroke-width:0.9978106"
         x="131.01688"
         y="127.9595"
         id="text830"><tspan
           sodipodi:role="line"
           id="tspan828"
           x="131.01688"
           y="127.9595"
           style="font-style:normal;font-variant:normal;font-weight:500;font-stretch:normal;font-family:Roboto;-inkscape-font-specification:'Roboto Medium';fill:#cccccc;stroke-width:0.9978106">gerando tecnologias</tspan></text>
      <g
         style="stroke-width:1.15242672"
         transform="matrix(0.07261576,0,0,0.07261576,-117.17945,-58.478695)"
         id="g4722">
        <path
           d="m 2180.7897,875.81597 c -4.1094,-2.10068 -8.2175,-4.1464 -12.3269,-6.15388 l -11.9361,-5.69025 -0.4422,-0.21509 -3.3661,-1.5068 -9.1101,-4.09024 -11.7689,-5.03901 -6.86,-2.76985 -6.0428,-2.41734 -0.4063,-0.16729 -3.0674,-1.15908 -9.0551,-3.439 -0.4899,-0.19119 -4.9447,-1.76611 -6.768,-2.39822 -6.9354,-2.32413 -5.6329,-1.87843 -6.3212,-1.98836 -6.731,-2.08276 -4.2014,-1.20808 -8.515,-2.4723 -5.652,-1.52473 -6.694,-1.76611 -5.6891,-1.44944 -7.2699,-1.7673 -5.2422,-1.19493 -7.9952,-1.78403 -4.1273,-0.83645 -8.0132,-1.63586 -6.0248,-1.13518 -7.1768,-1.28216 -5.1489,-0.8723 -7.2521,-1.17103 -5.9495,-0.86034 -7.4922,-1.03959 -4.7785,-0.60942 -7.6046,-0.90814 -6.0606,-0.65721 -6.7299,-0.66916 -6.4705,-0.56162 -6.0619,-0.48992 -5.9304,-0.39433 -8.1996,-0.50187 -4.2575,-0.20313 -4.8706,-0.17924 -0.2629,6.5255 c -6.1861,153.62837 -27.7522,599.21243 -88.7724,717.96083 -102.4257,199.3284 -305.4906,390.6807 -347.1566,449.1533 33.5225,26.6613 70.1495,50.4224 109.6765,70.7446 39.6573,20.358 80.4115,36.3294 121.7238,48.0612 28.2421,-75.7226 101.8856,-425.5738 162.6453,-543.8586 68.3272,-132.9537 411.1881,-400.2365 531.1637,-491.0785 l 5.3365,-4.0353 -2.3241,-2.9372 -3.0495,-3.9038 -4.9637,-6.0989 -3.9983,-4.8526 -3.6803,-4.3316 -4.5921,-5.3366 -3.8131,-4.3507 -4.8705,-5.4656 -3.7736,-4.0902 -5.0199,-5.4107 -3.4581,-3.6624 -5.4106,-5.5971 -5.1322,-5.16805 -3.0674,-3.04946 -5.9866,-5.8193 -4.2575,-4.0532 -5.3916,-5.01989 -3.3649,-3.12355 -5.8754,-5.24334 -4.7786,-4.23841 -5.2242,-4.46187 -3.9791,-3.40315 -6.3582,-5.22423 -4.3137,-3.51429 -5.0761,-4.01496 -5.3724,-4.20256 -3.9791,-3.01122 -6.8983,-5.2063 -3.8297,-2.78897 -6.3021,-4.53714 -7.1397,-4.98285 -3.6625,-2.49143 -10.7471,-7.15762 -7.8089,-5.00077 -4.2575,-2.69576 -10.9695,-6.65695 -5.3544,-3.10442 -6.9725,-4.03408 -11.5083,-6.35941 -12.1775,-6.4323 z"
           style="fill:#808080;fill-opacity:1;fill-rule:evenodd;stroke:none;stroke-width:1.15242684"
           id="path4702"
           inkscape:connector-curvature="0" />
        <path
           d="m 1701.0331,1808.5186 -232.0504,168.5029 c 33.5214,26.6612 70.1483,50.4223 109.6753,70.7433 39.6585,20.358 80.4128,36.3294 121.725,48.0612 l 0.6572,-287.3074 z"
           style="fill:#ffffff;fill-opacity:1;fill-rule:evenodd;stroke:none;stroke-width:1.15242684"
           id="path4704"
           inkscape:connector-curvature="0" />
        <path
           d="m 1533.2747,901.34323 c 0,0 173.3554,226.84527 241.3277,553.53027 71.3396,342.8621 10.9145,658.8012 10.9145,658.8012 v 0.3106 c 69.0704,9.9849 138.5866,8.7206 206.0212,-2.9371 l -0.1434,-0.5736 c 0,0 76.73,-349.0338 25.4902,-732.76 -44.9771,-336.7786 -199.7024,-571.82226 -199.7024,-571.82226 -100.5293,9.68609 -197.8598,42.37217 -283.9055,95.45328 z"
           style="fill:#999999;fill-opacity:1;fill-rule:evenodd;stroke:none;stroke-width:1.15242684"
           id="path4706"
           inkscape:connector-curvature="0" />
        <path
           d="m 1448.5865,963.46039 c 0,0 123.1183,359.18471 423.4958,513.20391 300.1923,153.9068 663.9321,44.3987 663.9321,44.3987 l -442.1809,563.7565 c 0,0 -68.7167,-331.7802 -302.0325,-451.9243 -233.7244,-120.3484 -543.5837,16.4542 -543.5837,16.4542 z"
           style="fill:#cccccc;fill-opacity:1;fill-rule:evenodd;stroke:none;stroke-width:1.15242684"
           id="path4708"
           inkscape:connector-curvature="0" />
        <path
           d="m 2531.8501,1523.7397 -6.0236,3.942 -6.3212,4.1094 -6.0798,3.96 -5.9495,3.9229 -6.3965,4.2205 -6.1909,4.0711 -6.0057,3.9792 -6.0237,4.0161 -6.173,4.1285 -6.1347,4.0902 -5.8576,3.96 -12.0472,8.1255 -5.8002,3.9971 -6.173,4.2205 -5.7273,3.9038 -5.707,3.96 -5.8193,4.0353 -5.7082,3.997 -5.8384,4.0902 -5.5397,3.8859 -5.5038,3.923 -5.7452,4.1082 -5.3724,3.8309 -5.2625,3.8118 -5.5218,3.9971 -5.2051,3.7927 -5.2624,3.8667 -5.2243,3.868 -4.6291,3.4211 -5.039,3.8298 -5.1502,3.9038 -4.7964,3.6445 -4.7044,3.6063 -4.6101,3.5705 -4.7044,3.6433 -4.2014,3.3099 -4.3328,3.4773 -4.4427,3.5501 -3.9791,3.2359 -3.6816,3.0112 -4.015,3.384 -4.0353,3.3458 -3.6994,3.1606 -3.402,2.9001 -3.3649,2.9384 -3.4402,3.0303 -2.8631,2.5655 -2.863,2.6038 -2.789,2.5834 -2.7149,2.5655 -2.771,2.6587 -2.1186,2.0637 -1.9896,1.9895 -2.0457,2.0828 -1.3945,1.4685 -1.8031,1.9346 -1.5988,1.7482 -1.0396,1.171 -1.0635,1.2272 -0.5377,0.6453 -0.4421,0.5377 -0.1195,0.1195 -0.1195,0.1195 -3.0304,4.4248 -3.2358,4.8335 -3.2168,4.8908 -3.2717,5.057 -3.2538,5.131 -3.1976,5.131 -3.2168,5.2434 -3.1606,5.2242 -3.1976,5.3736 -3.1414,5.4106 -3.1057,5.4286 -3.1414,5.5409 -3.1797,5.7452 -3.1415,5.707 -3.0507,5.597 -3.0482,5.7823 -3.0686,5.8193 -3.0674,5.9304 -3.0482,5.9316 -2.9193,5.8002 -2.9753,5.9496 -2.9933,6.0989 -2.9192,6.0236 -2.9001,6.0607 -2.9001,6.0989 -2.7519,5.8563 -2.8631,6.2471 -2.9754,6.4515 -2.6766,5.9125 -2.7328,6.1347 -2.8081,6.3033 -2.6408,6.0236 -5.4285,12.6244 -2.6396,6.1539 -2.6038,6.1909 -2.5846,6.1922 -2.4544,5.9674 -2.5643,6.2842 -2.5846,6.3402 -2.4353,6.0237 -2.4365,6.0798 -2.4914,6.2841 -2.3803,6.0619 -2.25,5.7631 -2.3612,6.136 -2.4353,6.3391 -2.2679,5.8575 -2.2692,6.0045 -2.1939,5.8014 -2.1748,5.7823 -2.2321,6.0427 -2.1377,5.7452 -2.1198,5.707 -2.0816,5.7643 -2.1748,5.8743 -1.9907,5.4847 -2.0075,5.523 -2.1198,5.8563 -1.9334,5.3545 -1.8784,5.2051 -0.9321,2.6408 c 155.2463,-53.3416 290.9137,-164.4114 371.8654,-321.9639 39.9357,-77.7707 62.9345,-159.7631 70.3155,-241.7926 l -4.1643,2.6778 z"
           style="fill:#ffffff;fill-opacity:1;fill-rule:evenodd;stroke:none;stroke-width:1.15242684"
           id="path4710"
           inkscape:connector-curvature="0" />
        <path
           d="m 1249.2772,1647.7876 3.1606,-4.5551 3.2347,-4.7032 3.5142,-5.1322 3.3088,-4.8335 3.3099,-4.8156 3.5143,-5.1872 3.4582,-5.039 3.421,-5.0569 3.4211,-5.094 3.6063,-5.3354 3.4402,-5.1322 3.439,-5.1501 3.5513,-5.3354 3.4582,-5.2624 3.7186,-5.67 3.6254,-5.5038 3.3649,-5.1681 3.5513,-5.4847 3.6446,-5.6711 3.5322,-5.5218 3.4772,-5.4847 3.6434,-5.8014 3.6254,-5.7452 3.4211,-5.4656 3.5142,-5.7082 3.5322,-5.7261 3.4582,-5.7261 7.1217,-11.7509 3.3458,-5.67 3.4952,-5.9495 3.384,-5.7823 3.2538,-5.634 3.5143,-6.1719 3.402,-5.9686 3.1797,-5.6341 3.2538,-5.9113 3.2346,-5.8946 3.1977,-5.8755 3.2167,-5.9866 3.1056,-5.8742 3.0125,-5.7452 3.0482,-5.9496 3.0495,-5.9495 2.9371,-5.8755 2.9192,-5.8563 2.7711,-5.7261 2.826,-5.8946 2.8069,-5.9305 2.6778,-5.7643 2.6025,-5.689 2.5656,-5.7082 2.5284,-5.7261 2.3994,-5.615 2.3791,-5.6699 2.3063,-5.578 2.287,-5.652 2.1939,-5.597 2.1007,-5.4656 2.0457,-5.4477 1.8402,-5.0378 v -0.1434 -0.1195 l 0.1912,-0.6692 0.2032,-0.8125 0.3943,-1.5618 0.3585,-1.5438 0.4779,-2.3242 0.5378,-2.5834 0.3704,-1.9716 0.4779,-2.881 0.4661,-2.771 0.4421,-2.9372 0.5616,-3.8118 0.5019,-3.7007 0.466,-3.7736 0.4421,-3.8309 0.4302,-3.8298 0.466,-4.5729 0.4302,-4.4261 0.3704,-4.4618 0.4302,-4.8335 0.3704,-5.2434 0.3944,-5.2242 0.3226,-4.7594 0.3107,-5.1322 0.2987,-5.6699 0.2987,-5.5409 0.239,-5.3366 0.239,-5.9483 0.2031,-5.8205 0.2032,-5.9305 0.1673,-6.0236 0.1673,-6.4705 0.1672,-6.3212 0.1195,-5.7643 0.1195,-6.4885 0.1195,-6.5255 v -6.4335 -6.823 -6.4885 -6.6187 -7.0465 -6.7681 l -0.1195,-6.7513 v -7.1588 l -0.1195,-6.9533 -0.1195,-7.0836 -0.1194,-6.9533 -0.1673,-6.9353 -0.1434,-7.4564 -0.1434,-7.0465 -0.3943,-14.5195 -0.2032,-7.0657 -0.239,-7.3631 -0.239,-7.436 -0.2628,-7.2329 -0.239,-7.1947 -0.2988,-7.4181 -0.2987,-7.6416 -0.2748,-7.13969 -0.3107,-7.23291 -0.3346,-7.52924 -0.3107,-7.19586 -0.1673,-3.81063 c -62.0478,53.63553 -115.0548,119.84293 -154.8424,197.26123 -80.727,157.1617 -92.1803,331.65 -45.5327,488.6253 l 1.0635,-1.5617 z"
           style="fill:#ffffff;fill-opacity:1;fill-rule:evenodd;stroke:none;stroke-width:1.15242684"
           id="path4712"
           inkscape:connector-curvature="0" />
        <path
           d="m 2536.2379,1416.6299 c 0,0 -285.374,-8.8126 -590.548,126.1486 -320.2528,141.6551 -541.93,374.7475 -541.93,374.7475 l -0.2628,0.1911 c -48.3409,-50.3303 -87.7938,-107.5937 -117.5786,-169.1911 l 0.5616,-0.227 c 0,0 239.0777,-265.6099 580.8607,-447.4051 299.988,-159.56 581.1595,-170.6215 581.1595,-170.6215 50.6637,87.3457 80.7652,185.5139 87.7376,286.3587 z"
           style="fill:#b3b3b3;fill-opacity:1;fill-rule:evenodd;stroke:none;stroke-width:1.15242684"
           id="path4714"
           inkscape:connector-curvature="0" />
        <path
           d="m 1605.3205,1742.0507 c 86.9932,-126.6505 132.5809,-254.1015 132.5809,-254.1015 l 0.8006,-1.5809 0.7408,-1.5797 0.8962,-2.0266 0.8962,-2.0637 0.8962,-2.2679 1.0396,-2.6779 1.0396,-2.826 1.1113,-3.1976 1.0993,-3.1976 1.0396,-3.1977 1.1352,-3.7007 1.1352,-3.6815 1.0754,-3.8298 1.1949,-4.2575 1.1711,-4.2946 1.1352,-4.3878 1.1351,-4.5371 1.0994,-4.4989 1.1351,-4.8897 1.1711,-5.039 1.0754,-4.9458 1.1352,-5.2612 1.1352,-5.5027 1.1352,-5.4297 1.0634,-5.3354 1.0635,-5.615 1.0994,-5.8563 1.0635,-5.8755 1.0395,-5.8563 1.0396,-6.0989 1.0277,-6.1169 1.0157,-6.21 1.0037,-6.265 1.0037,-6.4706 1.0157,-6.5446 0.9321,-6.3582 0.944,-6.6008 0.9679,-6.6749 0.932,-6.7298 0.932,-6.8601 0.9082,-6.7681 0.8723,-6.8792 0.9081,-7.1026 0.8962,-6.9533 0.8365,-7.0095 0.8603,-7.1767 0.8604,-7.1385 0.8125,-7.1959 0.8365,-7.2137 0.7647,-7.1947 0.8006,-7.3811 0.7767,-7.2329 1.5236,-14.8183 0.7289,-7.3249 0.7289,-7.3811 0.7289,-7.4743 0.705,-7.4372 0.6931,-7.3619 0.6811,-7.4934 0.693,-7.6046 0.6572,-7.3619 0.6572,-7.4552 0.6334,-7.5113 0.6094,-7.344 0.6094,-7.4934 0.6094,-7.4743 0.5975,-7.399 0.5616,-7.4002 0.5735,-7.3811 0.5736,-7.5113 0.5377,-7.307 1.0635,-14.5578 0.5019,-7.2879 0.5258,-7.2878 0.4779,-7.1588 0.478,-7.1768 0.4899,-7.1385 0.466,-7.0465 0.4422,-7.0094 0.4301,-6.9354 0.4302,-7.04649 0.4421,-6.93417 0.4063,-6.73103 0.4063,-6.80512 0.3943,-6.67487 0.3704,-6.6928 0.3944,-6.71191 0.3704,-6.41438 0.3585,-6.34029 0.3585,-6.48846 0.3345,-6.30325 0.3107,-6.1718 0.3346,-6.13596 0.2987,-6.11684 0.3107,-6.02363 0.2987,-5.74522 0.2749,-5.87546 0.2987,-5.81931 0.2629,-5.4656 0.2629,-5.50384 0.2509,-5.53969 0.2629,-5.28039 0.227,-5.26246 0.2629,-5.00078 0.1912,-4.88964 0.227,-5.07606 0.2032,-4.79644 0.227,-4.55507 0.1912,-4.48098 0.1673,-4.44394 0.1912,-4.35074 0.1673,-4.20137 0.1673,-3.97911 v -0.48992 l -5.2625,0.56162 -3.7365,0.40627 -9.054,1.06349 -4.5921,0.57357 -8.7577,1.20807 -3.6624,0.56162 -9.4268,1.46976 -3.923,0.69306 -8.2175,1.44944 -6.3952,1.2272 -6.4885,1.28215 -6.173,1.30248 -7.1206,1.56177 -0.5257,0.11949 -3.1989,0.76475 -9.2583,2.19389 v 0 c -4.1488,1.02764 -8.2761,2.10069 -12.4045,3.21556 l -12.3257,3.44019 -6.657,1.98956 -5.6149,1.69202 -0.7409,0.23899 -5.1131,1.63705 -7.4922,2.41614 -5.3365,1.84139 -7.2138,2.50935 -6.5626,2.39941 -5.3544,1.97044 -6.4897,2.49143 -6.8792,2.7328 -5.0749,2.08276 -6.3594,2.65871 -6.7119,2.9001 -5.3174,2.34325 -6.9342,3.17971 -4.3316,2.0254 -8.4601,4.03527 -0.7767,0.37043 -1.4327,0.72891 -9.1651,4.5933 -4.444,2.34206 -6.2662,3.27291 -6.2471,3.42108 -6.0977,3.38284 -0.4302,0.22704 c -3.7628,2.10188 -7.4635,4.23961 -11.163,6.4335 l -4.8526,2.93832 -5.8754,3.53221 0.5735,9.81634 0.3705,7.32611 0.4062,7.51132 0.3944,7.399 0.3943,7.41811 0.3704,7.41931 0.3585,7.47428 0.3585,7.51132 0.3345,7.34284 0.3346,7.53044 0.3346,7.4922 0.2748,7.38227 0.2988,7.62242 0.2987,7.5293 0.2629,7.3822 0.2629,7.4731 0.239,7.5113 0.2389,7.4194 0.2032,7.3428 0.4063,14.8936 0.1433,7.2687 0.1434,7.4181 0.1554,7.2521 0.1195,7.2508 0.1195,7.2317 0.1195,7.2138 0.1195,7.2138 v 7.0465 7.0285 7.1576 6.9533 6.8052 6.9162 6.823 l -0.1195,6.7311 -0.1195,6.6748 -0.1195,6.4144 -0.1912,6.6187 -0.1554,6.5447 -0.1911,6.3402 -0.1912,6.2842 -0.239,6.2088 -0.239,6.173 -0.2629,5.9496 -0.3346,5.9686 -0.3106,5.9305 -0.3346,5.7261 -0.3585,5.4106 -0.4302,5.5409 -0.4063,5.5958 -0.4421,5.3545 -0.4302,5.0569 -0.5257,5.1323 -0.5019,5.0199 -0.4899,4.5921 -0.5616,4.6482 -0.5736,4.499 -0.5975,4.4068 -0.6333,4.3687 -0.5735,3.9421 -0.6573,3.8118 -0.6572,3.7927 -0.6333,3.2908 -0.6691,3.31 -0.6931,3.347 -0.693,2.9383 -0.6692,2.7699 -0.6094,2.3802 -0.5975,2.1569 -0.6333,2.1198 -0.5616,1.6729 -0.5736,1.655 -2.1568,5.9125 -2.3062,6.1539 -2.3791,6.1538 -2.4735,6.2842 -2.5285,6.2841 -2.5464,6.173 -2.6408,6.2841 -2.6958,6.265 -2.7698,6.3033 -2.8081,6.2471 -2.863,6.2662 -2.9372,6.3391 -3.0124,6.3594 -3.0112,6.3212 -3.1056,6.3391 -3.1236,6.2841 -3.1414,6.3032 -3.2538,6.3582 -3.2538,6.3403 -3.2908,6.2662 -3.3279,6.2651 -3.3661,6.2841 -3.402,6.2841 -3.4581,6.2841 -3.4581,6.2292 -3.4402,6.1539 -3.5502,6.21 -3.6075,6.3212 -3.4772,6.0607 -3.6063,6.1359 -3.6254,6.173 -3.5884,6.0607 -3.6816,6.0798 -3.6624,6.0798 -3.6625,6.0428 -3.6815,5.9674 -3.6625,5.9687 -3.6625,5.8372 -3.7186,5.9316 -3.7186,5.8934 -3.6445,5.7453 -3.6995,5.7631 -3.7378,5.8193 -3.6624,5.6711 -3.5884,5.5039 -3.6995,5.6329 -3.7556,5.7261 -3.5884,5.4297 -3.6063,5.4286 -3.6075,5.4285 -3.6063,5.3545 -3.6266,5.3736 -3.4952,5.1872 -3.5501,5.2433 -3.5334,5.1872 -3.476,5.094 -3.4211,5.039 -3.4402,4.9637 -3.4211,4.9829 -3.3458,4.8896 -3.31,4.7786 -3.2908,4.7414 -3.2155,4.6662 -3.2168,4.6292 -3.1056,4.481 -3.1236,4.4989 -3.1785,4.5933 -3.0124,4.3495 -2.9192,4.1835 -2.9383,4.2396 -2.8439,4.1093 -2.8261,4.0711 -1.2821,1.8785 1.171,2.4544 1.9525,3.9408 3.9421,7.9021 1.9704,3.7557 3.6816,7.0094 1.8784,3.4964 4.4989,8.1243 2.3421,4.1093 3.7186,6.4694 3.7939,6.3403 2.6396,4.3698 3.439,5.5588 3.96,6.2471 2.5476,3.923 4.4069,6.6928 3.0112,4.4439 4.1273,6.0236 3.1797,4.5001 4.7032,6.5626 2.2692,3.0674 5.3724,7.2138 2.9933,3.8859 4.8347,6.1909 2.8451,3.5884 5.2613,6.4896 3.4581,4.1452 5.0761,6.0237 2.305,2.6587 6.7119,7.6607 0.5616,0.6094 1.2654,1.3562 6.6737,7.3261 2.6779,2.826 7.2137,7.6046 c 11.3041,11.6386 23.0729,22.8864 35.3257,33.7447 22.8494,-26.6062 91.8088,-108.895 163.0169,-212.5479 z"
           style="fill:#ffffff;fill-opacity:1;fill-rule:evenodd;stroke:none;stroke-width:1.15242684"
           id="path4716"
           inkscape:connector-curvature="0" />
        <path
           d="m 2397.2044,1053.9117 -3.0495,-3.9038 -4.9637,-6.0989 -3.9982,-4.8527 -3.6804,-4.3316 -4.5921,-5.3365 -3.8119,-4.3508 -4.8717,-5.4656 -3.7736,-4.0902 -5.0199,-5.4106 -3.4581,-3.6625 -5.4106,-5.5958 -5.131,-5.1693 -3.0686,-3.04946 -5.9866,-5.8193 -4.2575,-4.05319 -5.3916,-5.0199 -3.3649,-3.12354 -5.8754,-5.24215 -4.7786,-4.23961 -5.2242,-4.46186 -3.9791,-3.40316 -6.3582,-5.22423 -4.3137,-3.51309 -5.0761,-4.01615 -5.3724,-4.20256 -3.9791,-3.01122 -6.8971,-5.20631 -3.8309,-2.78896 -6.3021,-4.53595 -7.1397,-4.98285 -3.6624,-2.49143 -10.7472,-7.15881 -7.8089,-5.00078 -4.2575,-2.69576 -10.9695,-6.65575 -5.3544,-3.10562 -6.9713,-4.03408 -11.5095,-6.35941 -12.1775,-6.4323 c -4.1094,-2.10188 -8.2175,-4.1464 -12.3269,-6.15388 l -11.9361,-5.69025 -0.4422,-0.21509 -3.3649,-1.5068 -9.1101,-4.09024 -11.7689,-5.03901 -6.8601,-2.76985 -6.0427,-2.41734 -0.4063,-0.16729 -3.0674,-1.15908 -9.0551,-3.439 -0.49,-0.19119 -4.9458,-1.76611 -6.7668,-2.39822 -6.9354,-2.32413 -5.6329,-1.87843 -6.3212,-1.98836 -6.731,-2.08276 -4.2014,-1.20808 -8.515,-2.4723 -5.6532,-1.52473 -6.6928,-1.76611 -5.6891,-1.45064 -7.2699,-1.7661 -5.2422,-1.19493 -7.9953,-1.78403 -4.1272,-0.83645 -8.0144,-1.63586 -6.0237,-1.13518 -7.1767,-1.28216 -5.1501,-0.8723 -7.2509,-1.17103 -5.9495,-0.86034 -7.4922,-1.03959 -4.7785,-0.60942 -7.6046,-0.90814 -6.0606,-0.65721 -6.7311,-0.66916 -6.4693,-0.56162 -6.0619,-0.48992 -5.9304,-0.39433 -8.1996,-0.50187 -4.2575,-0.20313 -4.8706,-0.17924 c 0,0 66.021,158.09143 42.0185,372.25603 -15.1529,135.1297 -58.2683,266.3173 -58.2683,266.3173 0,0 82.0665,-111.145 183.2829,-202.0803 160.5446,-144.2577 327.3172,-183.0236 327.3172,-183.0236 l -2.3241,-2.9371 z"
           style="fill:#ffffff;fill-opacity:1;fill-rule:evenodd;stroke:none;stroke-width:1.15242684"
           id="path4718"
           inkscape:connector-curvature="0" />
        <path
           d="m 1810.8028,1847.637 c 52.3187,-144.4812 129.3832,-255.7565 129.3832,-255.7565 l 0.8245,-1.5809 0.8604,-1.5248 1.1352,-1.8963 1.1591,-1.9143 1.3192,-2.0636 1.5617,-2.3982 1.7124,-2.4915 1.9334,-2.771 1.9704,-2.7711 1.9896,-2.6957 2.342,-3.0865 2.3433,-3.0483 2.4723,-3.1235 2.7698,-3.4402 2.8272,-3.439 2.8989,-3.4952 3.0124,-3.5704 3.0124,-3.4952 3.3279,-3.7736 3.402,-3.8859 3.4031,-3.7557 3.6063,-3.9791 3.8298,-4.1284 3.7556,-4.0903 3.7187,-3.96 3.9408,-4.1464 4.1273,-4.2945 4.1464,-4.2755 4.1835,-4.2587 4.3316,-4.3878 4.3878,-4.4057 4.4439,-4.4439 4.518,-4.481 4.6662,-4.573 4.7224,-4.6292 4.6291,-4.463 4.8156,-4.6292 4.8526,-4.6674 4.9458,-4.6662 5.0199,-4.7594 4.9828,-4.6662 5.0761,-4.7414 5.2422,-4.8718 5.1501,-4.7594 5.2063,-4.7594 5.3366,-4.8896 5.3174,-4.8526 5.3724,-4.8526 5.3545,-4.8717 5.4106,-4.8335 5.5218,-4.9267 5.4476,-4.8347 11.1559,-9.8904 5.5218,-4.8526 5.5779,-4.8897 5.6699,-4.9458 5.6341,-4.9088 5.5779,-4.8334 5.707,-4.9088 5.7823,-5.002 5.5779,-4.8143 5.7082,-4.8718 5.7261,-4.8896 5.6149,-4.7785 5.7452,-4.8526 5.7082,-4.8526 5.67,-4.7965 5.689,-4.7594 5.6711,-4.7606 5.7632,-4.8335 5.615,-4.7032 11.2299,-9.3527 5.6341,-4.6483 5.6138,-4.6662 5.5408,-4.555 5.56,-4.5742 5.5218,-4.536 5.4656,-4.5001 5.4298,-4.4427 5.3724,-4.3878 5.4847,-4.4439 5.3915,-4.4069 5.2254,-4.2576 5.2983,-4.2754 5.1872,-4.2205 5.2434,-4.2026 5.2242,-4.2205 4.9828,-4.034 4.9638,-3.9792 5.076,-4.0531 4.9088,-3.96 4.8335,-3.8489 4.7964,-3.8489 4.8156,-3.7927 4.7044,-3.7736 4.4989,-3.5883 4.6113,-3.6446 4.5729,-3.6254 4.2958,-3.4019 4.3125,-3.4032 4.3507,-3.4199 4.1465,-3.2908 4.1452,-3.2538 3.9229,-3.1235 3.868,-3.0125 3.997,-3.1223 3.7748,-2.9754 3.5884,-2.8069 3.5322,-2.7698 3.5143,-2.734 3.4211,-2.6766 3.3099,-2.5847 3.1415,-2.4544 0.3704,-0.2748 2.6217,4.5921 1.8402,3.2729 4.426,7.9762 2.1747,4.0711 4.1464,7.828 1.6729,3.2908 4.2767,8.5342 1.7482,3.5884 3.5883,7.5113 2.734,5.9125 2.7328,6.0236 2.5285,5.7823 2.9001,6.7119 0.2031,0.478 1.2452,3.0315 3.5883,8.8126 v 0 c 1.5821,3.96 3.1045,7.9391 4.6113,11.9361 l 4.3877,12.0485 2.2501,6.5625 1.8963,5.5409 0.251,0.7648 1.6358,5.1119 2.3983,7.4934 1.6179,5.4106 2.1748,7.3249 1.8593,6.7299 1.5056,5.4847 1.7493,6.731 1.7841,7.1947 1.2821,5.3365 1.5248,6.7299 1.5617,7.1217 1.195,5.6891 1.4494,7.4922 0.8962,4.7044 1.6371,9.2213 0.1434,0.8603 0.2509,1.6001 1.6179,10.1138 0.6811,4.9829 0.9679,7.0094 0.8723,7.0645 0.7767,6.8983 0.1195,0.5018 c 0.466,4.2588 0.8723,8.5163 1.2642,12.7918 l 0.4302,5.652 0.5616,6.8242 -8.3298,5.2613 -6.173,3.96 -6.3403,4.0352 -6.228,4.015 -6.265,3.9982 -6.2471,4.0162 -6.2841,4.0711 -6.3224,4.0723 -6.1538,4.015 -6.3212,4.1093 -6.2841,4.0903 -6.1539,4.0723 -6.3965,4.2014 -6.2841,4.1464 -6.1539,4.0711 -6.21,4.1464 -6.2471,4.1834 -6.1718,4.1273 -6.0989,4.0903 -12.3448,8.3668 -6.0058,4.1094 -6.1168,4.1823 -5.9866,4.0914 -5.9495,4.1273 -5.9496,4.1273 -5.9125,4.1284 -5.9125,4.1452 -5.7631,4.0532 -5.7261,4.0724 -5.8385,4.1643 -5.634,4.0341 -5.5218,3.997 -5.615,4.0532 -5.5026,4.0162 -5.4298,3.997 -5.3724,3.9612 -5.1322,3.8297 -5.2792,3.9971 -5.2254,3.942 -5.0569,3.8489 -4.9829,3.8297 -4.9076,3.7927 -4.8717,3.8119 -4.7032,3.6636 -4.6483,3.7366 -4.6483,3.7186 -4.4439,3.6063 -4.2014,3.4402 -4.2575,3.5692 -4.3137,3.5884 -4.0723,3.4772 -3.8859,3.31 -3.8668,3.4019 -3.7748,3.3279 -3.4581,3.0686 -3.4581,3.1606 -3.31,3.0853 -3.2526,3.0494 -3.1797,3.0495 -2.863,2.771 -2.7149,2.752 -2.7149,2.7519 -2.305,2.4173 -2.305,2.4723 -2.3062,2.5106 -2.0075,2.2679 -1.8593,2.1569 -1.5618,1.8784 -1.4124,1.7482 -1.3574,1.7482 -1.0396,1.4124 -1.0038,1.4506 -3.5513,5.2051 -3.6625,5.4477 -3.6254,5.5218 -3.6624,5.652 -3.6278,5.7273 -3.5514,5.6699 -3.5692,5.8193 -3.5143,5.8384 -3.4952,5.9125 -3.4581,5.9126 -3.439,5.9674 -3.4402,6.0989 -3.4019,6.1539 -3.3841,6.1169 -3.3649,6.21 -3.2717,6.1909 -3.2909,6.2471 -3.2729,6.3403 -3.2717,6.3391 -3.1797,6.3224 -3.1606,6.3582 -3.1414,6.3952 -3.1236,6.4144 -3.1044,6.4706 -3.0495,6.4323 -2.9933,6.3964 -2.9753,6.4885 -3.0495,6.6187 -2.8989,6.3773 -2.9013,6.4885 -2.9001,6.5267 -2.8248,6.4693 -2.8069,6.5267 -2.808,6.5255 -2.7711,6.4885 -2.7149,6.4705 -2.7148,6.4514 -2.6396,6.3774 -2.6396,6.4705 -2.6217,6.4514 -2.5476,6.3212 -2.5285,6.3582 -2.5655,6.4335 -2.4735,6.2841 -2.3791,6.0978 -2.4173,6.3032 -2.4735,6.3953 -2.3241,6.0618 -2.3242,6.1169 -2.305,6.0798 -2.268,6.0607 -2.25,6.0606 -2.176,5.8755 -2.1939,5.9316 -2.1568,5.8934 -2.1198,5.7823 -2.1007,5.7261 -2.0457,5.6711 -2.0637,5.689 -2.0266,5.578 -1.9525,5.4656 -1.9334,5.4477 -1.9154,5.3174 -1.8964,5.3174 -1.8223,5.131 -1.8581,5.1502 -1.8593,5.2804 -1.784,4.9637 -1.7112,4.8156 -1.729,4.8526 -1.692,4.7223 -1.6741,4.6674 -0.7648,2.1198 -2.6957,0.478 -4.3329,0.7289 -8.7193,1.3742 -4.2014,0.5974 -7.8459,1.0994 -3.9421,0.5018 -9.2212,1.0635 -4.7045,0.5019 -7.4181,0.7408 -7.3631,0.5975 -5.094,0.4063 -6.5076,0.4302 -7.399,0.4301 -4.6674,0.2032 -7.9941,0.3346 -5.3915,0.1194 -7.289,0.1434 h -5.5218 -8.0502 -3.8298 l -8.999,-0.1673 -4.8896,-0.1672 -7.8651,-0.3346 -4.555,-0.2271 -8.3299,-0.5018 -5.4094,-0.3944 -7.8459,-0.6333 -3.4964,-0.2987 -10.1509,-1.0276 -0.8245,-0.1195 -1.8402,-0.2271 -9.8354,-1.171 -3.868,-0.5258 -10.3744,-1.4315 c -16.0443,-2.4173 -32.0528,-5.4477 -48.0051,-9.0922 8.3299,-34.0614 35.0652,-138.0286 77.8652,-256.2763 z"
           style="fill:#ffffff;fill-opacity:1;fill-rule:evenodd;stroke:none;stroke-width:1.15242684"
           id="path4720"
           inkscape:connector-curvature="0" />
      </g>
    </g>
  </g>
</svg>
