<?xml version="1.0" encoding="UTF-8" standalone="no"?>
<!-- Created with Inkscape (http://www.inkscape.org/) -->

<svg
   xmlns:dc="http://purl.org/dc/elements/1.1/"
   xmlns:cc="http://creativecommons.org/ns#"
   xmlns:rdf="http://www.w3.org/1999/02/22-rdf-syntax-ns#"
   xmlns:svg="http://www.w3.org/2000/svg"
   xmlns="http://www.w3.org/2000/svg"
   xmlns:sodipodi="http://sodipodi.sourceforge.net/DTD/sodipodi-0.dtd"
   xmlns:inkscape="http://www.inkscape.org/namespaces/inkscape"
   width="110.09856"
   height="110.24459"
   id="svg3756"
   version="1.1"
   inkscape:version="0.92.1 r15371"
   viewBox="0 0 110.09856 110.24459"
   inkscape:export-filename="C:\Users\William\logo para Moovit.png"
   inkscape:export-xdpi="90"
   inkscape:export-ydpi="90"
   sodipodi:docname="horsgle3 mais logo lateral default.svg">
  <defs
     id="defs3758" />
  <sodipodi:namedview
     id="base"
     pagecolor="#ffffff"
     bordercolor="#666666"
     borderopacity="1.0"
     inkscape:pageopacity="0.0"
     inkscape:pageshadow="2"
     inkscape:zoom="0.171875"
     inkscape:cx="6499.0635"
     inkscape:cy="75.149335"
     inkscape:current-layer="layer1"
     showgrid="true"
     inkscape:document-units="ft"
     inkscape:grid-bbox="true"
     inkscape:window-width="1920"
     inkscape:window-height="1003"
     inkscape:window-x="-9"
     inkscape:window-y="-9"
     inkscape:window-maximized="1"
     fit-margin-top="0"
     fit-margin-left="0"
     fit-margin-right="0"
     fit-margin-bottom="0" />
  <metadata
     id="metadata3761">
    <rdf:RDF>
      <cc:Work
         rdf:about="">
        <dc:format>image/svg+xml</dc:format>
        <dc:type
           rdf:resource="http://purl.org/dc/dcmitype/StillImage" />
        <dc:title />
      </cc:Work>
    </rdf:RDF>
  </metadata>
  <g
     id="layer1"
     inkscape:label="Layer 1"
     inkscape:groupmode="layer"
     transform="translate(-16.587047,58.9405)">
    <rect
       style="opacity:1;fill:none;fill-opacity:1;stroke:none;stroke-width:0.15978758;stroke-miterlimit:4;stroke-dasharray:none;stroke-opacity:1;paint-order:markers stroke fill"
       id="rect4549"
       width="1714.2639"
       height="1854.2809"
       x="7528.9092"
       y="-1795.109"
       inkscape:export-filename="C:\Users\William\hg01.png"
       inkscape:export-xdpi="90"
       inkscape:export-ydpi="90" />
    <rect
       style="opacity:1;fill:#333333;fill-opacity:1;stroke:none;stroke-width:7.55905485;stroke-miterlimit:4;stroke-dasharray:none;stroke-opacity:1"
       id="rect4492"
       width="3789.8135"
       height="3756.1924"
       x="-93.384659"
       y="-161.50452"
       rx="1.32583"
       ry="1.32583"
       inkscape:export-xdpi="90"
       inkscape:export-ydpi="90" />
    <g
       id="g4564"
       transform="matrix(0.86773413,0,0,0.86773413,261.99431,69.215486)"
       style="stroke-width:1.15242672">
      <path
         inkscape:connector-curvature="0"
         id="path4241"
         style="fill:#808080;fill-opacity:1;fill-rule:evenodd;stroke:none;stroke-width:1.15242684"
         d="m 2180.7897,875.81597 c -4.1094,-2.10068 -8.2175,-4.1464 -12.3269,-6.15388 l -11.9361,-5.69025 -0.4422,-0.21509 -3.3661,-1.5068 -9.1101,-4.09024 -11.7689,-5.03901 -6.86,-2.76985 -6.0428,-2.41734 -0.4063,-0.16729 -3.0674,-1.15908 -9.0551,-3.439 -0.4899,-0.19119 -4.9447,-1.76611 -6.768,-2.39822 -6.9354,-2.32413 -5.6329,-1.87843 -6.3212,-1.98836 -6.731,-2.08276 -4.2014,-1.20808 -8.515,-2.4723 -5.652,-1.52473 -6.694,-1.76611 -5.6891,-1.44944 -7.2699,-1.7673 -5.2422,-1.19493 -7.9952,-1.78403 -4.1273,-0.83645 -8.0132,-1.63586 -6.0248,-1.13518 -7.1768,-1.28216 -5.1489,-0.8723 -7.2521,-1.17103 -5.9495,-0.86034 -7.4922,-1.03959 -4.7785,-0.60942 -7.6046,-0.90814 -6.0606,-0.65721 -6.7299,-0.66916 -6.4705,-0.56162 -6.0619,-0.48992 -5.9304,-0.39433 -8.1996,-0.50187 -4.2575,-0.20313 -4.8706,-0.17924 -0.2629,6.5255 c -6.1861,153.62837 -27.7522,599.21243 -88.7724,717.96083 -102.4257,199.3284 -305.4906,390.6807 -347.1566,449.1533 33.5225,26.6613 70.1495,50.4224 109.6765,70.7446 39.6573,20.358 80.4115,36.3294 121.7238,48.0612 28.2421,-75.7226 101.8856,-425.5738 162.6453,-543.8586 68.3272,-132.9537 411.1881,-400.2365 531.1637,-491.0785 l 5.3365,-4.0353 -2.3241,-2.9372 -3.0495,-3.9038 -4.9637,-6.0989 -3.9983,-4.8526 -3.6803,-4.3316 -4.5921,-5.3366 -3.8131,-4.3507 -4.8705,-5.4656 -3.7736,-4.0902 -5.0199,-5.4107 -3.4581,-3.6624 -5.4106,-5.5971 -5.1322,-5.16805 -3.0674,-3.04946 -5.9866,-5.8193 -4.2575,-4.0532 -5.3916,-5.01989 -3.3649,-3.12355 -5.8754,-5.24334 -4.7786,-4.23841 -5.2242,-4.46187 -3.9791,-3.40315 -6.3582,-5.22423 -4.3137,-3.51429 -5.0761,-4.01496 -5.3724,-4.20256 -3.9791,-3.01122 -6.8983,-5.2063 -3.8297,-2.78897 -6.3021,-4.53714 -7.1397,-4.98285 -3.6625,-2.49143 -10.7471,-7.15762 -7.8089,-5.00077 -4.2575,-2.69576 -10.9695,-6.65695 -5.3544,-3.10442 -6.9725,-4.03408 -11.5083,-6.35941 -12.1775,-6.4323 z" />
      <path
         inkscape:connector-curvature="0"
         id="path4243"
         style="fill:#ffffff;fill-opacity:1;fill-rule:evenodd;stroke:none;stroke-width:1.15242684"
         d="m 1701.0331,1808.5186 -232.0504,168.5029 c 33.5214,26.6612 70.1483,50.4223 109.6753,70.7433 39.6585,20.358 80.4128,36.3294 121.725,48.0612 l 0.6572,-287.3074 z" />
      <path
         inkscape:connector-curvature="0"
         id="path4245"
         style="fill:#999999;fill-opacity:1;fill-rule:evenodd;stroke:none;stroke-width:1.15242684"
         d="m 1533.2747,901.34323 c 0,0 173.3554,226.84527 241.3277,553.53027 71.3396,342.8621 10.9145,658.8012 10.9145,658.8012 v 0.3106 c 69.0704,9.9849 138.5866,8.7206 206.0212,-2.9371 l -0.1434,-0.5736 c 0,0 76.73,-349.0338 25.4902,-732.76 -44.9771,-336.7786 -199.7024,-571.82226 -199.7024,-571.82226 -100.5293,9.68609 -197.8598,42.37217 -283.9055,95.45328 z" />
      <path
         inkscape:connector-curvature="0"
         id="path4247"
         style="fill:#cccccc;fill-opacity:1;fill-rule:evenodd;stroke:none;stroke-width:1.15242684"
         d="m 1448.5865,963.46039 c 0,0 123.1183,359.18471 423.4958,513.20391 300.1923,153.9068 663.9321,44.3987 663.9321,44.3987 l -442.1809,563.7565 c 0,0 -68.7167,-331.7802 -302.0325,-451.9243 -233.7244,-120.3484 -543.5837,16.4542 -543.5837,16.4542 z" />
      <path
         inkscape:connector-curvature="0"
         id="path4249"
         style="fill:#ffffff;fill-opacity:1;fill-rule:evenodd;stroke:none;stroke-width:1.15242684"
         d="m 2531.8501,1523.7397 -6.0236,3.942 -6.3212,4.1094 -6.0798,3.96 -5.9495,3.9229 -6.3965,4.2205 -6.1909,4.0711 -6.0057,3.9792 -6.0237,4.0161 -6.173,4.1285 -6.1347,4.0902 -5.8576,3.96 -12.0472,8.1255 -5.8002,3.9971 -6.173,4.2205 -5.7273,3.9038 -5.707,3.96 -5.8193,4.0353 -5.7082,3.997 -5.8384,4.0902 -5.5397,3.8859 -5.5038,3.923 -5.7452,4.1082 -5.3724,3.8309 -5.2625,3.8118 -5.5218,3.9971 -5.2051,3.7927 -5.2624,3.8667 -5.2243,3.868 -4.6291,3.4211 -5.039,3.8298 -5.1502,3.9038 -4.7964,3.6445 -4.7044,3.6063 -4.6101,3.5705 -4.7044,3.6433 -4.2014,3.3099 -4.3328,3.4773 -4.4427,3.5501 -3.9791,3.2359 -3.6816,3.0112 -4.015,3.384 -4.0353,3.3458 -3.6994,3.1606 -3.402,2.9001 -3.3649,2.9384 -3.4402,3.0303 -2.8631,2.5655 -2.863,2.6038 -2.789,2.5834 -2.7149,2.5655 -2.771,2.6587 -2.1186,2.0637 -1.9896,1.9895 -2.0457,2.0828 -1.3945,1.4685 -1.8031,1.9346 -1.5988,1.7482 -1.0396,1.171 -1.0635,1.2272 -0.5377,0.6453 -0.4421,0.5377 -0.1195,0.1195 -0.1195,0.1195 -3.0304,4.4248 -3.2358,4.8335 -3.2168,4.8908 -3.2717,5.057 -3.2538,5.131 -3.1976,5.131 -3.2168,5.2434 -3.1606,5.2242 -3.1976,5.3736 -3.1414,5.4106 -3.1057,5.4286 -3.1414,5.5409 -3.1797,5.7452 -3.1415,5.707 -3.0507,5.597 -3.0482,5.7823 -3.0686,5.8193 -3.0674,5.9304 -3.0482,5.9316 -2.9193,5.8002 -2.9753,5.9496 -2.9933,6.0989 -2.9192,6.0236 -2.9001,6.0607 -2.9001,6.0989 -2.7519,5.8563 -2.8631,6.2471 -2.9754,6.4515 -2.6766,5.9125 -2.7328,6.1347 -2.8081,6.3033 -2.6408,6.0236 -5.4285,12.6244 -2.6396,6.1539 -2.6038,6.1909 -2.5846,6.1922 -2.4544,5.9674 -2.5643,6.2842 -2.5846,6.3402 -2.4353,6.0237 -2.4365,6.0798 -2.4914,6.2841 -2.3803,6.0619 -2.25,5.7631 -2.3612,6.136 -2.4353,6.3391 -2.2679,5.8575 -2.2692,6.0045 -2.1939,5.8014 -2.1748,5.7823 -2.2321,6.0427 -2.1377,5.7452 -2.1198,5.707 -2.0816,5.7643 -2.1748,5.8743 -1.9907,5.4847 -2.0075,5.523 -2.1198,5.8563 -1.9334,5.3545 -1.8784,5.2051 -0.9321,2.6408 c 155.2463,-53.3416 290.9137,-164.4114 371.8654,-321.9639 39.9357,-77.7707 62.9345,-159.7631 70.3155,-241.7926 l -4.1643,2.6778 z" />
      <path
         inkscape:connector-curvature="0"
         id="path4251"
         style="fill:#ffffff;fill-opacity:1;fill-rule:evenodd;stroke:none;stroke-width:1.15242684"
         d="m 1249.2772,1647.7876 3.1606,-4.5551 3.2347,-4.7032 3.5142,-5.1322 3.3088,-4.8335 3.3099,-4.8156 3.5143,-5.1872 3.4582,-5.039 3.421,-5.0569 3.4211,-5.094 3.6063,-5.3354 3.4402,-5.1322 3.439,-5.1501 3.5513,-5.3354 3.4582,-5.2624 3.7186,-5.67 3.6254,-5.5038 3.3649,-5.1681 3.5513,-5.4847 3.6446,-5.6711 3.5322,-5.5218 3.4772,-5.4847 3.6434,-5.8014 3.6254,-5.7452 3.4211,-5.4656 3.5142,-5.7082 3.5322,-5.7261 3.4582,-5.7261 7.1217,-11.7509 3.3458,-5.67 3.4952,-5.9495 3.384,-5.7823 3.2538,-5.634 3.5143,-6.1719 3.402,-5.9686 3.1797,-5.6341 3.2538,-5.9113 3.2346,-5.8946 3.1977,-5.8755 3.2167,-5.9866 3.1056,-5.8742 3.0125,-5.7452 3.0482,-5.9496 3.0495,-5.9495 2.9371,-5.8755 2.9192,-5.8563 2.7711,-5.7261 2.826,-5.8946 2.8069,-5.9305 2.6778,-5.7643 2.6025,-5.689 2.5656,-5.7082 2.5284,-5.7261 2.3994,-5.615 2.3791,-5.6699 2.3063,-5.578 2.287,-5.652 2.1939,-5.597 2.1007,-5.4656 2.0457,-5.4477 1.8402,-5.0378 v -0.1434 -0.1195 l 0.1912,-0.6692 0.2032,-0.8125 0.3943,-1.5618 0.3585,-1.5438 0.4779,-2.3242 0.5378,-2.5834 0.3704,-1.9716 0.4779,-2.881 0.4661,-2.771 0.4421,-2.9372 0.5616,-3.8118 0.5019,-3.7007 0.466,-3.7736 0.4421,-3.8309 0.4302,-3.8298 0.466,-4.5729 0.4302,-4.4261 0.3704,-4.4618 0.4302,-4.8335 0.3704,-5.2434 0.3944,-5.2242 0.3226,-4.7594 0.3107,-5.1322 0.2987,-5.6699 0.2987,-5.5409 0.239,-5.3366 0.239,-5.9483 0.2031,-5.8205 0.2032,-5.9305 0.1673,-6.0236 0.1673,-6.4705 0.1672,-6.3212 0.1195,-5.7643 0.1195,-6.4885 0.1195,-6.5255 v -6.4335 -6.823 -6.4885 -6.6187 -7.0465 -6.7681 l -0.1195,-6.7513 v -7.1588 l -0.1195,-6.9533 -0.1195,-7.0836 -0.1194,-6.9533 -0.1673,-6.9353 -0.1434,-7.4564 -0.1434,-7.0465 -0.3943,-14.5195 -0.2032,-7.0657 -0.239,-7.3631 -0.239,-7.436 -0.2628,-7.2329 -0.239,-7.1947 -0.2988,-7.4181 -0.2987,-7.6416 -0.2748,-7.13969 -0.3107,-7.23291 -0.3346,-7.52924 -0.3107,-7.19586 -0.1673,-3.81063 c -62.0478,53.63553 -115.0548,119.84293 -154.8424,197.26123 -80.727,157.1617 -92.1803,331.65 -45.5327,488.6253 l 1.0635,-1.5617 z" />
      <path
         inkscape:connector-curvature="0"
         id="path4253"
         style="fill:#b3b3b3;fill-opacity:1;fill-rule:evenodd;stroke:none;stroke-width:1.15242684"
         d="m 2536.2379,1416.6299 c 0,0 -285.374,-8.8126 -590.548,126.1486 -320.2528,141.6551 -541.93,374.7475 -541.93,374.7475 l -0.2628,0.1911 c -48.3409,-50.3303 -87.7938,-107.5937 -117.5786,-169.1911 l 0.5616,-0.227 c 0,0 239.0777,-265.6099 580.8607,-447.4051 299.988,-159.56 581.1595,-170.6215 581.1595,-170.6215 50.6637,87.3457 80.7652,185.5139 87.7376,286.3587 z" />
      <path
         inkscape:connector-curvature="0"
         id="path4255"
         style="fill:#ffffff;fill-opacity:1;fill-rule:evenodd;stroke:none;stroke-width:1.15242684"
         d="m 1605.3205,1742.0507 c 86.9932,-126.6505 132.5809,-254.1015 132.5809,-254.1015 l 0.8006,-1.5809 0.7408,-1.5797 0.8962,-2.0266 0.8962,-2.0637 0.8962,-2.2679 1.0396,-2.6779 1.0396,-2.826 1.1113,-3.1976 1.0993,-3.1976 1.0396,-3.1977 1.1352,-3.7007 1.1352,-3.6815 1.0754,-3.8298 1.1949,-4.2575 1.1711,-4.2946 1.1352,-4.3878 1.1351,-4.5371 1.0994,-4.4989 1.1351,-4.8897 1.1711,-5.039 1.0754,-4.9458 1.1352,-5.2612 1.1352,-5.5027 1.1352,-5.4297 1.0634,-5.3354 1.0635,-5.615 1.0994,-5.8563 1.0635,-5.8755 1.0395,-5.8563 1.0396,-6.0989 1.0277,-6.1169 1.0157,-6.21 1.0037,-6.265 1.0037,-6.4706 1.0157,-6.5446 0.9321,-6.3582 0.944,-6.6008 0.9679,-6.6749 0.932,-6.7298 0.932,-6.8601 0.9082,-6.7681 0.8723,-6.8792 0.9081,-7.1026 0.8962,-6.9533 0.8365,-7.0095 0.8603,-7.1767 0.8604,-7.1385 0.8125,-7.1959 0.8365,-7.2137 0.7647,-7.1947 0.8006,-7.3811 0.7767,-7.2329 1.5236,-14.8183 0.7289,-7.3249 0.7289,-7.3811 0.7289,-7.4743 0.705,-7.4372 0.6931,-7.3619 0.6811,-7.4934 0.693,-7.6046 0.6572,-7.3619 0.6572,-7.4552 0.6334,-7.5113 0.6094,-7.344 0.6094,-7.4934 0.6094,-7.4743 0.5975,-7.399 0.5616,-7.4002 0.5735,-7.3811 0.5736,-7.5113 0.5377,-7.307 1.0635,-14.5578 0.5019,-7.2879 0.5258,-7.2878 0.4779,-7.1588 0.478,-7.1768 0.4899,-7.1385 0.466,-7.0465 0.4422,-7.0094 0.4301,-6.9354 0.4302,-7.04649 0.4421,-6.93417 0.4063,-6.73103 0.4063,-6.80512 0.3943,-6.67487 0.3704,-6.6928 0.3944,-6.71191 0.3704,-6.41438 0.3585,-6.34029 0.3585,-6.48846 0.3345,-6.30325 0.3107,-6.1718 0.3346,-6.13596 0.2987,-6.11684 0.3107,-6.02363 0.2987,-5.74522 0.2749,-5.87546 0.2987,-5.81931 0.2629,-5.4656 0.2629,-5.50384 0.2509,-5.53969 0.2629,-5.28039 0.227,-5.26246 0.2629,-5.00078 0.1912,-4.88964 0.227,-5.07606 0.2032,-4.79644 0.227,-4.55507 0.1912,-4.48098 0.1673,-4.44394 0.1912,-4.35074 0.1673,-4.20137 0.1673,-3.97911 v -0.48992 l -5.2625,0.56162 -3.7365,0.40627 -9.054,1.06349 -4.5921,0.57357 -8.7577,1.20807 -3.6624,0.56162 -9.4268,1.46976 -3.923,0.69306 -8.2175,1.44944 -6.3952,1.2272 -6.4885,1.28215 -6.173,1.30248 -7.1206,1.56177 -0.5257,0.11949 -3.1989,0.76475 -9.2583,2.19389 v 0 c -4.1488,1.02764 -8.2761,2.10069 -12.4045,3.21556 l -12.3257,3.44019 -6.657,1.98956 -5.6149,1.69202 -0.7409,0.23899 -5.1131,1.63705 -7.4922,2.41614 -5.3365,1.84139 -7.2138,2.50935 -6.5626,2.39941 -5.3544,1.97044 -6.4897,2.49143 -6.8792,2.7328 -5.0749,2.08276 -6.3594,2.65871 -6.7119,2.9001 -5.3174,2.34325 -6.9342,3.17971 -4.3316,2.0254 -8.4601,4.03527 -0.7767,0.37043 -1.4327,0.72891 -9.1651,4.5933 -4.444,2.34206 -6.2662,3.27291 -6.2471,3.42108 -6.0977,3.38284 -0.4302,0.22704 c -3.7628,2.10188 -7.4635,4.23961 -11.163,6.4335 l -4.8526,2.93832 -5.8754,3.53221 0.5735,9.81634 0.3705,7.32611 0.4062,7.51132 0.3944,7.399 0.3943,7.41811 0.3704,7.41931 0.3585,7.47428 0.3585,7.51132 0.3345,7.34284 0.3346,7.53044 0.3346,7.4922 0.2748,7.38227 0.2988,7.62242 0.2987,7.5293 0.2629,7.3822 0.2629,7.4731 0.239,7.5113 0.2389,7.4194 0.2032,7.3428 0.4063,14.8936 0.1433,7.2687 0.1434,7.4181 0.1554,7.2521 0.1195,7.2508 0.1195,7.2317 0.1195,7.2138 0.1195,7.2138 v 7.0465 7.0285 7.1576 6.9533 6.8052 6.9162 6.823 l -0.1195,6.7311 -0.1195,6.6748 -0.1195,6.4144 -0.1912,6.6187 -0.1554,6.5447 -0.1911,6.3402 -0.1912,6.2842 -0.239,6.2088 -0.239,6.173 -0.2629,5.9496 -0.3346,5.9686 -0.3106,5.9305 -0.3346,5.7261 -0.3585,5.4106 -0.4302,5.5409 -0.4063,5.5958 -0.4421,5.3545 -0.4302,5.0569 -0.5257,5.1323 -0.5019,5.0199 -0.4899,4.5921 -0.5616,4.6482 -0.5736,4.499 -0.5975,4.4068 -0.6333,4.3687 -0.5735,3.9421 -0.6573,3.8118 -0.6572,3.7927 -0.6333,3.2908 -0.6691,3.31 -0.6931,3.347 -0.693,2.9383 -0.6692,2.7699 -0.6094,2.3802 -0.5975,2.1569 -0.6333,2.1198 -0.5616,1.6729 -0.5736,1.655 -2.1568,5.9125 -2.3062,6.1539 -2.3791,6.1538 -2.4735,6.2842 -2.5285,6.2841 -2.5464,6.173 -2.6408,6.2841 -2.6958,6.265 -2.7698,6.3033 -2.8081,6.2471 -2.863,6.2662 -2.9372,6.3391 -3.0124,6.3594 -3.0112,6.3212 -3.1056,6.3391 -3.1236,6.2841 -3.1414,6.3032 -3.2538,6.3582 -3.2538,6.3403 -3.2908,6.2662 -3.3279,6.2651 -3.3661,6.2841 -3.402,6.2841 -3.4581,6.2841 -3.4581,6.2292 -3.4402,6.1539 -3.5502,6.21 -3.6075,6.3212 -3.4772,6.0607 -3.6063,6.1359 -3.6254,6.173 -3.5884,6.0607 -3.6816,6.0798 -3.6624,6.0798 -3.6625,6.0428 -3.6815,5.9674 -3.6625,5.9687 -3.6625,5.8372 -3.7186,5.9316 -3.7186,5.8934 -3.6445,5.7453 -3.6995,5.7631 -3.7378,5.8193 -3.6624,5.6711 -3.5884,5.5039 -3.6995,5.6329 -3.7556,5.7261 -3.5884,5.4297 -3.6063,5.4286 -3.6075,5.4285 -3.6063,5.3545 -3.6266,5.3736 -3.4952,5.1872 -3.5501,5.2433 -3.5334,5.1872 -3.476,5.094 -3.4211,5.039 -3.4402,4.9637 -3.4211,4.9829 -3.3458,4.8896 -3.31,4.7786 -3.2908,4.7414 -3.2155,4.6662 -3.2168,4.6292 -3.1056,4.481 -3.1236,4.4989 -3.1785,4.5933 -3.0124,4.3495 -2.9192,4.1835 -2.9383,4.2396 -2.8439,4.1093 -2.8261,4.0711 -1.2821,1.8785 1.171,2.4544 1.9525,3.9408 3.9421,7.9021 1.9704,3.7557 3.6816,7.0094 1.8784,3.4964 4.4989,8.1243 2.3421,4.1093 3.7186,6.4694 3.7939,6.3403 2.6396,4.3698 3.439,5.5588 3.96,6.2471 2.5476,3.923 4.4069,6.6928 3.0112,4.4439 4.1273,6.0236 3.1797,4.5001 4.7032,6.5626 2.2692,3.0674 5.3724,7.2138 2.9933,3.8859 4.8347,6.1909 2.8451,3.5884 5.2613,6.4896 3.4581,4.1452 5.0761,6.0237 2.305,2.6587 6.7119,7.6607 0.5616,0.6094 1.2654,1.3562 6.6737,7.3261 2.6779,2.826 7.2137,7.6046 c 11.3041,11.6386 23.0729,22.8864 35.3257,33.7447 22.8494,-26.6062 91.8088,-108.895 163.0169,-212.5479 z" />
      <path
         inkscape:connector-curvature="0"
         id="path4257"
         style="fill:#ffffff;fill-opacity:1;fill-rule:evenodd;stroke:none;stroke-width:1.15242684"
         d="m 2397.2044,1053.9117 -3.0495,-3.9038 -4.9637,-6.0989 -3.9982,-4.8527 -3.6804,-4.3316 -4.5921,-5.3365 -3.8119,-4.3508 -4.8717,-5.4656 -3.7736,-4.0902 -5.0199,-5.4106 -3.4581,-3.6625 -5.4106,-5.5958 -5.131,-5.1693 -3.0686,-3.04946 -5.9866,-5.8193 -4.2575,-4.05319 -5.3916,-5.0199 -3.3649,-3.12354 -5.8754,-5.24215 -4.7786,-4.23961 -5.2242,-4.46186 -3.9791,-3.40316 -6.3582,-5.22423 -4.3137,-3.51309 -5.0761,-4.01615 -5.3724,-4.20256 -3.9791,-3.01122 -6.8971,-5.20631 -3.8309,-2.78896 -6.3021,-4.53595 -7.1397,-4.98285 -3.6624,-2.49143 -10.7472,-7.15881 -7.8089,-5.00078 -4.2575,-2.69576 -10.9695,-6.65575 -5.3544,-3.10562 -6.9713,-4.03408 -11.5095,-6.35941 -12.1775,-6.4323 c -4.1094,-2.10188 -8.2175,-4.1464 -12.3269,-6.15388 l -11.9361,-5.69025 -0.4422,-0.21509 -3.3649,-1.5068 -9.1101,-4.09024 -11.7689,-5.03901 -6.8601,-2.76985 -6.0427,-2.41734 -0.4063,-0.16729 -3.0674,-1.15908 -9.0551,-3.439 -0.49,-0.19119 -4.9458,-1.76611 -6.7668,-2.39822 -6.9354,-2.32413 -5.6329,-1.87843 -6.3212,-1.98836 -6.731,-2.08276 -4.2014,-1.20808 -8.515,-2.4723 -5.6532,-1.52473 -6.6928,-1.76611 -5.6891,-1.45064 -7.2699,-1.7661 -5.2422,-1.19493 -7.9953,-1.78403 -4.1272,-0.83645 -8.0144,-1.63586 -6.0237,-1.13518 -7.1767,-1.28216 -5.1501,-0.8723 -7.2509,-1.17103 -5.9495,-0.86034 -7.4922,-1.03959 -4.7785,-0.60942 -7.6046,-0.90814 -6.0606,-0.65721 -6.7311,-0.66916 -6.4693,-0.56162 -6.0619,-0.48992 -5.9304,-0.39433 -8.1996,-0.50187 -4.2575,-0.20313 -4.8706,-0.17924 c 0,0 66.021,158.09143 42.0185,372.25603 -15.1529,135.1297 -58.2683,266.3173 -58.2683,266.3173 0,0 82.0665,-111.145 183.2829,-202.0803 160.5446,-144.2577 327.3172,-183.0236 327.3172,-183.0236 l -2.3241,-2.9371 z" />
      <path
         inkscape:connector-curvature="0"
         id="path4259"
         style="fill:#ffffff;fill-opacity:1;fill-rule:evenodd;stroke:none;stroke-width:1.15242684"
         d="m 1810.8028,1847.637 c 52.3187,-144.4812 129.3832,-255.7565 129.3832,-255.7565 l 0.8245,-1.5809 0.8604,-1.5248 1.1352,-1.8963 1.1591,-1.9143 1.3192,-2.0636 1.5617,-2.3982 1.7124,-2.4915 1.9334,-2.771 1.9704,-2.7711 1.9896,-2.6957 2.342,-3.0865 2.3433,-3.0483 2.4723,-3.1235 2.7698,-3.4402 2.8272,-3.439 2.8989,-3.4952 3.0124,-3.5704 3.0124,-3.4952 3.3279,-3.7736 3.402,-3.8859 3.4031,-3.7557 3.6063,-3.9791 3.8298,-4.1284 3.7556,-4.0903 3.7187,-3.96 3.9408,-4.1464 4.1273,-4.2945 4.1464,-4.2755 4.1835,-4.2587 4.3316,-4.3878 4.3878,-4.4057 4.4439,-4.4439 4.518,-4.481 4.6662,-4.573 4.7224,-4.6292 4.6291,-4.463 4.8156,-4.6292 4.8526,-4.6674 4.9458,-4.6662 5.0199,-4.7594 4.9828,-4.6662 5.0761,-4.7414 5.2422,-4.8718 5.1501,-4.7594 5.2063,-4.7594 5.3366,-4.8896 5.3174,-4.8526 5.3724,-4.8526 5.3545,-4.8717 5.4106,-4.8335 5.5218,-4.9267 5.4476,-4.8347 11.1559,-9.8904 5.5218,-4.8526 5.5779,-4.8897 5.6699,-4.9458 5.6341,-4.9088 5.5779,-4.8334 5.707,-4.9088 5.7823,-5.002 5.5779,-4.8143 5.7082,-4.8718 5.7261,-4.8896 5.6149,-4.7785 5.7452,-4.8526 5.7082,-4.8526 5.67,-4.7965 5.689,-4.7594 5.6711,-4.7606 5.7632,-4.8335 5.615,-4.7032 11.2299,-9.3527 5.6341,-4.6483 5.6138,-4.6662 5.5408,-4.555 5.56,-4.5742 5.5218,-4.536 5.4656,-4.5001 5.4298,-4.4427 5.3724,-4.3878 5.4847,-4.4439 5.3915,-4.4069 5.2254,-4.2576 5.2983,-4.2754 5.1872,-4.2205 5.2434,-4.2026 5.2242,-4.2205 4.9828,-4.034 4.9638,-3.9792 5.076,-4.0531 4.9088,-3.96 4.8335,-3.8489 4.7964,-3.8489 4.8156,-3.7927 4.7044,-3.7736 4.4989,-3.5883 4.6113,-3.6446 4.5729,-3.6254 4.2958,-3.4019 4.3125,-3.4032 4.3507,-3.4199 4.1465,-3.2908 4.1452,-3.2538 3.9229,-3.1235 3.868,-3.0125 3.997,-3.1223 3.7748,-2.9754 3.5884,-2.8069 3.5322,-2.7698 3.5143,-2.734 3.4211,-2.6766 3.3099,-2.5847 3.1415,-2.4544 0.3704,-0.2748 2.6217,4.5921 1.8402,3.2729 4.426,7.9762 2.1747,4.0711 4.1464,7.828 1.6729,3.2908 4.2767,8.5342 1.7482,3.5884 3.5883,7.5113 2.734,5.9125 2.7328,6.0236 2.5285,5.7823 2.9001,6.7119 0.2031,0.478 1.2452,3.0315 3.5883,8.8126 v 0 c 1.5821,3.96 3.1045,7.9391 4.6113,11.9361 l 4.3877,12.0485 2.2501,6.5625 1.8963,5.5409 0.251,0.7648 1.6358,5.1119 2.3983,7.4934 1.6179,5.4106 2.1748,7.3249 1.8593,6.7299 1.5056,5.4847 1.7493,6.731 1.7841,7.1947 1.2821,5.3365 1.5248,6.7299 1.5617,7.1217 1.195,5.6891 1.4494,7.4922 0.8962,4.7044 1.6371,9.2213 0.1434,0.8603 0.2509,1.6001 1.6179,10.1138 0.6811,4.9829 0.9679,7.0094 0.8723,7.0645 0.7767,6.8983 0.1195,0.5018 c 0.466,4.2588 0.8723,8.5163 1.2642,12.7918 l 0.4302,5.652 0.5616,6.8242 -8.3298,5.2613 -6.173,3.96 -6.3403,4.0352 -6.228,4.015 -6.265,3.9982 -6.2471,4.0162 -6.2841,4.0711 -6.3224,4.0723 -6.1538,4.015 -6.3212,4.1093 -6.2841,4.0903 -6.1539,4.0723 -6.3965,4.2014 -6.2841,4.1464 -6.1539,4.0711 -6.21,4.1464 -6.2471,4.1834 -6.1718,4.1273 -6.0989,4.0903 -12.3448,8.3668 -6.0058,4.1094 -6.1168,4.1823 -5.9866,4.0914 -5.9495,4.1273 -5.9496,4.1273 -5.9125,4.1284 -5.9125,4.1452 -5.7631,4.0532 -5.7261,4.0724 -5.8385,4.1643 -5.634,4.0341 -5.5218,3.997 -5.615,4.0532 -5.5026,4.0162 -5.4298,3.997 -5.3724,3.9612 -5.1322,3.8297 -5.2792,3.9971 -5.2254,3.942 -5.0569,3.8489 -4.9829,3.8297 -4.9076,3.7927 -4.8717,3.8119 -4.7032,3.6636 -4.6483,3.7366 -4.6483,3.7186 -4.4439,3.6063 -4.2014,3.4402 -4.2575,3.5692 -4.3137,3.5884 -4.0723,3.4772 -3.8859,3.31 -3.8668,3.4019 -3.7748,3.3279 -3.4581,3.0686 -3.4581,3.1606 -3.31,3.0853 -3.2526,3.0494 -3.1797,3.0495 -2.863,2.771 -2.7149,2.752 -2.7149,2.7519 -2.305,2.4173 -2.305,2.4723 -2.3062,2.5106 -2.0075,2.2679 -1.8593,2.1569 -1.5618,1.8784 -1.4124,1.7482 -1.3574,1.7482 -1.0396,1.4124 -1.0038,1.4506 -3.5513,5.2051 -3.6625,5.4477 -3.6254,5.5218 -3.6624,5.652 -3.6278,5.7273 -3.5514,5.6699 -3.5692,5.8193 -3.5143,5.8384 -3.4952,5.9125 -3.4581,5.9126 -3.439,5.9674 -3.4402,6.0989 -3.4019,6.1539 -3.3841,6.1169 -3.3649,6.21 -3.2717,6.1909 -3.2909,6.2471 -3.2729,6.3403 -3.2717,6.3391 -3.1797,6.3224 -3.1606,6.3582 -3.1414,6.3952 -3.1236,6.4144 -3.1044,6.4706 -3.0495,6.4323 -2.9933,6.3964 -2.9753,6.4885 -3.0495,6.6187 -2.8989,6.3773 -2.9013,6.4885 -2.9001,6.5267 -2.8248,6.4693 -2.8069,6.5267 -2.808,6.5255 -2.7711,6.4885 -2.7149,6.4705 -2.7148,6.4514 -2.6396,6.3774 -2.6396,6.4705 -2.6217,6.4514 -2.5476,6.3212 -2.5285,6.3582 -2.5655,6.4335 -2.4735,6.2841 -2.3791,6.0978 -2.4173,6.3032 -2.4735,6.3953 -2.3241,6.0618 -2.3242,6.1169 -2.305,6.0798 -2.268,6.0607 -2.25,6.0606 -2.176,5.8755 -2.1939,5.9316 -2.1568,5.8934 -2.1198,5.7823 -2.1007,5.7261 -2.0457,5.6711 -2.0637,5.689 -2.0266,5.578 -1.9525,5.4656 -1.9334,5.4477 -1.9154,5.3174 -1.8964,5.3174 -1.8223,5.131 -1.8581,5.1502 -1.8593,5.2804 -1.784,4.9637 -1.7112,4.8156 -1.729,4.8526 -1.692,4.7223 -1.6741,4.6674 -0.7648,2.1198 -2.6957,0.478 -4.3329,0.7289 -8.7193,1.3742 -4.2014,0.5974 -7.8459,1.0994 -3.9421,0.5018 -9.2212,1.0635 -4.7045,0.5019 -7.4181,0.7408 -7.3631,0.5975 -5.094,0.4063 -6.5076,0.4302 -7.399,0.4301 -4.6674,0.2032 -7.9941,0.3346 -5.3915,0.1194 -7.289,0.1434 h -5.5218 -8.0502 -3.8298 l -8.999,-0.1673 -4.8896,-0.1672 -7.8651,-0.3346 -4.555,-0.2271 -8.3299,-0.5018 -5.4094,-0.3944 -7.8459,-0.6333 -3.4964,-0.2987 -10.1509,-1.0276 -0.8245,-0.1195 -1.8402,-0.2271 -9.8354,-1.171 -3.868,-0.5258 -10.3744,-1.4315 c -16.0443,-2.4173 -32.0528,-5.4477 -48.0051,-9.0922 8.3299,-34.0614 35.0652,-138.0286 77.8652,-256.2763 z" />
    </g>
    <g
       id="g4536"
       transform="matrix(0.5517099,0,0,0.5517099,4918.9395,-1626.2365)"
       inkscape:export-filename="C:\Users\William\hg01.png"
       inkscape:export-xdpi="90"
       inkscape:export-ydpi="90">
      <path
         inkscape:export-ydpi="90"
         inkscape:export-xdpi="90"
         inkscape:export-filename="C:\Users\William\text4685.png"
         d="m 6627.5737,168.49522 c -4.9439,-2.52818 -9.8915,-4.99055 -14.8317,-7.40611 l -14.3647,-6.84574 -0.5444,-0.38901 -4.0492,-1.82811 -10.9614,-4.9245 -14.1626,-6.06014 -8.2539,-3.34516 -7.27,-2.91745 -0.5056,-0.38901 -3.6953,-1.40012 -10.8952,-4.13889 -0.5834,-0.38876 -5.9514,-2.13941 -8.145,-2.87848 -8.3434,-2.8005 -6.7761,-2.2561 -7.6083,-2.37277 -8.1021,-2.48946 -5.0529,-1.43911 -10.2456,-2.95616 -6.7992,-1.82837 -8.0557,-2.13918 -6.846,-1.75041 -8.7481,-2.13942 -6.3089,-1.439102 -9.6195,-2.139428 -4.9671,-1.01137 -9.6429,-1.983767 -7.2463,-1.3614 -8.6392,-1.517061 -6.1925,-1.050101 -8.7285,-1.400385 -7.1571,-1.01137 -9.0165,-1.244723 -5.7489,-0.739044 -9.1486,-1.089074 -7.2973,-0.778017 -8.0983,-0.816736 -7.7835,-0.700071 -7.2932,-0.583636 -7.1376,-0.466707 -9.8645,-0.622367 -5.1228,-0.389015 -5.8617,-0.389002 -0.389,7.853579 c -7.4411,184.859737 -33.3936,721.017097 -106.816,863.906607 -123.2466,239.84514 -367.592,470.09424 -417.7268,540.45574 40.3366,32.0787 84.4111,60.672 131.9709,85.1231 47.7193,24.4974 96.7572,43.7166 146.4681,57.8324 33.9848,-91.1171 122.5968,-512.0838 195.7082,-654.4132 82.2135,-159.98089 494.7746,-481.59614 639.1344,-590.90563 l 6.4221,-4.85034 -2.8005,-3.5398 -3.6565,-4.69873 -5.9747,-7.34005 -4.8077,-5.83842 -4.4305,-5.21227 -5.5271,-6.41801 -4.5861,-5.23961 -5.8617,-6.57367 -4.5395,-4.92423 -6.0406,-6.50761 -4.162,-4.41097 -6.5076,-6.73312 -6.177,-6.21958 -3.6953,-3.65648 -7.2037,-7.00141 -5.1228,-4.87792 -6.4882,-6.04065 -4.049,-3.77316 -7.0677,-6.30893 -5.7529,-5.09963 -6.2821,-5.36767 -4.7922,-4.09586 -7.647,-6.28589 -5.1927,-4.22824 -6.1071,-4.83109 -6.4647,-5.06041 -4.7884,-3.6175 -8.3006,-6.26642 -4.6093,-3.34517 -7.581,-5.45726 -8.5926,-5.99787 -4.4069,-2.99515 -12.9297,-8.61185 -9.3975,-6.01762 -5.1228,-3.22849 -13.1978,-8.00873 -6.4453,-3.73419 -8.3902,-4.85842 -13.8474,-7.65111 -14.6527,-7.74044 z"
         style="fill:#004e75;fill-opacity:1;fill-rule:evenodd;stroke:none;stroke-width:2.53096271"
         id="path16"
         inkscape:connector-curvature="0" />
      <path
         inkscape:export-ydpi="90"
         inkscape:export-xdpi="90"
         inkscape:export-filename="C:\Users\William\text4685.png"
         d="m 6050.29,1290.7934 -279.2208,202.7527 c 40.3365,32.0824 84.4111,60.676 131.971,85.1268 47.7192,24.4975 96.7571,43.7128 146.4681,57.8326 l 0.778,-345.7121 z"
         style="fill:#00adef;fill-opacity:1;fill-rule:evenodd;stroke:none;stroke-width:2.53096271"
         id="path18"
         inkscape:connector-curvature="0" />
      <path
         inkscape:export-ydpi="90"
         inkscape:export-xdpi="90"
         inkscape:export-filename="C:\Users\William\text4685.png"
         d="m 5848.432,199.2087 c 0,0 208.5952,272.95851 290.3845,666.05142 85.8427,412.55698 13.1319,792.72058 13.1319,792.72058 v 0.389 c 83.112,12.0154 166.7608,10.4946 247.9007,-3.5396 v -0.7002 c 0,0 92.3267,-419.9827 30.6745,-881.71409 C 6376.4018,367.17908 6190.2234,84.356399 6190.2234,84.356399 6069.2603,96.014013 5952.1441,135.34315 5848.6072,199.2125 Z"
         style="fill:#006e9e;fill-opacity:1;fill-rule:evenodd;stroke:none;stroke-width:2.53096271"
         id="path20"
         inkscape:connector-curvature="0" />
      <path
         inkscape:export-ydpi="90"
         inkscape:export-xdpi="90"
         inkscape:export-filename="C:\Users\William\text4685.png"
         d="m 5746.5287,273.95385 c 0,0 148.1446,432.20034 509.583,617.52679 361.2126,185.19426 798.8936,53.4256 798.8936,53.4256 L 6522.9397,1623.261 c 0,0 -82.6878,-399.2233 -363.4298,-543.7893 -281.2358,-144.81482 -654.0787,19.799 -654.0787,19.799 z"
         style="fill:#007eb2;fill-opacity:1;fill-rule:evenodd;stroke:none;stroke-width:2.53096271"
         id="path22"
         inkscape:connector-curvature="0" />
      <path
         inkscape:export-ydpi="90"
         inkscape:export-xdpi="90"
         inkscape:export-filename="C:\Users\William\text4685.png"
         d="m 7049.9953,948.12714 -7.2506,4.74147 -7.6042,4.9438 -7.3168,4.76498 -7.1608,4.72205 -7.6939,5.07608 -7.4489,4.90124 -7.2272,4.78825 -7.2466,4.83093 -7.4293,4.9672 -7.3829,4.92451 -7.048,4.76485 -14.4971,9.7751 -6.9783,4.8075 -7.4254,5.0801 -6.8926,4.6988 -6.8654,4.7648 -7.0055,4.8546 -6.8652,4.8114 -7.025,4.9207 -6.6708,4.6755 -6.6205,4.7182 -6.9121,4.9477 -6.4646,4.6054 -6.3324,4.5861 -6.6438,4.8115 -6.2624,4.5627 -6.3327,4.656 -6.2856,4.6521 -5.5701,4.1154 -6.0643,4.6093 -6.1963,4.6987 -5.7723,4.384 -5.6595,4.3407 -5.5507,4.2944 -5.6597,4.3835 -5.0567,3.9833 -5.2122,4.1854 -5.3444,4.2709 -4.7884,3.8936 -4.4303,3.6175 -4.8312,4.0725 -4.8543,4.026 -4.4497,3.8119 -4.0958,3.5008 -4.0493,3.5396 -4.1387,3.6562 -3.4618,3.0731 -3.4619,3.1506 -3.3452,3.1118 -3.2674,3.0728 -3.3452,3.1898 -2.5672,2.4892 -2.3727,2.4118 -2.4505,2.4894 -1.6727,1.7504 -2.1781,2.3338 -1.9061,2.1004 -1.2448,1.4005 -1.2837,1.478 -0.661,0.7777 -0.5447,0.6614 v 0 0 l -3.6562,5.3251 -3.8937,5.8152 -3.8899,5.8853 -3.9363,6.0834 -3.9169,6.173 -3.8509,6.1768 -3.8899,6.3092 -3.8118,6.2859 -3.8509,6.4648 -3.7729,6.5114 -3.7341,6.5307 -3.7732,6.6671 -3.8119,6.912 -3.7732,6.8693 -3.6562,6.7332 -3.6566,6.9588 -3.6951,7.0014 -3.6952,7.1378 -3.6562,7.1376 -3.5009,6.9781 -3.5785,7.1573 -3.6175,7.3398 -3.5008,7.2467 -3.5008,7.2969 -3.5007,7.3363 -3.3064,7.0442 -3.4228,7.519 -3.5786,7.7637 -3.2285,7.1146 -3.2675,7.3825 -3.3839,7.585 -3.1897,7.2467 -6.5347,15.1893 -3.1895,7.4061 -3.1508,7.4488 -3.1118,7.449 -2.9562,7.1843 -3.0729,7.5616 -3.1117,7.6277 -2.9172,7.2505 -2.9175,7.3128 -2.9952,7.5618 -2.8782,7.2931 -2.7228,6.9353 -2.8397,7.3829 -2.9172,7.6275 -2.7227,7.0482 -2.7229,7.2235 -2.6452,6.9819 -2.606,6.9588 -2.6838,7.27 -2.5673,6.912 -2.5283,6.8693 -2.4895,6.9353 -2.6062,7.0715 -2.4114,6.597 -2.4118,6.6438 -2.5281,7.0482 -2.3342,6.4414 -2.2557,6.2663 -1.1281,3.1896 c 186.8045,-64.1844 350.0491,-197.8358 447.4598,-387.4099 48.0538,-93.5834 75.7253,-192.2426 84.6057,-290.94859 l -5.01,3.2285 z"
         style="fill:#00adef;fill-opacity:1;fill-rule:evenodd;stroke:none;stroke-width:2.53096271"
         id="path24"
         inkscape:connector-curvature="0" />
      <path
         inkscape:export-ydpi="90"
         inkscape:export-xdpi="90"
         inkscape:export-filename="C:\Users\William\text4685.png"
         d="m 5506.703,1097.3917 3.8121,-5.4844 3.8937,-5.6597 4.228,-6.1731 3.9832,-5.8188 3.9791,-5.7919 4.232,-6.2428 4.1582,-6.0605 4.1153,-6.0875 4.1192,-6.1261 4.3371,-6.4222 4.1388,-6.1767 4.1425,-6.1963 4.271,-6.4183 4.1619,-6.3325 4.4732,-6.8225 4.3644,-6.62423 4.0453,-6.21957 4.2747,-6.60099 4.3839,-6.82249 4.2513,-6.64379 4.1855,-6.60074 4.3838,-6.97841 4.3604,-6.91582 4.1191,-6.57361 4.2282,-6.86928 4.2515,-6.88881 4.1582,-6.89256 8.569,-14.13926 4.0298,-6.82249 4.2047,-7.15723 4.0726,-6.95863 3.9131,-6.77993 4.2283,-7.42541 4.0958,-7.18063 3.8119,-6.77964 3.9169,-7.11428 3.8898,-7.09099 3.8509,-7.07177 3.8896,-7.20362 3.7341,-7.06772 3.6175,-6.91205 3.6563,-7.16111 3.6565,-7.16086 3.5395,-7.06771 3.5009,-7.04418 3.3451,-6.89281 3.3842,-7.091 3.3839,-7.13758 3.2285,-6.93533 3.1507,-6.84601 3.0728,-6.86928 3.0342,-6.88878 2.8782,-6.7564 2.8785,-6.82272 2.7618,-6.71363 2.7618,-6.79918 2.6448,-6.73311 2.5285,-6.57747 2.4505,-6.55824 2.217,-6.06014 v 0 0 l 0.389,-0.81699 0.389,-0.97239 0.4668,-1.86709 0.428,-1.86709 0.5834,-2.80052 0.6614,-3.11181 0.4277,-2.37279 0.5836,-3.46184 0.5444,-3.34518 0.5447,-3.53955 0.661,-4.5861 0.6224,-4.45374 0.5836,-4.53928 0.5444,-4.60939 0.5058,-4.60939 0.5446,-5.50003 0.5056,-5.32894 0.4279,-5.36792 0.5056,-5.81514 0.428,-6.30918 0.4667,-6.28565 0.389,-5.72959 0.389,-6.17302 0.389,-6.82272 0.3888,-6.66681 0.389,-6.42206 0.389,-7.15705 0.389,-7.00546 0.389,-7.13377 0.389,-7.25045 0.389,-7.78347 0.3887,-7.60428 v -6.93939 -7.80296 -7.85711 -7.7407 -8.20716 -7.81081 -7.96215 -8.47973 -8.1411 -8.12565 -8.61186 -8.3709 -8.52226 -8.36686 l -0.3887,-8.34737 v -8.96972 -8.47975 l -0.4669,-17.4687 -0.389,-8.50301 -0.3888,-8.86091 -0.389,-8.94619 -0.389,-8.70525 -0.389,-8.65867 -0.389,-8.92292 -0.389,-9.19549 -0.389,-8.59236 -0.3888,-8.70146 -0.428,-9.05906 -0.389,-8.65868 -0.389,-4.58585 c -74.6634,64.53853 -138.4434,144.20412 -186.3221,237.3595 -97.1346,189.10745 -110.916,399.06748 -54.787,587.95321 l 1.2835,-1.867 z"
         style="fill:#00adef;fill-opacity:1;fill-rule:evenodd;stroke:none;stroke-width:2.53096271"
         id="path26"
         inkscape:connector-curvature="0" />
      <path
         inkscape:export-ydpi="90"
         inkscape:export-xdpi="90"
         inkscape:export-filename="C:\Users\William\text4685.png"
         d="m 7055.2738,819.24445 c 0,0 -343.3823,-10.60728 -710.5928,151.78922 -385.3526,170.45223 -652.0912,450.92563 -652.0912,450.92563 l -0.389,0.389 c -58.1671,-60.5631 -105.6375,-129.4661 -141.4813,-203.5851 l 0.6611,-0.389 c 0,0 287.6773,-319.60007 698.9392,-538.35119 360.9678,-191.99755 699.2931,-205.30814 699.2931,-205.30814 60.9639,105.10455 97.1811,223.22433 105.5713,344.57235 z"
         style="fill:#008dc6;fill-opacity:1;fill-rule:evenodd;stroke:none;stroke-width:2.53096271"
         id="path28"
         inkscape:connector-curvature="0" />
      <path
         inkscape:export-ydpi="90"
         inkscape:export-xdpi="90"
         inkscape:export-filename="C:\Users\William\text4685.png"
         d="m 5935.1226,1210.8165 c 104.6769,-152.3961 159.5337,-305.75671 159.5337,-305.75671 l 0.9337,-1.90583 0.8947,-1.90606 1.089,-2.4505 1.0891,-2.48944 1.0891,-2.72278 1.2447,-3.2285 1.2447,-3.38418 1.3614,-3.85083 1.3227,-3.85083 1.2444,-3.85096 1.3618,-4.45375 1.3614,-4.42638 1.2833,-4.60935 1.4394,-5.12268 1.4001,-5.16948 1.3614,-5.27833 1.3615,-5.45751 1.3227,-5.41829 1.3614,-5.88119 1.4001,-6.06419 1.2837,-5.95131 1.3614,-6.32868 1.3614,-6.62402 1.3614,-6.5309 1.2837,-6.42207 1.2835,-6.7564 1.3227,-7.04443 1.2834,-7.07151 1.2448,-7.04417 1.2446,-7.34005 1.2448,-7.35928 1.2057,-7.47216 1.2061,-7.54226 1.2057,-7.78348 1.2057,-7.87661 1.1281,-7.6511 1.128,-7.93912 1.167,-8.03226 1.1279,-8.09833 1.128,-8.25802 1.0894,-8.14109 1.05,-8.27752 1.0891,-8.54555 1.0894,-8.36685 1.0111,-8.43316 1.0113,-8.63894 1.0115,-8.58857 0.9723,-8.65868 1.0114,-8.6817 0.8947,-8.65463 0.9724,-8.88419 0.9334,-8.70145 1.8283,-17.83063 0.8945,-8.81408 0.8947,-8.88013 0.8946,-8.99327 0.8558,-8.95024 0.8167,-8.86091 0.8171,-9.0125 0.8167,-9.15247 0.778,-8.8609 0.778,-8.96972 0.7391,-9.03579 0.739,-8.83737 0.7391,-9.01655 0.739,-8.99302 0.7,-8.90367 0.6614,-8.90748 0.6613,-8.88013 0.7001,-9.03604 0.6613,-8.79459 1.2835,-17.51552 0.6223,-8.77131 0.6225,-8.76751 0.5834,-8.61185 0.5836,-8.63514 0.5834,-8.59262 0.5834,-8.47948 0.5446,-8.43292 0.5056,-8.34357 0.5058,-8.47974 0.5444,-8.34736 0.5056,-8.09453 0.5057,-8.19171 0.4667,-8.03227 0.4281,-8.05175 0.4666,-8.07504 0.4668,-7.7174 0.4279,-7.62782 0.428,-7.81055 0.3888,-7.58505 0.389,-7.42534 0.389,-7.38281 0.389,-7.36333 0.389,-7.2464 0.389,-6.91205 0.3891,-7.07152 0.3886,-7.00165 0.3892,-6.57747 0.389,-6.62049 0.389,-6.66681 0.389,-6.35195 0.389,-6.33248 0.389,-6.01761 0.3887,-5.88499 0.389,-6.10697 0.389,-5.77236 0.389,-5.4808 0.389,-5.39095 0.389,-5.348434 0.389,-5.235543 0.389,-5.056873 0.3888,-4.784271 v -0.583395 l -6.3324,0.661087 -4.4966,0.505691 -10.895,1.283708 -5.5235,0.66134 -10.5372,1.439104 -4.4072,0.66134 -11.3425,1.789133 -4.722,0.817002 -9.8839,1.750414 -7.6977,1.478076 -7.8108,1.55578 -7.4254,1.555793 -8.569,1.867088 h -0.6223 l -3.851,0.93367 -11.1402,2.64511 v 0 c -4.9943,1.24448 -9.9617,2.52817 -14.929,3.88958 l -14.8314,4.13484 -8.0089,2.4115 -6.7564,2.02274 -0.8947,0.38901 -6.1535,1.98377 -9.0167,2.91719 -6.4179,2.21738 -8.682,3.03386 -7.8961,2.87846 -6.4454,2.37279 -7.8064,2.99513 -8.2776,3.3062 -6.107,2.48946 -7.651,3.18951 -8.0751,3.50083 -6.3985,2.80051 -8.3473,3.81188 -5.2085,2.45074 -10.1793,4.85818 -0.9337,0.4667 -1.7114,0.89471 -11.0274,5.52736 -5.3484,2.80051 -7.5383,3.93641 -7.519,4.1194 -7.3359,4.06852 -0.5058,0.389 c -4.5275,2.52843 -8.9813,5.10343 -13.435,7.7407 l -5.8347,3.53955 -7.0715,4.25151 0.6614,11.81302 0.4667,8.81433 0.5057,9.03579 0.4667,8.90747 0.4667,8.92696 0.4667,8.92315 0.4279,8.99303 0.4278,9.03958 0.428,8.83762 0.428,9.05907 0.4277,9.01655 0.389,8.88014 0.389,9.17221 0.389,9.06287 0.389,8.88039 0.3888,8.99302 0.389,9.03984 0.3891,8.92695 0.389,8.83736 0.5056,17.91997 v 8.74424 8.92695 l 0.389,8.72473 v 8.72474 8.70119 8.68197 8.68196 8.47568 8.46026 8.61184 8.36662 8.18791 8.32408 8.20741 8.09832 8.03252 7.71716 l -0.389,7.9662 -0.389,7.87281 -0.389,7.63161 -0.389,7.56176 -0.389,7.47216 -0.3888,7.42534 -0.389,7.16111 -0.4279,7.18059 -0.389,7.13757 -0.389,6.88878 -0.4279,6.50734 -0.5056,6.67112 -0.5057,6.73313 -0.5447,6.44129 -0.5053,6.08368 -0.6225,6.17681 -0.6223,6.04065 -0.5836,5.52736 -0.6611,5.58964 -0.6614,5.41449 -0.7001,5.30566 -0.7389,5.25503 -0.6614,4.74151 -0.778,4.5899 -0.778,4.56257 -0.7391,3.95993 -0.8167,3.98299 -0.8168,4.026 -0.817,3.53955 -0.8167,3.34518 -0.7391,2.87846 -0.7003,2.60613 -0.7391,2.56715 -0.661,2.02275 -0.6614,1.98377 -2.6061,7.11428 -2.7618,7.40611 -2.8782,7.40609 -2.9564,7.56152 -3.0338,7.56175 -3.0729,7.42939 -3.1895,7.5615 -3.2285,7.53442 -3.3452,7.58884 -3.3841,7.51518 -3.4231,7.53823 -3.5396,7.63161 -3.6175,7.6473 -3.6175,7.60833 -3.7339,7.62781 -3.7732,7.5615 -3.7732,7.58506 -3.9169,7.65109 -3.9132,7.62777 -3.9634,7.53828 -4.0024,7.54226 -4.0493,7.56179 -4.0959,7.56143 -4.1581,7.56179 -4.1622,7.49161 -4.1386,7.40612 -4.2748,7.47219 -4.3371,7.60834 -4.1854,7.29325 -4.3409,7.38248 -4.3603,7.42566 -4.3217,7.29325 -4.4264,7.31664 -4.4071,7.31653 -4.4072,7.26997 -4.4302,7.18039 -4.4071,7.18054 -4.4072,7.0247 -4.4733,7.1378 -4.4729,7.091 -4.3877,6.9121 -4.4499,6.9354 -4.4965,7.0054 -4.4072,6.8225 -4.3214,6.6242 -4.4499,6.7759 -4.5198,6.8888 -4.3175,6.5346 -4.3411,6.531 -4.3409,6.5309 -4.337,6.4453 -4.3644,6.4648 -4.2048,6.2429 -4.2709,6.3093 -4.2516,6.239 -4.1852,6.1302 -4.1153,6.0643 -4.1389,5.9745 -4.1191,5.9941 -4.0258,5.8852 -3.9791,5.7451 -3.9639,5.7101 -3.8897,5.6129 -3.8509,5.5701 -3.734,5.3913 -3.7731,5.4144 -3.8119,5.5273 -3.6175,5.2318 -3.5008,5.0371 -3.5396,5.0995 -3.4231,4.9439 -3.3839,4.901 -1.517,2.2561 1.4003,2.9562 2.3338,4.7414 4.7453,9.5066 2.3729,4.5201 4.4266,8.4328 2.2561,4.2088 5.4144,9.7787 2.8006,4.9439 4.477,7.7832 4.5628,7.632 3.1895,5.255 4.1387,6.6903 4.765,7.5149 3.0728,4.7221 5.3017,8.0517 3.6175,5.3485 4.9635,7.2504 3.8118,5.4107 5.6595,7.9001 2.7228,3.6952 6.4648,8.6818 3.6175,4.6756 5.8152,7.4487 3.4229,4.3177 6.3324,7.8066 4.1619,4.9905 6.107,7.2467 2.7618,3.1895 8.075,9.2188 0.6614,0.739 1.5171,1.6338 8.0322,8.814 3.2285,3.3842 8.6817,9.1487 c 13.6023,14.0068 27.7611,27.5391 42.5032,40.6049 27.4966,-32.0126 110.4724,-131.0296 196.1557,-255.7542 z"
         style="fill:#00adef;fill-opacity:1;fill-rule:evenodd;stroke:none;stroke-width:2.53096271"
         id="path34"
         inkscape:connector-curvature="0" />
      <path
         inkscape:export-ydpi="90"
         inkscape:export-xdpi="90"
         inkscape:export-filename="C:\Users\William\text4685.png"
         d="m 6887.9762,382.79258 -3.6565,-4.69873 -5.9784,-7.33599 -4.8078,-5.83868 -4.4305,-5.21606 -5.5233,-6.41802 -4.5899,-5.23554 -5.8579,-6.57772 -4.5434,-4.92045 -6.0406,-6.51141 -4.1622,-4.40716 -6.5073,-6.73313 -6.1771,-6.21958 -3.6952,-3.65648 -7.2036,-7.0014 -5.1229,-4.87768 -6.4841,-6.04089 -4.0533,-3.7729 -7.0675,-6.3092 -5.7491,-5.09938 -6.2859,-5.36792 -4.7884,-4.09586 -7.651,-6.28209 -5.1928,-4.23203 -6.103,-4.83085 -6.4685,-5.05686 -4.7843,-3.61725 -8.3046,-6.26261 -4.6056,-3.34518 -7.585,-5.45726 -8.5925,-5.99787 -4.4068,-2.99515 -12.9297,-8.60806 -9.3937,-6.02141 -5.1267,-3.22849 -13.1977,-8.00899 -6.4415,-3.73392 -8.3902,-4.85438 -13.8474,-7.65111 -14.6527,-7.7407 c -4.9437,-2.52843 -9.8915,-4.99054 -14.8315,-7.40609 l -14.3647,-6.84601 -0.5447,-0.38875 -4.0493,-1.82837 -10.9613,-4.92424 -14.1625,-6.0604 -8.2539,-3.34516 -7.27,-2.9172 -0.5058,-0.389 -3.6951,-1.40038 -10.8951,-4.13863 -0.5836,-0.38902 -5.9552,-2.13916 -8.141,-2.87846 -8.3436,-2.80077 -6.7759,-2.25584 -7.6083,-2.41175 -8.1024,-2.48946 -5.0528,-1.43911 -10.2455,-2.95616 -6.8031,-1.82837 -8.0517,-2.13918 -6.846,-1.75041 -8.748,-2.13942 -6.3092,-1.439102 -9.6194,-2.139428 -4.9671,-1.01137 -9.6427,-1.983767 -7.2466,-1.3614 -8.6392,-1.555792 -6.1923,-1.050343 -8.7288,-1.400384 -7.157,-1.011117 -9.0162,-1.244735 -5.7492,-0.739032 -9.1524,-1.089327 -7.2935,-0.777764 -8.0983,-0.817001 -7.7835,-0.661087 -7.2933,-0.583636 -7.1374,-0.466707 -9.8645,-0.622367 -5.1227,-0.389015 -5.862,-0.389002 c 0,0 79.4401,190.223856 50.5588,447.926736 -18.2311,162.59486 -70.1125,320.44821 -70.1125,320.44821 0,0 98.7489,-133.73707 220.5405,-243.1554 193.1798,-173.58329 393.8552,-220.22893 393.8552,-220.22893 l -2.8004,-3.53981 z"
         style="fill:#00adef;fill-opacity:1;fill-rule:evenodd;stroke:none;stroke-width:2.53096271"
         id="path36"
         inkscape:connector-curvature="0" />
      <path
         inkscape:export-ydpi="90"
         inkscape:export-xdpi="90"
         inkscape:export-filename="C:\Users\William\text4685.png"
         d="m 6182.3739,1337.8632 c 62.9554,-173.8518 155.6865,-307.7445 155.6865,-307.7445 l 0.9727,-1.9058 1.0112,-1.8282 1.3614,-2.295 1.4003,-2.2948 1.5949,-2.4895 1.8669,-2.8784 2.0618,-2.9952 2.3338,-3.3452 2.3728,-3.3451 2.3725,-3.2285 2.8397,-3.69521 2.8006,-3.65657 2.9951,-3.77282 3.3451,-4.13867 3.4229,-4.13866 3.5009,-4.20487 3.6175,-4.29808 3.6172,-4.20499 4.0065,-4.53924 4.0921,-4.67924 4.0959,-4.5161 4.337,-4.78825 4.6094,-4.96731 4.5199,-4.92041 4.4731,-4.76884 4.7415,-4.98673 4.9673,-5.16929 4.9867,-5.14614 5.0372,-5.11889 5.2122,-5.2824 5.2784,-5.30158 5.3484,-5.34462 5.4339,-5.39503 5.6168,-5.50379 5.683,-5.57023 5.5701,-5.3679 5.7916,-5.57397 5.8425,-5.61292 5.9476,-5.61292 6.0406,-5.72954 5.9981,-5.61671 6.1067,-5.70252 6.3092,-5.86171 6.1963,-5.72959 6.2626,-5.72579 6.4218,-5.88501 6.3989,-5.83867 6.4644,-5.83843 6.4455,-5.8617 6.5075,-5.81514 6.6436,-5.92802 6.5582,-5.81514 13.4197,-11.90261 6.6476,-5.84248 6.7095,-5.88119 6.8228,-5.95131 6.7796,-5.90474 6.7099,-5.81894 6.8733,-5.90473 6.9549,-6.01736 6.7136,-5.79565 6.8653,-5.86196 6.8928,-5.88501 6.7525,-5.74907 6.9158,-5.83843 6.8656,-5.83868 6.8262,-5.77236 6.8423,-5.72554 6.8265,-5.7258 6.9353,-5.81894 6.7564,-5.65974 13.509,-11.25291 6.7838,-5.59342 6.7525,-5.61672 6.6671,-5.4808 6.6903,-5.50383 6.6438,-5.45347 6.5775,-5.41853 6.5348,-5.34438 6.4607,-5.28238 6.601,-5.34438 6.4881,-5.30186 6.2898,-5.12646 6.3752,-5.14242 6.239,-5.07989 6.3092,-5.05661 6.2897,-5.07609 5.9903,-4.85439 5.9784,-4.78833 6.1032,-4.87767 5.9084,-4.76505 5.8152,-4.63267 5.7724,-4.63268 5.7956,-4.56256 5.6595,-4.53928 5.4146,-4.31782 5.5468,-4.38363 5.5038,-4.36439 5.1695,-4.09586 5.189,-4.09181 5.2355,-4.11534 4.9868,-3.95995 4.9905,-3.91692 4.722,-3.7729 4.6484,-3.6175 4.8154,-3.77317 4.5394,-3.57852 4.3175,-3.38415 4.2515,-3.34518 4.2283,-3.30619 4.1152,-3.22851 3.983,-3.11181 3.7732,-2.95616 0.4667,-0.38901 3.1508,5.52737 2.2172,3.9364 5.3248,9.5959 2.6062,4.9012 4.9905,9.41696 2.0227,3.95969 5.1463,10.26912 2.1005,4.32138 4.3174,9.03578 3.3063,7.11454 3.2675,7.2464 3.0339,6.95888 3.5007,8.07503 0.389,0.5834 1.5171,3.65647 4.3176,10.60348 v 0 c 1.9058,4.76478 3.7341,9.55312 5.5468,14.36092 l 5.2821,14.49685 2.7229,7.90015 2.295,6.66706 0.3888,0.8947 1.9837,6.15353 2.8785,9.0163 1.9451,6.50762 2.6058,8.81407 2.2174,8.10237 1.8282,6.59695 2.1004,8.09833 2.1394,8.65867 1.5558,6.42207 1.828,8.09831 1.8672,8.56529 1.4394,6.84979 1.7501,9.01251 1.0894,5.65949 1.9837,11.09751 v 1.01137 l 0.389,1.90581 1.9448,12.17116 0.8168,5.99407 1.167,8.43291 1.05,8.50303 0.9337,8.30055 v 0.62236 c 0.5445,5.12292 1.0502,10.24938 1.5171,15.3918 l 0.5057,6.80297 0.661,8.20741 -10.0238,6.33246 -7.4253,4.76504 -7.6279,4.85439 -7.4957,4.83491 -7.5381,4.8078 -7.5188,4.83491 -7.5618,4.89716 -7.6083,4.90096 -7.4061,4.83114 -7.6043,4.94392 -7.5618,4.92041 -7.402,4.901 -7.6979,5.05691 -7.5618,4.99047 -7.402,4.89725 -7.476,4.98649 -7.5152,5.03714 -7.4294,4.96345 -7.3359,4.92415 -14.8551,10.06667 -7.2268,4.94405 -7.3596,5.03327 -7.2039,4.92041 -7.1608,4.97118 -7.157,4.96345 -7.1145,4.97106 -7.1143,4.98649 -6.9354,4.87796 -6.8926,4.90088 -7.0209,5.01012 -6.78,4.85023 -6.6437,4.81164 -6.7563,4.87797 -6.6203,4.83081 -6.5347,4.81165 -6.4648,4.76495 -6.1769,4.6094 -6.352,4.8076 -6.2859,4.7418 -6.0837,4.6327 -5.9978,4.6091 -5.9045,4.5629 -5.8619,4.5898 -5.6595,4.4032 -5.5935,4.5005 -5.5934,4.4729 -5.3484,4.3372 -5.0566,4.1426 -5.123,4.2942 -5.1889,4.3176 -4.8972,4.1855 -4.6755,3.983 -4.6559,4.092 -4.5393,4.0025 -4.1622,3.6952 -4.1619,3.8121 -3.9829,3.7342 -3.9131,3.6562 -3.8119,3.6565 -3.4621,3.3452 -3.2672,3.3062 -3.2675,3.3063 -2.7618,2.9174 -2.7615,2.9561 -2.7618,3.0338 -2.4116,2.7229 -2.2173,2.6061 -1.8671,2.2561 -1.7114,2.1004 -1.6338,2.1005 -1.2444,1.7114 -1.206,1.7504 -4.2708,6.2626 -4.4071,6.5542 -4.3644,6.6436 -4.407,6.8032 -4.3644,6.8888 -4.2748,6.8265 -4.2942,7.0014 -4.2283,7.025 -4.2047,7.1104 -4.1618,7.1181 -4.1389,7.1806 -4.1387,7.336 -4.092,7.406 -4.0726,7.3594 -4.0491,7.4761 -3.9404,7.4449 -3.9558,7.519 -3.9365,7.6278 -3.9402,7.6275 -3.8119,7.6084 -3.8118,7.6511 -3.7732,7.6941 -3.7732,7.7209 -3.7339,7.7836 -3.6565,7.7404 -3.6176,7.6979 -3.5784,7.8068 -3.6563,7.9661 -3.5008,7.6744 -3.5008,7.8069 -3.5009,7.8492 -3.3838,7.7873 -3.3842,7.8535 -3.3841,7.8494 -3.3453,7.8108 -3.2672,7.7831 -3.2674,7.764 -3.1896,7.6743 -3.1894,7.7836 -3.1509,7.764 -3.0728,7.6042 -3.0341,7.6512 -3.0728,7.7444 -2.9952,7.5577 -2.8785,7.3401 -2.9171,7.585 -2.9952,7.6939 -2.8004,7.297 -2.8008,7.3595 -2.7616,7.3127 -2.7228,7.2932 -2.7228,7.2933 -2.6061,7.0676 -2.6452,7.1376 -2.6061,7.0949 -2.5671,6.955 -2.5284,6.8926 -2.4505,6.8225 -2.4895,6.846 -2.4505,6.7098 -2.3337,6.5815 -2.3342,6.5502 -2.2948,6.4025 -2.2948,6.3948 -2.1784,6.1768 -2.2171,6.1965 -2.2171,6.3558 -2.1395,5.9707 -2.0614,5.7958 -2.0617,5.8384 -2.0226,5.6829 -2.0226,5.613 -0.8948,2.5672 -3.2285,0.5834 -5.2122,0.8946 -10.4906,1.6338 -5.0566,0.7001 -9.4443,1.3224 -4.7415,0.6223 -11.0975,1.2838 -5.6595,0.6223 -8.9232,0.8947 -8.8607,0.7 -6.1302,0.4668 -7.83,0.5056 -8.9037,0.5057 -5.6167,0.389 -9.6194,0.389 h -6.4881 -8.7714 -6.6438 -9.6851 -4.6095 l -10.829,-0.389 -5.8852,-0.389 -9.46,-0.389 -5.4805,-0.389 -10.0239,-0.6221 -6.5076,-0.467 -9.4442,-0.7777 -4.2048,-0.389 -12.2136,-1.2447 h -0.9727 l -2.2171,-0.389 -11.8325,-1.4005 -4.656,-0.6223 -12.4822,-1.7114 c -19.3047,-2.9172 -38.5706,-6.5542 -57.7626,-10.9419 10.0201,-40.9824 42.1919,-166.0878 93.6921,-308.3705 z"
         style="fill:#00adef;fill-opacity:1;fill-rule:evenodd;stroke:none;stroke-width:2.53096271"
         id="path38"
         inkscape:connector-curvature="0" />
    </g>
    <g
       id="g4662">
      <g
         transform="matrix(1.5098708,0,0,1.5098708,-964.69155,-1242.3155)"
         id="g4570"
         style="stroke-width:0.66230834">
        <text
           xml:space="preserve"
           style="font-style:normal;font-variant:normal;font-weight:normal;font-stretch:normal;font-size:350.3692627px;line-height:1.25;font-family:Roboto;-inkscape-font-specification:Roboto;letter-spacing:0px;word-spacing:0px;fill:#ffffff;fill-opacity:1;stroke:none;stroke-width:0.66230839"
           x="1339.2759"
           y="2394.1418"
           id="text4508"><tspan
             sodipodi:role="line"
             id="tspan4506"
             x="1339.2759"
             y="2394.1418"
             style="font-style:normal;font-variant:normal;font-weight:normal;font-stretch:normal;font-family:'Times New Roman';-inkscape-font-specification:'Times New Roman, ';stroke-width:0.36140674">Horsgle</tspan></text>
        <text
           xml:space="preserve"
           style="font-style:normal;font-variant:normal;font-weight:normal;font-stretch:normal;font-size:127.08908081px;line-height:1.25;font-family:Roboto;-inkscape-font-specification:Roboto;letter-spacing:0px;word-spacing:0px;fill:#cccccc;fill-opacity:1;stroke:none;stroke-width:0.66230839"
           x="1127.387"
           y="2587.1562"
           id="text4514"><tspan
             sodipodi:role="line"
             id="tspan4512"
             x="1127.387"
             y="2587.1562"
             style="font-style:normal;font-variant:normal;font-weight:normal;font-stretch:normal;font-family:'Times New Roman';-inkscape-font-specification:'Times New Roman, ';fill:#cccccc;fill-opacity:1;stroke-width:0.66230839">Desenvolvimento de Sistemas</tspan></text>
      </g>
      <rect
         ry="0.72727281"
         rx="0.72727281"
         y="2445.9553"
         x="960.90039"
         height="13.121366"
         width="1095.1477"
         id="rect4516"
         style="opacity:1;fill:#ffffff;fill-opacity:1;stroke:none;stroke-width:7.55905533;stroke-miterlimit:4;stroke-dasharray:none;stroke-opacity:1" />
      <rect
         style="opacity:1;fill:#ffffff;fill-opacity:1;stroke:none;stroke-width:7.55905533;stroke-miterlimit:4;stroke-dasharray:none;stroke-opacity:1"
         id="rect4518"
         width="420.15823"
         height="13.121366"
         x="2368.167"
         y="2445.9553"
         rx="0.72727281"
         ry="0.72727281" />
      <g
         style="stroke-width:0.66230834"
         id="g4648"
         transform="matrix(1.5098708,0,0,1.5098708,-964.69155,-1242.3155)">
        <text
           id="text4642"
           y="2394.1418"
           x="1339.2759"
           style="font-style:normal;font-variant:normal;font-weight:normal;font-stretch:normal;font-size:350.3692627px;line-height:1.25;font-family:Roboto;-inkscape-font-specification:Roboto;letter-spacing:0px;word-spacing:0px;fill:#ffffff;fill-opacity:1;stroke:none;stroke-width:0.66230839"
           xml:space="preserve"><tspan
             style="font-style:normal;font-variant:normal;font-weight:normal;font-stretch:normal;font-family:'Times New Roman';-inkscape-font-specification:'Times New Roman, ';stroke-width:0.36140674"
             y="2394.1418"
             x="1339.2759"
             id="tspan4640"
             sodipodi:role="line">Horsgle</tspan></text>
        <text
           id="text4646"
           y="2587.1562"
           x="1127.387"
           style="font-style:normal;font-variant:normal;font-weight:normal;font-stretch:normal;font-size:127.08908081px;line-height:1.25;font-family:Roboto;-inkscape-font-specification:Roboto;letter-spacing:0px;word-spacing:0px;fill:#cccccc;fill-opacity:1;stroke:none;stroke-width:0.66230839"
           xml:space="preserve"><tspan
             style="font-style:normal;font-variant:normal;font-weight:normal;font-stretch:normal;font-family:'Times New Roman';-inkscape-font-specification:'Times New Roman, ';fill:#cccccc;fill-opacity:1;stroke-width:0.66230839"
             y="2587.1562"
             x="1127.387"
             id="tspan4644"
             sodipodi:role="line">Desenvolvimento de Sistemas</tspan></text>
      </g>
    </g>
    <g
       id="g4547"
       inkscape:export-filename="C:\Users\William\hg01.png"
       inkscape:export-xdpi="90"
       inkscape:export-ydpi="90"
       transform="matrix(0.46898135,0,0,0.46898135,4221.4798,-709.19702)">
      <g
         inkscape:export-ydpi="90"
         inkscape:export-xdpi="90"
         inkscape:export-filename="C:\Users\William\text4685.png"
         style="stroke-width:1.87880158"
         transform="matrix(1.0932711,0,0,1.0932711,101.92211,-1271.1328)"
         id="g4736">
        <rect
           ry="1.3664013"
           rx="1.3664013"
           y="1864.9474"
           x="6722.5952"
           height="19.056259"
           width="1536.9111"
           id="rect4674"
           style="opacity:1;fill:#666666;fill-opacity:1;stroke:none;stroke-width:14.20196629;stroke-miterlimit:4;stroke-dasharray:none;stroke-opacity:1" />
        <rect
           style="opacity:1;fill:#666666;fill-opacity:1;stroke:none;stroke-width:14.20196629;stroke-miterlimit:4;stroke-dasharray:none;stroke-opacity:1"
           id="rect4676"
           width="579.86139"
           height="19.056259"
           x="8712.7998"
           y="1864.9474"
           rx="1.3664014"
           ry="1.3664013" />
      </g>
      <text
         inkscape:export-ydpi="90"
         inkscape:export-xdpi="90"
         inkscape:export-filename="C:\Users\William\text4685.png"
         id="text4680"
         y="651.1781"
         x="7531.2988"
         style="font-style:normal;font-variant:normal;font-weight:normal;font-stretch:normal;font-size:839.94750977px;line-height:1.25;font-family:Roboto;-inkscape-font-specification:Roboto;letter-spacing:0px;word-spacing:0px;fill:#00adef;fill-opacity:1;stroke:none;stroke-width:2.05403948"
         xml:space="preserve"><tspan
           style="font-style:normal;font-variant:normal;font-weight:normal;font-stretch:normal;font-family:'Times New Roman';-inkscape-font-specification:'Times New Roman, ';fill:#00adef;fill-opacity:1;stroke-width:1.12084293"
           y="651.1781"
           x="7531.2988"
           id="tspan4678"
           sodipodi:role="line"><tspan
   id="tspan4706"
   style="fill:#666666;stroke-width:1.12084293">Hors</tspan>g<tspan
   id="tspan4708"
   style="fill:#666666;stroke-width:1.12084293">le</tspan></tspan></text>
      <text
         inkscape:export-ydpi="90"
         inkscape:export-xdpi="90"
         inkscape:export-filename="C:\Users\William\text4685.png"
         id="text4684"
         y="1021.3167"
         x="7477.7046"
         style="font-style:normal;font-variant:normal;font-weight:normal;font-stretch:normal;font-size:229.02926636px;line-height:1.25;font-family:Roboto;-inkscape-font-specification:Roboto;letter-spacing:0px;word-spacing:0px;fill:#666666;fill-opacity:1;stroke:none;stroke-width:2.05403948"
         xml:space="preserve"><tspan
           style="font-style:normal;font-variant:normal;font-weight:normal;font-stretch:normal;font-family:'Times New Roman';-inkscape-font-specification:'Times New Roman, ';fill:#808080;fill-opacity:1;stroke-width:2.05403948"
           y="1021.3167"
           x="7477.7046"
           id="tspan4682"
           sodipodi:role="line">Desenvolvimento de Sistemas</tspan></text>
    </g>
  </g>
</svg>
