<?xml version="1.0" encoding="UTF-8" standalone="no"?>
<!-- Created with Inkscape (http://www.inkscape.org/) -->

<svg
   xmlns:dc="http://purl.org/dc/elements/1.1/"
   xmlns:cc="http://creativecommons.org/ns#"
   xmlns:rdf="http://www.w3.org/1999/02/22-rdf-syntax-ns#"
   xmlns:svg="http://www.w3.org/2000/svg"
   xmlns="http://www.w3.org/2000/svg"
   xmlns:sodipodi="http://sodipodi.sourceforge.net/DTD/sodipodi-0.dtd"
   xmlns:inkscape="http://www.inkscape.org/namespaces/inkscape"
   width="73.229149mm"
   height="52.916668mm"
   viewBox="0 0 73.229149 52.916668"
   version="1.1"
   id="svg4731"
   inkscape:version="0.92.1 r15371"
   sodipodi:docname="modulare-orcamentos-white.svg">
  <defs
     id="defs4725" />
  <sodipodi:namedview
     id="base"
     pagecolor="#ffffff"
     bordercolor="#666666"
     borderopacity="1.0"
     inkscape:pageopacity="0.0"
     inkscape:pageshadow="2"
     inkscape:zoom="0.7"
     inkscape:cx="-322.91643"
     inkscape:cy="423.82318"
     inkscape:document-units="mm"
     inkscape:current-layer="layer1"
     showgrid="false"
     fit-margin-top="0"
     fit-margin-left="0"
     fit-margin-right="0"
     fit-margin-bottom="0"
     inkscape:window-width="1920"
     inkscape:window-height="1003"
     inkscape:window-x="-9"
     inkscape:window-y="-9"
     inkscape:window-maximized="1" />
  <metadata
     id="metadata4728">
    <rdf:RDF>
      <cc:Work
         rdf:about="">
        <dc:format>image/svg+xml</dc:format>
        <dc:type
           rdf:resource="http://purl.org/dc/dcmitype/StillImage" />
        <dc:title></dc:title>
      </cc:Work>
    </rdf:RDF>
  </metadata>
  <g
     inkscape:label="Camada 1"
     inkscape:groupmode="layer"
     id="layer1"
     transform="translate(67.691895,-163.19644)">
    <g
       id="g4571"
       transform="translate(-512.65213,161.08446)"
       inkscape:export-xdpi="90"
       inkscape:export-ydpi="90"
       style="fill:#ffffff;fill-opacity:1;opacity:1">
      <path
         style="fill:#ffffff;stroke-width:1.64419651;fill-opacity:1"
         inkscape:connector-curvature="0"
         d="m 462.20442,8.600233 h 16.44201 a 3.2883932,3.2883932 0 0 1 3.28835,3.288389 v 26.30715 a 3.2883932,3.2883932 0 0 1 -3.28835,3.288389 h -16.44201 a 3.2883932,3.2883932 0 0 1 -3.28835,-3.288389 v -26.30715 a 3.2883932,3.2883932 0 0 1 3.28835,-3.288389 m 0,3.288389 v 6.576791 h 16.44201 v -6.576791 h -16.44201 m 0,9.86518 v 3.288395 h 3.28842 v -3.288395 h -3.28842 m 6.57683,0 v 3.288395 h 3.28835 v -3.288395 h -3.28835 m 6.57677,0 v 3.288395 h 3.28841 v -3.288395 h -3.28841 m -13.1536,6.57679 v 3.288389 h 3.28842 v -3.288389 h -3.28842 m 6.57683,0 v 3.288389 h 3.28835 v -3.288389 h -3.28835 m 6.57677,0 v 3.288389 h 3.28841 v -3.288389 h -3.28841 m -13.1536,6.576785 v 3.288395 h 3.28842 v -3.288395 h -3.28842 m 6.57683,0 v 3.288395 h 3.28835 v -3.288395 h -3.28835 m 6.57677,0 v 3.288395 h 3.28841 v -3.288395 z"
         id="path4541" />
      <path
         style="fill:#ffffff;stroke-width:1.32845128;fill-opacity:1"
         inkscape:connector-curvature="0"
         d="m 501.9093,15.135265 c -0.31958,0.553246 -0.62937,1.090094 -0.52875,1.516991 0.0713,0.421014 0.62117,0.727511 1.13849,1.015244 0.78786,0.476554 1.54564,0.892393 1.68848,1.528027 0.14423,0.635257 -0.33628,1.465415 -0.81875,2.282353 l -3.87612,6.732402 -2.31036,-1.333885 3.99571,-6.901981 -1.56193,-0.901784 -1.33733,2.297533 -6.10132,-3.522586 3.61057,-6.234903 c 0.36637,-0.634537 1.20043,-0.858024 1.80928,-0.484794 l 3.80723,2.198089 c 0.62768,0.340702 0.85116,1.174753 0.4848,1.809294 m -19.21472,19.190521 8.97683,-15.567087 6.10128,3.522592 -8.97679,15.567083 -4.81196,1.289361 z"
         id="path4554" />
    </g>
    <text
       xml:space="preserve"
       style="font-style:normal;font-variant:normal;font-weight:normal;font-stretch:normal;font-size:4.61419773px;line-height:1.25;font-family:Roboto;-inkscape-font-specification:Roboto;letter-spacing:0px;word-spacing:0px;fill:#ffffff;fill-opacity:1;stroke:none;stroke-width:0.15730217;opacity:1;"
       x="-59.552616"
       y="210.92412"
       id="text4567"
       inkscape:export-xdpi="90"
       inkscape:export-ydpi="90"><tspan
         sodipodi:role="line"
         id="tspan4565"
         x="-59.552616"
         y="210.92412"
         style="font-style:normal;font-variant:normal;font-weight:bold;font-stretch:normal;font-family:Roboto;-inkscape-font-specification:'Roboto Bold';fill:#ffffff;fill-opacity:1;stroke-width:0.15730217;">MODULARE ORÇAMENTOS</tspan></text>
  </g>
</svg>
