<?xml version="1.0" encoding="UTF-8" standalone="no"?>
<!-- Created with Inkscape (http://www.inkscape.org/) -->

<svg
   xmlns:dc="http://purl.org/dc/elements/1.1/"
   xmlns:cc="http://creativecommons.org/ns#"
   xmlns:rdf="http://www.w3.org/1999/02/22-rdf-syntax-ns#"
   xmlns:svg="http://www.w3.org/2000/svg"
   xmlns="http://www.w3.org/2000/svg"
   xmlns:sodipodi="http://sodipodi.sourceforge.net/DTD/sodipodi-0.dtd"
   xmlns:inkscape="http://www.inkscape.org/namespaces/inkscape"
   width="440.72726"
   height="136"
   id="svg3756"
   version="1.1"
   inkscape:version="0.92.1 r15371"
   viewBox="0 0 440.72726 136.00001"
   inkscape:export-filename="/home/william/LogoHorsgle.png"
   inkscape:export-xdpi="90"
   inkscape:export-ydpi="90"
   sodipodi:docname="horsgle.svg">
  <defs
     id="defs3758" />
  <sodipodi:namedview
     id="base"
     pagecolor="#ffffff"
     bordercolor="#666666"
     borderopacity="1.0"
     inkscape:pageopacity="0.0"
     inkscape:pageshadow="2"
     inkscape:zoom="1.375"
     inkscape:cx="203.6558"
     inkscape:cy="-32.239346"
     inkscape:current-layer="layer1"
     showgrid="true"
     inkscape:document-units="px"
     inkscape:grid-bbox="true"
     inkscape:window-width="1920"
     inkscape:window-height="1003"
     inkscape:window-x="-9"
     inkscape:window-y="-9"
     inkscape:window-maximized="1"
     fit-margin-top="0"
     fit-margin-left="0"
     fit-margin-right="0"
     fit-margin-bottom="0" />
  <metadata
     id="metadata3761">
    <rdf:RDF>
      <cc:Work
         rdf:about="">
        <dc:format>image/svg+xml</dc:format>
        <dc:type
           rdf:resource="http://purl.org/dc/dcmitype/StillImage" />
        <dc:title></dc:title>
      </cc:Work>
    </rdf:RDF>
  </metadata>
  <g
     id="layer1"
     inkscape:label="Layer 1"
     inkscape:groupmode="layer"
     transform="translate(28.240681,0.13410777)">
    <g
       id="g851">
      <rect
         y="-0.13410777"
         x="-28.240681"
         height="136"
         width="440.72726"
         id="rect832"
         style="opacity:1;fill:#f2f2f2;fill-opacity:0;stroke:none;stroke-width:1.87973845;stroke-miterlimit:4;stroke-dasharray:none;stroke-opacity:1;paint-order:markers stroke fill" />
      <path
         d="M 40.737422,5.9775722 C 40.445278,5.8281902 40.153167,5.6827931 39.861032,5.5400329 L 39.012395,5.1355372 38.980654,5.1197423 38.74141,5.0126296 38.093698,4.7218233 37.256961,4.3635994 36.769191,4.1666368 36.339584,3.9947925 36.310343,3.9833081 36.092231,3.9013557 35.448485,3.6568096 35.414091,3.6434262 35.062466,3.517845 34.581311,3.3473178 34.088255,3.1820777 33.687732,3.048578 33.238292,2.9071356 32.759781,2.7590919 32.461035,2.673218 31.855618,2.4974008 31.453766,2.3890192 30.977898,2.2634386 30.573401,2.1603648 30.056561,2.0347842 29.683795,1.9501764 29.11538,1.8232802 28.821909,1.7638385 28.252182,1.6474901 27.823898,1.5668066 27.313654,1.4756213 26.947505,1.4135234 26.431963,1.3301839 26.008967,1.2693528 25.476254,1.1953666 25.136531,1.1517346 24.595889,1.0869821 24.164964,1.0406941 23.686449,0.99314064 23.226438,0.95343308 22.795498,0.91903481 22.373833,0.89121266 21.790888,0.8555476 21.488179,0.84096031 21.141846,0.82781993 21.123154,1.2918032 C 20.683389,12.214394 19.150022,43.894321 14.811641,52.337103 7.529458,66.508857 -6.907994,80.113545 -9.87031,84.270821 c 2.383331,1.895564 4.987411,3.58492 7.797709,5.029713 2.81954201,1.447451 5.717087,2.582938 8.654278,3.417043 C 8.5896,87.333944 13.825536,62.46032 18.145401,54.050592 23.003221,44.5979 47.379818,25.594706 55.909846,19.136057 L 56.289217,18.849215 56.123975,18.640355 55.907187,18.36277 55.55425,17.929187 55.270033,17.584177 55.008303,17.276183 54.68181,16.896805 54.410796,16.587494 54.06447,16.198856 53.796141,15.908046 53.439253,15.52338 53.193386,15.262973 52.808721,14.865091 52.443881,14.497609 52.225776,14.28082 51.800139,13.867081 51.497429,13.578914 51.114078,13.222007 50.874831,12.99993 50.457116,12.627164 50.117395,12.325784 49.745942,12.008534 49.463067,11.766628 49.01098,11.395189 48.704316,11.145353 48.343437,10.859832 47.961427,10.561083 47.678549,10.346949 47.188133,9.976824 46.915831,9.7785254 46.467705,9.4559897 45.96012,9.1017222 45.6997,8.9245914 44.935664,8.4156791 44.38048,8.060098 44.07777,7.8684241 43.297866,7.395198 42.91717,7.1744378 42.421471,6.8876013 41.603225,6.4355188 40.737402,5.9781494 Z"
         style="fill:#004e75;fill-opacity:1;fill-rule:evenodd;stroke:none;stroke-width:1.47644675"
         id="path16"
         inkscape:connector-curvature="0" />
      <path
         d="M 6.627909,72.290484 -9.870348,84.270587 c 2.383329,1.895561 4.987422,3.584917 7.797708,5.029709 2.81955701,1.447453 5.717087,2.582939 8.654289,3.417043 l 0.0463,-20.426855 z"
         style="fill:#00adef;fill-opacity:1;fill-rule:evenodd;stroke:none;stroke-width:1.47644675"
         id="path18"
         inkscape:connector-curvature="0" />
      <path
         d="m -5.299321,7.7925032 c 0,0 12.325113,16.1281338 17.15786,39.3547038 5.072015,24.376599 0.775949,46.839121 0.775949,46.839121 v 0.02231 c 4.910736,0.709846 9.853207,0.619957 14.647627,-0.20886 l -0.0099,-0.041 c 0,0 5.455354,-24.815458 1.812291,-52.097518 C 25.88675,17.717159 14.886157,1.0060696 14.886157,1.0060696 7.738806,1.6947706 0.81881701,4.0186164 -5.298795,7.7925536 Z"
         style="fill:#006e9e;fill-opacity:1;fill-rule:evenodd;stroke:none;stroke-width:1.47644675"
         id="path20"
         inkscape:connector-curvature="0" />
      <path
         d="m -11.32043,12.208872 c 0,0 8.753421,25.5372 30.109544,36.487563 21.342893,10.942442 47.203946,3.156633 47.203946,3.156633 L 34.555042,91.934789 c 0,0 -4.885622,-23.58876 -21.47377,-32.13068 -16.617222,-8.55647 -38.647491,1.169847 -38.647491,1.169847 z"
         style="fill:#007eb2;fill-opacity:1;fill-rule:evenodd;stroke:none;stroke-width:1.47644675"
         id="path22"
         inkscape:connector-curvature="0" />
      <path
         d="m 65.69697,52.043414 -0.428285,0.280238 -0.449439,0.292144 -0.432255,0.281565 -0.422997,0.278912 -0.454727,0.300071 -0.440182,0.289493 -0.426956,0.28289 -0.428294,0.285544 -0.438852,0.293472 -0.436227,0.290817 -0.416381,0.281564 -0.856564,0.577659 -0.412426,0.284186 -0.438866,0.300073 -0.40714,0.277586 -0.40581,0.281564 -0.413738,0.286839 -0.405825,0.284187 -0.415067,0.290818 -0.393914,0.27626 -0.391279,0.278911 -0.408453,0.292144 -0.382024,0.272312 -0.374081,0.271014 -0.392597,0.284187 -0.370122,0.269658 -0.374092,0.274963 -0.371439,0.274963 -0.329152,0.243222 -0.358226,0.272311 -0.366152,0.277585 -0.341051,0.259079 -0.334431,0.256424 -0.327825,0.253804 -0.334424,0.259077 -0.298745,0.235296 -0.307994,0.247202 -0.315921,0.252476 -0.282891,0.229991 -0.26173,0.214135 -0.285514,0.240569 -0.286839,0.237917 -0.263057,0.224716 -0.241896,0.206177 -0.239244,0.20886 -0.244548,0.215491 -0.203586,0.182395 -0.203555,0.185076 -0.19828,0.18372 -0.193004,0.182395 -0.196983,0.189056 -0.150684,0.146699 -0.14143,0.141459 -0.145414,0.148031 -0.09917,0.104474 -0.1282,0.137487 -0.113702,0.124317 -0.07397,0.08323 -0.07539,0.08725 -0.03832,0.0463 -0.03174,0.03831 -0.0052,0.0075 -0.0052,0.0063 -0.215492,0.314593 -0.23002,0.343694 -0.228692,0.347653 -0.232644,0.35955 -0.231346,0.364826 -0.227338,0.364835 -0.228694,0.372769 -0.224684,0.371451 -0.227369,0.38202 -0.223387,0.384658 -0.220736,0.385992 -0.223419,0.393911 -0.226042,0.40847 -0.223389,0.405807 -0.216818,0.397881 -0.216786,0.411098 -0.218114,0.413756 -0.218083,0.421666 -0.216789,0.421684 -0.207533,0.412423 -0.211513,0.422997 -0.212839,0.433566 -0.207532,0.428294 -0.206208,0.430929 -0.206177,0.433569 -0.195657,0.416394 -0.203586,0.444141 -0.211481,0.458697 -0.190354,0.420352 -0.194299,0.436211 -0.199636,0.448113 -0.187701,0.428294 -0.385979,0.89754 -0.187699,0.437541 -0.185077,0.44018 -0.183752,0.440182 -0.174497,0.424327 -0.182394,0.446792 -0.18372,0.450757 -0.173171,0.428282 -0.173171,0.432257 -0.17715,0.446796 -0.169222,0.430924 -0.159968,0.40978 -0.167864,0.436214 -0.173171,0.450753 -0.161295,0.416397 -0.161265,0.426968 -0.155989,0.412423 -0.154662,0.4111 -0.158643,0.429607 -0.152011,0.408456 -0.150683,0.405809 -0.148032,0.409782 -0.154663,0.417712 -0.141459,0.389952 -0.142786,0.392594 -0.150684,0.416398 -0.137487,0.380695 -0.1335,0.370122 -0.06613,0.187699 C 45.592644,88.141702 55.23832,80.24486 60.993749,69.043334 63.833121,63.513953 65.468276,57.684508 65.993047,51.852429 l -0.296093,0.190352 z"
         style="fill:#00adef;fill-opacity:1;fill-rule:evenodd;stroke:none;stroke-width:1.47644675"
         id="path24"
         inkscape:connector-curvature="0" />
      <path
         d="m -25.490872,60.862926 0.224709,-0.323854 0.230017,-0.334434 0.249836,-0.364843 0.23528,-0.343677 0.235304,-0.342366 0.249836,-0.368809 0.245879,-0.358224 0.243219,-0.35955 0.243223,-0.362194 0.256446,-0.379368 0.244537,-0.364838 0.24455,-0.366165 0.252476,-0.379368 0.245878,-0.374096 0.264362,-0.403167 0.257764,-0.391278 0.239259,-0.367472 0.252479,-0.389953 0.259078,-0.403177 0.251163,-0.392596 0.247189,-0.38994 0.259078,-0.412423 0.257764,-0.408467 0.243231,-0.388626 0.249837,-0.405811 0.25115,-0.407139 0.245863,-0.40714 0.506284,-0.835421 0.237935,-0.403167 0.248507,-0.422995 0.240579,-0.411109 0.231332,-0.400526 0.249836,-0.438853 0.241909,-0.424324 0.226046,-0.400523 0.231311,-0.420357 0.230017,-0.419037 0.227365,-0.41771 0.228704,-0.425639 0.220759,-0.417711 0.214159,-0.408454 0.216765,-0.422998 0.216791,-0.423007 0.208849,-0.41771 0.207534,-0.416384 0.196959,-0.407139 0.200928,-0.419023 0.199592,-0.421687 0.190358,-0.409779 0.185074,-0.404496 0.182415,-0.405807 0.179784,-0.407141 0.170527,-0.3992 0.169214,-0.403166 0.163925,-0.396567 0.162589,-0.401852 0.155983,-0.397883 0.149381,-0.388625 0.145415,-0.387305 0.130872,-0.358228 0.0039,-0.0099 0.0012,-0.0061 0.01344,-0.04757 0.01462,-0.05817 0.02779,-0.111044 0.02517,-0.109744 0.0344,-0.165244 0.03831,-0.183721 0.02644,-0.140129 0.0344,-0.204881 0.03301,-0.196983 0.03174,-0.20886 0.03971,-0.271015 0.03567,-0.263057 0.03301,-0.268331 0.03174,-0.272311 0.03035,-0.27231 0.03301,-0.325182 0.03035,-0.314607 0.02644,-0.317249 0.03035,-0.343684 0.02643,-0.372767 0.02779,-0.371451 0.02249,-0.338392 0.02249,-0.364838 0.02104,-0.403171 0.02104,-0.393921 0.01722,-0.379369 0.01722,-0.422994 0.01462,-0.413757 0.01462,-0.421665 0.01152,-0.428297 0.01152,-0.459998 0.01152,-0.449442 0.0077,-0.40978 0.0062,-0.46134 0.005,-0.463967 0.0039,-0.457371 0.0026,-0.485124 0.0026,-0.461327 -0.0012,-0.470585 -0.0012,-0.500998 v -0.481156 l -0.005,-0.480018 -0.0039,-0.50893 -0.0062,-0.49437 -0.0077,-0.503639 -0.0062,-0.49437 -0.01152,-0.493055 -0.0099,-0.530126 -0.01006,-0.500998 -0.02779,-1.032369 -0.01462,-0.502314 -0.01722,-0.523469 -0.01722,-0.528741 -0.01842,-0.514213 -0.01722,-0.511557 -0.02104,-0.527426 -0.02104,-0.543285 -0.01986,-0.507601 -0.02249,-0.514211 -0.0237,-0.535356 -0.02249,-0.511557 -0.01152,-0.270989 c -4.411508,3.813423 -8.180162,8.5206 -11.008962,14.024868 -5.739559,11.173763 -6.553834,23.579508 -3.237264,34.740044 l 0.07537,-0.111043 z"
         style="fill:#00adef;fill-opacity:1;fill-rule:evenodd;stroke:none;stroke-width:1.47644675"
         id="path26"
         inkscape:connector-curvature="0" />
      <path
         d="m 66.008933,44.428125 c 0,0 -20.289384,-0.62657 -41.986543,8.968881 -22.769205,10.071325 -38.529855,26.643601 -38.529855,26.643601 l -0.01842,0.01329 c -3.436859,-3.578339 -6.241873,-7.649699 -8.359511,-12.02905 l 0.03971,-0.01598 c 0,0 16.997925,-18.884222 41.297854,-31.809461 21.328362,-11.344285 41.318995,-12.130803 41.318995,-12.130803 3.602092,6.21014 5.742203,13.189617 6.237902,20.359442 z"
         style="fill:#008dc6;fill-opacity:1;fill-rule:evenodd;stroke:none;stroke-width:1.47644675"
         id="path28"
         inkscape:connector-curvature="0" />
      <path
         d="M 47.075797,61.892663 C 33.991928,77.716762 27.271544,93.758968 27.271544,93.758968 c -4.79045,0.835422 -9.72896,0.930596 -14.637056,0.227369 l 0.01476,-0.04757 0.0727,-0.253803 0.07006,-0.248528 0.06879,-0.252477 0.0727,-0.27231 0.06879,-0.26568 0.07006,-0.27231 0.0674,-0.280238 0.07006,-0.285514 0.07145,-0.294796 0.0674,-0.294768 0.07006,-0.297418 0.0727,-0.318568 0.07006,-0.31328 0.07006,-0.307992 0.07397,-0.334436 0.07397,-0.333111 0.07539,-0.347653 0.07539,-0.343692 0.07666,-0.346322 0.07666,-0.359554 0.07666,-0.354266 0.08068,-0.367477 0.08461,-0.388627 0.08196,-0.380695 0.08196,-0.379384 0.08458,-0.389948 0.08587,-0.393913 0.08723,-0.40185 0.08852,-0.40317 0.09119,-0.411094 0.09383,-0.420366 0.09258,-0.419025 0.09522,-0.421687 0.09522,-0.428278 0.09917,-0.434899 0.09914,-0.438853 0.10043,-0.433583 0.104473,-0.448111 0.104444,-0.44811 0.105713,-0.450756 0.107103,-0.450754 0.109744,-0.449437 0.11497,-0.473228 0.113701,-0.466627 0.112432,-0.453397 0.116344,-0.463983 0.12163,-0.477198 0.120271,-0.471898 0.121659,-0.467939 0.126872,-0.478529 0.126899,-0.482482 0.126901,-0.473225 0.132172,-0.479841 0.132172,-0.479841 0.136157,-0.483795 0.137487,-0.486457 0.138801,-0.483797 0.141458,-0.482485 0.144087,-0.487769 0.145401,-0.483797 0.145414,-0.477198 0.153368,-0.493057 0.152011,-0.485125 0.15201,-0.477198 0.15599,-0.481157 0.159966,-0.486452 0.161295,-0.479845 0.162591,-0.479837 0.165244,-0.478513 0.166539,-0.473225 0.171845,-0.478526 0.173169,-0.477182 0.174498,-0.469271 0.175823,-0.466624 0.179773,-0.467943 0.181097,-0.463968 0.185077,-0.463984 0.186374,-0.461327 0.186373,-0.452079 0.191678,-0.449442 0.191679,-0.448109 0.195656,-0.444141 0.196986,-0.442826 0.198279,-0.432253 0.203554,-0.436223 0.206177,-0.433571 0.204881,-0.421681 0.20886,-0.41771 0.202228,-0.399201 0.05817,-0.112431 0.06083,-0.108357 0.08068,-0.134829 0.08196,-0.136157 0.09385,-0.1467 0.111044,-0.170518 0.121629,-0.17715 0.137487,-0.196983 0.140129,-0.196983 0.141459,-0.191678 0.16654,-0.21941 0.166539,-0.216787 0.175824,-0.222064 0.196982,-0.244548 0.200902,-0.244519 0.206177,-0.248529 0.214135,-0.253803 0.214166,-0.248527 0.236622,-0.268333 0.241897,-0.276259 0.241896,-0.267034 0.256454,-0.282861 0.272312,-0.293472 0.267005,-0.290817 0.264353,-0.281564 0.280237,-0.294769 0.293472,-0.305349 0.294767,-0.304037 0.29742,-0.302706 0.307992,-0.311963 0.311968,-0.313281 0.315918,-0.315924 0.321211,-0.318577 0.331792,-0.325178 0.335751,-0.329139 0.329152,-0.317254 0.342366,-0.329147 0.345009,-0.331794 0.35161,-0.33178 0.356906,-0.338396 0.354267,-0.331794 0.360867,-0.337076 0.372765,-0.346327 0.366154,-0.338408 0.370121,-0.338395 0.379384,-0.34765 0.378048,-0.34501 0.382025,-0.345009 0.380696,-0.346322 0.384668,-0.343692 0.392596,-0.350297 0.387307,-0.343682 0.793122,-0.70323 0.392596,-0.34501 0.396556,-0.347653 0.403176,-0.351622 0.400523,-0.348979 0.396556,-0.343679 0.405824,-0.348971 0.411097,-0.355591 0.396565,-0.342363 0.40581,-0.346326 0.407136,-0.347653 0.399201,-0.339719 0.408466,-0.34501 0.405814,-0.345009 0.403165,-0.341036 0.404494,-0.338399 0.403167,-0.338405 0.409783,-0.34368 0.399196,-0.334436 0.798419,-0.664904 0.400526,-0.330463 0.399196,-0.331798 0.393922,-0.323844 0.395239,-0.325185 0.392596,-0.322534 0.388627,-0.319894 0.385994,-0.315925 0.38201,-0.311964 0.389952,-0.315924 0.383348,-0.313289 0.371441,-0.30271 0.376738,-0.304021 0.368794,-0.300073 0.372768,-0.298746 0.371449,-0.300071 0.354255,-0.28684 0.352937,-0.28289 0.360882,-0.288165 0.348964,-0.281536 0.343695,-0.273636 0.341038,-0.273637 0.342364,-0.269658 0.334438,-0.268332 0.319891,-0.255128 0.327825,-0.259109 0.325179,-0.257751 0.305352,-0.241897 0.306668,-0.241897 0.309319,-0.243222 0.294767,-0.23397 0.294768,-0.231316 0.278882,-0.222062 0.274963,-0.214135 0.284216,-0.222062 0.268333,-0.211482 0.255128,-0.199606 0.251181,-0.196954 0.249825,-0.194301 0.243222,-0.190352 0.235294,-0.18372 0.223389,-0.174497 0.02653,-0.01989 c 3.602091,6.210143 5.742203,13.186973 6.2379,20.359439 0,0 -9.951036,6.600097 -18.933134,17.46454 z"
         style="fill:#008dc6;fill-opacity:1;fill-rule:evenodd;stroke:none;stroke-width:1.47644675"
         id="path30"
         inkscape:connector-curvature="0" />
      <path
         d="m -8.471802,33.353504 c -5.246502,19.850513 -14.374017,34.655446 -14.374017,34.655446 2.111025,4.380679 4.909422,8.450712 8.338354,12.031657 l 0.03035,-0.03831 0.163926,-0.207534 0.161271,-0.200901 0.165242,-0.203555 0.178446,-0.218115 0.177131,-0.210186 0.179763,-0.215461 0.187727,-0.218144 0.192989,-0.223389 0.19696,-0.228693 0.200928,-0.227368 0.200906,-0.229991 0.21679,-0.244548 0.212818,-0.239275 0.210187,-0.235324 0.228677,-0.256425 0.228704,-0.253803 0.237935,-0.264353 0.235305,-0.260404 0.237935,-0.264354 0.247192,-0.27231 0.243221,-0.268332 0.251165,-0.278911 0.268338,-0.294768 0.260406,-0.288166 0.261735,-0.288165 0.26702,-0.296093 0.270978,-0.300072 0.274952,-0.304025 0.276265,-0.306679 0.281564,-0.313281 0.286849,-0.32122 0.286836,-0.318564 0.288166,-0.323853 0.290821,-0.326504 0.296092,-0.33444 0.300066,-0.335751 0.293452,-0.334436 0.304036,-0.346325 0.302707,-0.345009 0.30535,-0.348976 0.304036,-0.350296 0.30138,-0.350295 0.318577,-0.368797 0.311952,-0.363522 0.304035,-0.35558 0.309324,-0.364836 0.317238,-0.376729 0.313293,-0.372764 0.309308,-0.371451 0.315934,-0.382025 0.318566,-0.383338 0.310637,-0.379382 0.31196501,-0.385979 0.314607,-0.387312 0.313279,-0.39127 0.314608,-0.396565 0.313282,-0.395236 0.310636,-0.393909 L 1.117039,61.883453 1.426348,61.482924 1.730384,61.087689 2.04102,60.675265 2.347701,60.269455 2.647772,59.8676 2.947845,59.460463 3.249213,59.04804 3.546633,58.636942 3.841399,58.225845 4.133544,57.812095 4.42171,57.400998 4.711201,56.983286 4.996715,56.56425 5.276953,56.150506 5.554539,55.735439 5.830828,55.316402 6.101843,54.89869 l 0.269658,-0.420353 0.26568,-0.420351 0.260403,-0.415071 0.253802,-0.416382 0.252477,-0.41771 0.247202,-0.41771 0.244548,-0.417711 0.236621,-0.412423 0.235296,-0.420351 0.232642,-0.420358 0.224715,-0.412424 0.216789,-0.412423 0.207533,-0.396566 0.0569,-0.112431 0.05287,-0.112314 0.06352,-0.144057 0.06352,-0.146729 0.06349,-0.161295 0.07397,-0.190352 0.07397,-0.200932 0.0793,-0.227367 0.07804,-0.227369 0.07397,-0.227367 0.08068,-0.263057 0.08069,-0.261731 0.07663,-0.27231 0.08458,-0.302707 0.08335,-0.30535 0.08068,-0.311963 0.08069,-0.322538 0.07804,-0.319893 0.08068,-0.347653 0.08322,-0.358221 0.07666,-0.351622 0.08068,-0.374083 0.08069,-0.39128 0.08068,-0.385984 0.07539,-0.379378 0.07539,-0.399209 0.07804,-0.416384 0.07539,-0.41771 0.07397,-0.416397 0.07397,-0.433568 0.0727,-0.434898 0.0727,-0.441498 0.07132,-0.445463 0.07143,-0.460015 0.0727,-0.465295 0.06613,-0.452082 0.06743,-0.469274 0.06879,-0.47455 0.06613,-0.478516 0.06616,-0.487766 0.06478,-0.481157 0.06211,-0.489096 0.06478,-0.504956 0.06349,-0.49437 0.05944,-0.498355 0.06082,-0.510242 0.06083,-0.507598 0.05817,-0.511553 0.05944,-0.512888 0.05426,-0.511568 0.05678,-0.524787 0.05553,-0.5142 0.108356,-1.053526 0.05157,-0.520825 0.05157,-0.524772 0.05157,-0.531399 0.05019,-0.528741 0.04892,-0.523471 0.04893,-0.532713 0.04893,-0.540643 0.0463,-0.523455 0.04627,-0.530071 0.04492,-0.534041 0.04365,-0.522129 0.04365,-0.532716 0.04365,-0.531397 0.04226,-0.526097 0.03971,-0.526115 0.04101,-0.524772 0.04099,-0.53404 0.03832,-0.519497 0.07539,-1.035016 0.03565,-0.518183 0.03704,-0.51817 0.0344,-0.508914 0.03438,-0.510241 0.0344,-0.507598 0.033,-0.500997 0.03174,-0.49834 0.03038,-0.493056 0.03036,-0.500986 0.03174,-0.493056 0.02923,-0.478524 0.02923,-0.483799 0.02803,-0.474553 0.02653,-0.475869 0.02804,-0.4772 0.02653,-0.456039 0.02532,-0.450768 0.02532,-0.4613396 0.02351,-0.4481119 0.02231,-0.4388546 0.02351,-0.4362241 0.0211,-0.4348959 0.02231,-0.4282822 0.0211,-0.4084547 0.01959,-0.4177092 0.0211,-0.4137528 0.01839,-0.3886247 0.01838,-0.3912673 0.01748,-0.3939228 0.01869,-0.3754113 0.01598,-0.3740952 0.01839,-0.3555787 0.01329,-0.3476534 0.01598,-0.3608652 0.01477,-0.3410394 0.01598,-0.3238626 0.01358,-0.3185665 0.01152,-0.3159357 0.01358,-0.3093091 0.01152,-0.2987487 0.01152,-0.2828787 0.0012,-0.034399 C 7.739485,1.6946756 0.82214301,4.0185195 -5.298113,7.7924582 c 0,0 0.429611,11.9325158 -3.172493,25.5610028 z"
         style="fill:#008dc6;fill-opacity:1;fill-rule:evenodd;stroke:none;stroke-width:1.47644675"
         id="path32"
         inkscape:connector-curvature="0" />
      <path
         d="M -0.17707899,67.564807 C 6.007951,58.560225 9.249175,49.498812 9.249175,49.498812 l 0.0569,-0.112432 0.05287,-0.112313 0.06349,-0.144058 0.06352,-0.146728 0.06352,-0.161295 0.07397,-0.190352 0.07397,-0.200902 0.0793,-0.227369 0.07804,-0.227366 0.07397,-0.227369 0.08069,-0.263055 0.08068,-0.261731 0.07666,-0.27231 0.08458,-0.302704 0.08335,-0.305353 0.08069,-0.311964 0.08068,-0.322535 0.07804,-0.319894 0.08068,-0.347654 0.08323,-0.358222 0.07666,-0.351621 0.08068,-0.374084 0.08068,-0.391281 0.08069,-0.385982 0.07539,-0.379378 0.07539,-0.399209 0.07804,-0.416384 0.07539,-0.41771 0.07397,-0.416397 0.07397,-0.433569 0.0727,-0.434897 0.0727,-0.441495 0.07143,-0.445469 0.07132,-0.460012 0.0727,-0.465299 0.06616,-0.452083 0.0674,-0.469267 0.06867,-0.474553 0.06613,-0.478512 0.06616,-0.487769 0.06478,-0.481156 0.0621,-0.4891 0.06478,-0.504953 0.06349,-0.494373 0.05944,-0.498353 0.06084,-0.510243 0.06083,-0.507599 0.05817,-0.511556 0.05944,-0.51288 0.05414,-0.511573 0.05691,-0.524784 0.05553,-0.514197 0.108356,-1.053529 0.0516,-0.520827 0.05157,-0.524772 0.0516,-0.531397 0.05019,-0.528743 0.04893,-0.523469 0.04891,-0.532715 0.04892,-0.540643 0.0463,-0.523455 0.04627,-0.53007 0.04492,-0.534042 0.04364,-0.522128 0.04365,-0.532715 0.04365,-0.531397 0.04226,-0.526099 0.03971,-0.526113 0.04099,-0.524772 0.041,-0.53404 0.03832,-0.519497 0.07539,-1.035016 0.03565,-0.518183 0.03704,-0.51817 0.0344,-0.508911 0.03438,-0.510244 0.03438,-0.507596 0.03301,-0.500999 0.03174,-0.498342 0.03038,-0.493056 0.03035,-0.500984 0.03174,-0.493055 0.02923,-0.478525 0.02923,-0.483798 0.02804,-0.474555 0.02653,-0.475871 0.02804,-0.477196 0.02653,-0.45604 0.02532,-0.450767 0.02532,-0.4613408 0.02351,-0.448112 0.02231,-0.4388547 0.02351,-0.4362234 0.0211,-0.434896 0.02231,-0.4282844 0.0211,-0.4084521 0.01959,-0.4177116 0.0211,-0.4137504 0.01838,-0.3886271 0.01839,-0.3912676 0.01748,-0.3939228 0.01839,-0.3754086 0.01598,-0.3740954 0.01839,-0.3555809 0.01329,-0.3476514 0.01598,-0.3608673 0.01477,-0.3410372 0.01598,-0.3238648 0.01358,-0.3185642 0.01152,-0.3159355 0.01358,-0.3093093 0.01152,-0.2987489 0.01152,-0.2828787 0.0012,-0.0344 -0.374094,0.039708 -0.26568,0.029118 -0.643753,0.075373 -0.326499,0.040973 -0.622601,0.085875 -0.260404,0.039708 -0.670184,0.1044601 -0.278912,0.04894 -0.584263,0.1030738 -0.454726,0.087261 -0.461336,0.091182 -0.438856,0.092572 -0.506269,0.1110407 -0.03705,0.00766 -0.227367,0.05425 -0.658286,0.1559833 h -0.0012 C 7.780189,2.2458378 7.486724,2.3225037 7.193274,2.4017974 L 6.316832,2.6463501 5.843608,2.7877922 5.444399,2.9080651 5.391529,2.9252771 5.028018,3.0416255 4.495304,3.2134699 4.115925,3.3443377 3.603041,3.5228075 3.136427,3.6933347 2.75572,3.8334599 2.29439,4.0105914 1.805295,4.2048983 1.444428,4.3529662 0.99234601,4.5419859 l -0.477195,0.2062193 -0.378056,0.1665574 -0.493056,0.2260474 -0.307994,0.1440702 -0.60144301,0.2868515 -0.05553,0.026436 -0.101787,0.051598 -0.651687,0.3265053 -0.315921,0.1665603 -0.445469,0.2326517 -0.444153,0.2432348 -0.433569,0.2405791 -0.03035,0.015795 c -0.267548,0.1494182 -0.530589,0.3014256 -0.79364,0.4574034 l -0.345008,0.2088478 -0.417712,0.2511624 0.04098,0.6979464 0.02643,0.5208121 0.02906,0.5340412 0.02781,0.5261138 0.02781,0.527413 0.02643,0.527431 0.02517,0.531398 0.02517,0.534026 0.02379,0.522143 0.02379,0.535355 0.02379,0.532713 0.01986,0.524786 0.02113,0.541969 0.02113,0.535357 0.01849,0.524784 0.01849,0.531385 0.01719,0.534041 0.01719,0.527429 0.01446,0.522127 0.02906,1.058827 0.01019,0.516843 0.01019,0.527428 0.01137,0.515527 0.0075,0.515528 0.0075,0.514212 0.005,0.512884 0.005,0.512883 0.0039,0.500984 0.0012,0.49967 0.0025,0.508929 v 0.494369 l -0.0025,0.483811 -0.0025,0.491726 -0.0039,0.48513 -0.0064,0.478523 -0.0063,0.474554 -0.0075,0.456041 -0.01329,0.470583 -0.01137,0.465298 -0.01329,0.450756 -0.01314,0.446799 -0.01719,0.441494 -0.01719,0.438874 -0.01849,0.422991 -0.02379,0.424327 -0.02252,0.421668 -0.02379,0.407141 -0.02517,0.384661 -0.03034,0.393914 -0.02905,0.397894 -0.03174,0.380695 -0.03034,0.359538 -0.03705,0.364838 -0.03565,0.356912 -0.0344,0.326504 -0.03972,0.330466 -0.04098,0.319894 -0.04225,0.31328 -0.0449,0.310634 -0.04098,0.280239 -0.04629,0.271015 -0.04629,0.269657 -0.0449,0.233999 -0.04754,0.235295 -0.04895,0.237948 -0.04894,0.208889 -0.04754,0.196984 -0.04363,0.169223 -0.04225,0.153336 -0.0449,0.150685 -0.03972,0.119001 -0.04097,0.117614 -0.153331,0.420353 -0.163917,0.437539 -0.169193,0.437539 -0.175816,0.446796 -0.179775,0.446783 -0.181093,0.438872 -0.187705,0.446795 -0.191674,0.44547 -0.196951,0.44811 -0.199607,0.444141 -0.203573,0.445483 -0.208847,0.450756 -0.214147,0.452079 -0.214135,0.449428 -0.22076,0.450756 -0.22205,0.446795 -0.223416,0.44811 -0.231336,0.452082 -0.231331,0.450757 -0.233965,0.445469 -0.236622,0.44548 -0.239262,0.446784 -0.241893,0.446796 -0.245878,0.446781 -0.245864,0.442841 -0.244549,0.437523 -0.252476,0.441515 -0.256434,0.449439 -0.24719,0.430925 -0.256449,0.436212 -0.257764,0.438868 -0.255119,0.430922 -0.261726,0.432256 -0.260406,0.432257 -0.260407,0.429607 -0.261734,0.424312 -0.260407,0.424325 -0.260408,0.415066 -0.264376,0.421681 -0.26438,0.419029 -0.259078,0.40845 -0.263063,0.409783 -0.265691,0.41375 -0.260407,0.40317 -0.255121,0.391268 -0.26305,0.400526 -0.267021,0.407136 -0.25512,0.385994 -0.256434,0.385982 -0.256449,0.385978 -0.256435,0.380699 -0.257773,0.382022 -0.248503,0.368814 -0.25248,0.372767 -0.25115,0.368792 -0.24719,0.362192 -0.243222,0.358225 -0.244546,0.35294 -0.243223,0.354263 -0.237936,0.347654 -0.23528,0.33972 -0.233966,0.337082 -0.228679,0.331783 -0.228678,0.329147 -0.220761,0.318564 -0.222074,0.319895 -0.226047,0.326503 -0.214159,0.309312 -0.207534,0.29742 -0.208872,0.301399 -0.202222,0.292144 -0.20093,0.289492 -0.09118,0.13353 0.08322,0.174497 0.138811,0.280238 0.280236,0.561788 0.140125,0.267035 0.261724,0.498343 0.133524,0.248528 0.319894,0.577658 0.166557,0.292144 0.264378,0.460011 0.269663,0.450765 0.187703,0.31064 0.244546,0.395236 0.281552,0.444144 0.181078,0.27891 0.313295,0.47587 0.214137,0.315924 0.293465,0.428293 0.226023,0.319895 0.334436,0.466614 0.16127,0.218113 0.382025,0.512884 0.212818,0.276259 0.343691,0.440186 0.202247,0.255129 0.374093,0.461325 0.245866,0.294767 0.36088,0.428296 0.163902,0.189026 0.477196,0.544616 0.03972,0.04365 0.08992,0.09649 0.474541,0.520812 0.190359,0.200932 0.512884,0.540654 c 0.803698,0.827476 1.640446,1.627197 2.511553,2.399173 1.62457,-1.891591 6.527394,-7.742194 11.59015101,-15.111611 z"
         style="fill:#00adef;fill-opacity:1;fill-rule:evenodd;stroke:none;stroke-width:1.47644675"
         id="path34"
         inkscape:connector-curvature="0" />
      <path
         d="m 56.123984,18.639774 -0.216788,-0.277586 -0.352936,-0.43358 -0.284218,-0.34501 -0.26173,-0.307993 -0.326493,-0.379388 -0.270993,-0.309308 -0.346323,-0.388638 -0.268335,-0.290806 -0.356906,-0.384667 -0.245866,-0.260406 -0.384665,-0.397883 -0.364838,-0.367481 -0.218108,-0.216789 -0.425638,-0.413741 -0.302709,-0.288164 -0.383351,-0.356909 -0.239251,-0.222077 -0.41771,-0.372767 -0.339719,-0.30138 L 49.745954,12.007952 49.463076,11.766046 49.010992,11.394609 48.704325,11.144772 48.343446,10.859251 47.961436,10.5605 47.678558,10.346366 47.188142,9.9762423 46.915837,9.7779437 46.467713,9.4554065 45.960128,9.1011405 45.699722,8.9240097 44.935672,8.4150976 44.380489,8.0595166 44.077782,7.8678426 43.297875,7.3946166 42.917179,7.1738554 42.42148,6.8870193 41.603247,6.4349366 40.737411,5.9775674 C 40.445289,5.8281844 40.153155,5.6827895 39.861019,5.5400281 L 39.012383,5.1355323 38.98064,5.1197372 38.741396,5.012624 38.093683,4.7218179 37.256947,4.3635938 36.769176,4.1666314 36.339567,3.9947869 36.310333,3.9833001 36.09222,3.9013484 35.448474,3.6567993 35.414087,3.6434228 35.062454,3.5178372 34.581296,3.34731 34.088246,3.1820699 33.687719,3.0485702 33.23828,2.9071277 32.759768,2.7590841 32.461022,2.6732101 31.855607,2.4973959 31.453753,2.3890142 30.977886,2.2634331 30.57339,2.1603595 30.056547,2.0347784 29.683783,1.9501704 29.115368,1.823275 28.821897,1.7638333 28.25217,1.6474849 27.823886,1.5668015 27.313644,1.4756163 26.947493,1.413519 26.43195,1.33018 26.008956,1.2693487 25.476242,1.1953631 25.136519,1.1517313 24.595877,1.0869785 24.164955,1.0406911 23.686437,0.99313768 23.226427,0.95343042 22.795485,0.91903068 22.373822,0.89120853 21.790872,0.85554347 21.48817,0.84095617 21.141835,0.8278158 c 0,0 4.693959,11.2398662 2.987427,26.4664782 -1.077323,9.607341 -4.142743,18.934464 -4.142743,18.934464 0,0 5.834732,-7.902144 13.030996,-14.367404 11.414347,-10.256388 23.2715,-13.012484 23.2715,-13.012484 l -0.165242,-0.208864 z"
         style="fill:#00adef;fill-opacity:1;fill-rule:evenodd;stroke:none;stroke-width:1.47644675"
         id="path36"
         inkscape:connector-curvature="0" />
      <path
         d="m 14.432221,75.071695 c 3.719749,-10.272242 9.198901,-18.18363 9.198901,-18.18363 l 0.05817,-0.112432 0.06083,-0.108371 0.08068,-0.134829 0.08196,-0.136158 0.09385,-0.1467 0.111044,-0.170517 0.121689,-0.17715 0.137486,-0.196983 0.140129,-0.196984 0.14143,-0.191679 0.166538,-0.219409 0.166539,-0.216789 0.175824,-0.222061 0.196954,-0.244549 0.200931,-0.24452 0.206178,-0.248527 0.214134,-0.253803 0.214166,-0.248528 0.236621,-0.268332 0.241896,-0.276259 0.241897,-0.267035 0.256425,-0.282892 0.27231,-0.29347 0.267006,-0.290819 0.264353,-0.281564 0.280238,-0.294767 0.293441,-0.305353 0.294767,-0.304033 0.29742,-0.30271 0.307994,-0.311964 0.311963,-0.313277 0.31592,-0.315923 0.321209,-0.318578 0.331798,-0.325182 0.33575,-0.329138 0.329147,-0.31725 0.342369,-0.329148 0.345009,-0.331795 0.351607,-0.33178 0.356912,-0.338396 0.354264,-0.331794 0.360866,-0.337079 0.372765,-0.346325 0.366155,-0.338408 0.370121,-0.338393 0.379381,-0.34765 0.378054,-0.345009 0.382025,-0.34501 0.380695,-0.346322 0.384665,-0.343695 0.392593,-0.350293 0.387316,-0.343683 0.793119,-0.70323 0.392591,-0.345009 0.396558,-0.34765 0.403177,-0.351626 0.400523,-0.34898 0.396555,-0.343679 0.405824,-0.34897 0.411098,-0.355592 0.396565,-0.342363 0.40581,-0.346325 0.407138,-0.347651 0.399198,-0.339724 0.408464,-0.345006 0.405814,-0.34501 0.403167,-0.341038 0.404499,-0.338396 0.403163,-0.338405 0.40978,-0.343679 0.399198,-0.334439 0.79842,-0.664903 0.400524,-0.330464 0.399197,-0.331797 0.393925,-0.323848 0.395239,-0.325181 0.392593,-0.322538 0.388625,-0.319891 0.385997,-0.315925 0.38201,-0.311962 0.389952,-0.315925 0.383351,-0.313289 0.371441,-0.30271 0.376735,-0.304022 0.368798,-0.300071 0.372765,-0.298746 0.37145,-0.300073 0.354254,-0.28684 0.352936,-0.28289 0.360879,-0.288165 0.34897,-0.281535 0.343692,-0.273636 0.341037,-0.273637 0.342368,-0.269659 0.334435,-0.268332 0.319894,-0.255128 0.327824,-0.259108 0.32518,-0.257752 0.305347,-0.241897 0.306667,-0.241897 0.309319,-0.243222 0.294768,-0.233968 0.294767,-0.231316 0.278911,-0.222064 0.274964,-0.214133 0.284217,-0.222064 0.268332,-0.211481 0.255129,-0.199607 0.25118,-0.196953 0.249824,-0.194302 0.243222,-0.190352 0.235296,-0.18372 0.22339,-0.174497 0.02653,-0.0199 0.186373,0.326509 0.130857,0.232642 0.314608,0.567083 0.154662,0.289493 0.294767,0.556514 0.119001,0.233969 0.304022,0.606743 0.124316,0.25513 0.255128,0.534041 0.194332,0.420353 0.194301,0.428282 0.179801,0.411098 0.206208,0.477198 0.01477,0.03438 0.08853,0.215462 0.255128,0.626556 0.0012,0.0012 c 0.112431,0.281564 0.220736,0.564446 0.327821,0.848638 l 0.311963,0.85658 0.159969,0.46661 0.134829,0.393925 0.01748,0.05426 0.116344,0.363511 0.170518,0.532712 0.114971,0.384665 0.154663,0.520815 0.132172,0.478511 0.107101,0.389952 0.124303,0.478515 0.126871,0.51157 0.09119,0.379378 0.108356,0.478514 0.111044,0.506271 0.08461,0.404493 0.103086,0.532714 0.06349,0.334435 0.116359,0.655647 0.0099,0.06083 0.01748,0.1137 0.114972,0.719091 0.04893,0.354266 0.06879,0.49834 0.06209,0.502312 0.05553,0.490413 0.0052,0.03565 c 0.03301,0.302722 0.0621,0.605429 0.08992,0.909452 l 0.03035,0.401853 0.03971,0.485124 -0.592195,0.374079 -0.438857,0.281566 -0.450767,0.286869 -0.442827,0.285513 -0.445469,0.284187 -0.44414,0.285544 -0.446798,0.289491 -0.449437,0.289492 -0.437539,0.285514 -0.449426,0.292144 -0.446796,0.290818 -0.437538,0.289492 -0.454726,0.298746 -0.446797,0.294768 -0.437532,0.289491 -0.441505,0.294767 -0.444155,0.297419 -0.438853,0.293471 -0.433568,0.290818 -0.877724,0.594831 -0.426971,0.292145 -0.434894,0.297418 -0.425637,0.290819 -0.422998,0.293471 -0.423,0.293471 -0.420351,0.293471 -0.420368,0.294767 -0.409764,0.288165 -0.407139,0.289493 -0.41507,0.296092 -0.400526,0.28684 -0.392593,0.284188 -0.39921,0.288166 -0.391268,0.285512 -0.385995,0.284218 -0.382013,0.281564 -0.364835,0.27231 -0.37541,0.284218 -0.37145,0.280238 -0.359554,0.273636 -0.354253,0.27231 -0.348976,0.269659 -0.346323,0.271013 -0.334439,0.260406 -0.330466,0.265679 -0.330467,0.264383 -0.315932,0.256425 -0.298748,0.244549 -0.302708,0.253803 -0.306678,0.25513 -0.289491,0.247201 -0.276291,0.235324 -0.274963,0.241897 -0.26833,0.236622 -0.245877,0.218113 -0.245875,0.224716 -0.235293,0.21941 -0.231317,0.216818 -0.226043,0.216787 -0.203554,0.196983 -0.193005,0.195656 -0.193003,0.195658 -0.163919,0.171845 -0.163885,0.175822 -0.163917,0.178447 -0.142758,0.161295 -0.132172,0.153336 -0.111043,0.13353 -0.10043,0.124302 -0.09649,0.124317 -0.07397,0.100429 -0.07132,0.103086 -0.252476,0.370122 -0.260405,0.387309 -0.257781,0.392596 -0.260404,0.401855 -0.257903,0.407132 -0.252476,0.403168 -0.253833,0.413737 -0.249824,0.415068 -0.248498,0.420354 -0.245875,0.420354 -0.244519,0.424325 -0.244549,0.433569 -0.241895,0.437537 -0.240571,0.434899 -0.239244,0.441511 -0.232642,0.440179 -0.23397,0.444144 -0.232643,0.450768 -0.232642,0.450753 -0.22604,0.449439 -0.224716,0.45207 -0.223389,0.454727 -0.222062,0.456041 -0.220736,0.460013 -0.216789,0.457364 -0.212838,0.454726 -0.211511,0.461343 -0.216789,0.47058 -0.206177,0.4534 -0.206207,0.461324 -0.206177,0.463983 -0.200902,0.460011 -0.199576,0.46397 -0.199636,0.46398 -0.196983,0.46133 -0.193006,0.46001 -0.193004,0.458696 -0.1877,0.453401 -0.187699,0.460011 -0.186374,0.458682 -0.181128,0.44944 -0.179772,0.452082 -0.182394,0.457366 -0.175824,0.446788 -0.169222,0.43358 -0.171845,0.44811 -0.175822,0.454726 -0.165244,0.430929 -0.165243,0.434892 -0.163916,0.432255 -0.161265,0.430924 -0.159969,0.43093 -0.154662,0.417707 -0.15599,0.421684 -0.153366,0.419021 -0.150685,0.411112 -0.149388,0.407136 -0.145415,0.40317 -0.146729,0.404497 -0.144057,0.39655 -0.138801,0.388628 -0.137487,0.387306 -0.136157,0.378056 -0.134829,0.378066 -0.129558,0.364837 -0.132172,0.366151 -0.132172,0.37541 -0.126871,0.352938 -0.12166,0.342366 -0.122928,0.345008 -0.120271,0.33575 -0.119002,0.331798 -0.05414,0.150684 -0.191678,0.03438 -0.307994,0.0516 -0.619958,0.09776 -0.298745,0.04238 -0.55783,0.07804 -0.280239,0.03565 -0.655646,0.07539 -0.334422,0.03565 -0.527429,0.05284 -0.523466,0.04226 -0.362184,0.02923 -0.462654,0.03036 -0.526111,0.03035 -0.331782,0.01476 -0.568413,0.02351 -0.383339,0.0087 -0.518171,0.0099 -0.392596,0.004 -0.57237,-0.0012 -0.272311,-0.004 -0.639787,-0.01152 -0.34765,-0.01152 -0.559144,-0.02351 -0.323864,-0.01598 -0.592202,-0.03565 -0.384652,-0.02804 -0.557827,-0.04492 -0.248529,-0.0211 -0.721732,-0.0727 -0.05817,-0.0063 -0.130887,-0.01598 -0.69926,-0.08335 -0.274963,-0.03704 -0.737602,-0.10183 c -1.140771,-0.171844 -2.278914,-0.387312 -3.413072,-0.64639 0.592201,-2.421674 2.49305,-9.813558 5.535983,-18.220654 z"
         style="fill:#00adef;fill-opacity:1;fill-rule:evenodd;stroke:none;stroke-width:1.47644675"
         id="path38"
         inkscape:connector-curvature="0" />
      <text
         id="text826"
         y="82.707481"
         x="68.528946"
         style="font-style:normal;font-variant:normal;font-weight:normal;font-stretch:normal;font-size:104.84584045px;line-height:1.25;font-family:Roboto;-inkscape-font-specification:Roboto;letter-spacing:0px;word-spacing:0px;fill:#4d4d4d;fill-opacity:1;stroke:none;stroke-width:3.5742898"
         xml:space="preserve"><tspan
           style="font-style:normal;font-variant:normal;font-weight:normal;font-stretch:normal;font-family:'Times New Roman';-inkscape-font-specification:'Times New Roman, ';fill:#4d4d4d;stroke-width:3.5742898"
           y="82.707481"
           x="68.528946"
           id="tspan824"
           sodipodi:role="line">Horsgle</tspan></text>
      <text
         xml:space="preserve"
         style="font-style:normal;font-variant:normal;font-weight:normal;font-stretch:normal;font-size:29.26911163px;line-height:1.25;font-family:Roboto;-inkscape-font-specification:Roboto;letter-spacing:0px;word-spacing:0px;fill:#4d4d4d;fill-opacity:1;stroke:none;stroke-width:0.9978106"
         x="131.01688"
         y="127.9595"
         id="text830"><tspan
           sodipodi:role="line"
           id="tspan828"
           x="131.01688"
           y="127.9595"
           style="font-style:normal;font-variant:normal;font-weight:500;font-stretch:normal;font-family:Roboto;-inkscape-font-specification:'Roboto Medium';fill:#cccccc;stroke-width:0.9978106">gerando tecnologias</tspan></text>
    </g>
  </g>
</svg>
