<?xml version="1.0" encoding="UTF-8" standalone="no"?>
<!-- Created with Inkscape (http://www.inkscape.org/) -->

<svg
   xmlns:dc="http://purl.org/dc/elements/1.1/"
   xmlns:cc="http://creativecommons.org/ns#"
   xmlns:rdf="http://www.w3.org/1999/02/22-rdf-syntax-ns#"
   xmlns:svg="http://www.w3.org/2000/svg"
   xmlns="http://www.w3.org/2000/svg"
   xmlns:sodipodi="http://sodipodi.sourceforge.net/DTD/sodipodi-0.dtd"
   xmlns:inkscape="http://www.inkscape.org/namespaces/inkscape"
   width="110.09856"
   height="110.24459"
   id="svg3756"
   version="1.1"
   inkscape:version="0.92.1 r15371"
   viewBox="0 0 110.09856 110.24459"
   inkscape:export-filename="/home/william/LogoHorsgle.png"
   inkscape:export-xdpi="90"
   inkscape:export-ydpi="90"
   sodipodi:docname="horsgle3.svg">
  <defs
     id="defs3758" />
  <sodipodi:namedview
     id="base"
     pagecolor="#ffffff"
     bordercolor="#666666"
     borderopacity="1.0"
     inkscape:pageopacity="0.0"
     inkscape:pageshadow="2"
     inkscape:zoom="3.8890873"
     inkscape:cx="114.773"
     inkscape:cy="44.49457"
     inkscape:current-layer="layer1"
     showgrid="true"
     inkscape:document-units="ft"
     inkscape:grid-bbox="true"
     inkscape:window-width="1920"
     inkscape:window-height="1003"
     inkscape:window-x="-9"
     inkscape:window-y="-9"
     inkscape:window-maximized="1"
     fit-margin-top="0"
     fit-margin-left="0"
     fit-margin-right="0"
     fit-margin-bottom="0" />
  <metadata
     id="metadata3761">
    <rdf:RDF>
      <cc:Work
         rdf:about="">
        <dc:format>image/svg+xml</dc:format>
        <dc:type
           rdf:resource="http://purl.org/dc/dcmitype/StillImage" />
        <dc:title></dc:title>
      </cc:Work>
    </rdf:RDF>
  </metadata>
  <g
     id="layer1"
     inkscape:label="Layer 1"
     inkscape:groupmode="layer"
     transform="translate(-16.587047,58.9405)">
    <path
       d="m 96.9342,-52.8773 c -0.3439,-0.1758 -0.6877,-0.347 -1.0316,-0.515 l -0.9989,-0.4762 -0.037,-0.018 -0.2817,-0.1261 -0.7624,-0.3423 -0.9849,-0.4217 -0.5741,-0.2318 -0.5057,-0.2023 -0.034,-0.014 -0.2567,-0.097 -0.7578,-0.2878 -0.041,-0.016 -0.4138,-0.1478 -0.5664,-0.2007 -0.5804,-0.1945 -0.4714,-0.1572 -0.529,-0.1664 -0.5633,-0.1743 -0.3516,-0.1011 -0.7126,-0.2069 -0.473,-0.1276 -0.5602,-0.1478 -0.4761,-0.1213 -0.6084,-0.1479 -0.4387,-0.1 -0.6691,-0.1493 -0.3454,-0.07 -0.6706,-0.1369 -0.5042,-0.095 -0.6006,-0.1073 -0.4309,-0.073 -0.6069,-0.098 -0.4979,-0.072 -0.627,-0.087 -0.3999,-0.051 -0.6364,-0.076 -0.5072,-0.055 -0.5632,-0.056 -0.5415,-0.047 -0.5073,-0.041 -0.4963,-0.033 -0.6862,-0.042 -0.3563,-0.017 -0.4076,-0.015 -0.022,0.5461 c -0.5177,12.8567 -2.3225,50.1463 -7.4291,60.084 -8.5717,16.6812 -25.5656,32.6949 -29.0525,37.5883 2.8054,2.2312 5.8706,4.2197 9.1785,5.9204 3.3188,1.7037 6.7294,3.0403 10.1867,4.0221 2.3635,-6.337 8.5265,-35.615 13.6113,-45.5139 C 76.06,-7.42 104.753,-29.7881 114.7934,-37.3904 l 0.4466,-0.3377 -0.1945,-0.2458 -0.2552,-0.3267 -0.4154,-0.5104 -0.3346,-0.4061 -0.308,-0.3625 -0.3843,-0.4466 -0.3191,-0.3641 -0.4076,-0.4574 -0.3158,-0.3423 -0.4201,-0.4528 -0.2894,-0.3065 -0.4528,-0.4684 -0.4295,-0.4325 -0.2567,-0.2552 -0.501,-0.487 -0.3563,-0.3392 -0.4512,-0.4201 -0.2816,-0.2614 -0.4917,-0.4388 -0.3999,-0.3547 -0.4372,-0.3734 -0.333,-0.2848 -0.5321,-0.4372 -0.361,-0.2941 -0.4248,-0.336 -0.4496,-0.3517 -0.333,-0.252 -0.5773,-0.4357 -0.3205,-0.2334 -0.5274,-0.3797 -0.5975,-0.417 -0.3065,-0.2085 -0.8994,-0.599 -0.6535,-0.4185 -0.3563,-0.2256 -0.918,-0.5571 -0.4481,-0.2598 -0.5835,-0.3376 -0.9631,-0.5322 -1.0191,-0.5383 z"
       style="fill:#808080;fill-opacity:1;fill-rule:evenodd;stroke:none"
       id="path4241"
       inkscape:connector-curvature="0" />
    <path
       d="M 56.7848,25.1778 37.3652,39.2793 c 2.8053,2.2312 5.8705,4.2197 9.1784,5.9203 3.3189,1.7037 6.7295,3.0403 10.1868,4.0221 l 0.055,-24.0439 z"
       style="fill:#ffffff;fill-opacity:1;fill-rule:evenodd;stroke:none"
       id="path4243"
       inkscape:connector-curvature="0" />
    <path
       d="m 42.7456,-50.741 c 0,0 14.5076,18.984 20.196,46.3233 5.9702,28.6931 0.9134,55.1331 0.9134,55.1331 l 0,0.026 c 5.7803,0.8356 11.5979,0.7298 17.2413,-0.2458 l -0.012,-0.048 c 0,0 6.4213,-29.2096 2.1332,-61.3225 -3.764,-28.184 -16.7125,-47.8541 -16.7125,-47.8541 -8.413,0.8106 -16.5583,3.546 -23.7592,7.9882 z"
       style="fill:#999999;fill-opacity:1;fill-rule:evenodd;stroke:none"
       id="path4245"
       inkscape:connector-curvature="0" />
    <path
       d="m 35.6583,-45.5426 c 0,0 10.3034,30.0591 35.4411,42.9485 25.1222,12.88 55.5625,3.7156 55.5625,3.7156 L 89.6571,48.3006 c 0,0 -5.7507,-27.7657 -25.2762,-37.8202 C 44.8212,0.4088 18.89,11.8574 18.89,11.8574 l 16.7683,-57.4 z"
       style="fill:#cccccc;fill-opacity:1;fill-rule:evenodd;stroke:none"
       id="path4247"
       inkscape:connector-curvature="0" />
    <path
       d="m 126.3134,1.3455 -0.5041,0.3299 -0.529,0.3439 -0.5088,0.3314 -0.4979,0.3283 -0.5353,0.3532 -0.5181,0.3407 -0.5026,0.333 -0.5041,0.3361 -0.5166,0.3455 -0.5134,0.3423 -0.4902,0.3314 -1.0082,0.68 -0.4854,0.3345 -0.5166,0.3532 -0.4793,0.3267 -0.4776,0.3314 -0.487,0.3377 -0.4777,0.3345 -0.4886,0.3423 -0.4636,0.3252 -0.4606,0.3283 -0.4808,0.3438 -0.4496,0.3206 -0.4404,0.319 -0.4621,0.3345 -0.4356,0.3174 -0.4404,0.3236 -0.4372,0.3237 -0.3874,0.2863 -0.4217,0.3205 -0.431,0.3267 -0.4014,0.305 -0.3937,0.3018 -0.3858,0.2988 -0.3937,0.3049 -0.3516,0.277 -0.3626,0.291 -0.3718,0.2971 -0.333,0.2708 -0.3081,0.252 -0.336,0.2832 -0.3377,0.28 -0.3096,0.2645 -0.2847,0.2427 -0.2816,0.2459 -0.2879,0.2536 -0.2396,0.2147 -0.2396,0.2179 -0.2334,0.2162 -0.2272,0.2147 -0.2319,0.2225 -0.1773,0.1727 -0.1665,0.1665 -0.1712,0.1743 -0.1167,0.1229 -0.1509,0.1619 -0.1338,0.1463 -0.087,0.098 -0.089,0.1027 -0.045,0.054 -0.037,0.045 -0.01,0.01 -0.01,0.01 -0.2536,0.3703 -0.2708,0.4045 -0.2692,0.4093 -0.2738,0.4232 -0.2723,0.4294 -0.2676,0.4294 -0.2692,0.4388 -0.2645,0.4372 -0.2676,0.4497 -0.2629,0.4528 -0.2599,0.4543 -0.2629,0.4637 -0.2661,0.4808 -0.2629,0.4776 -0.2553,0.4684 -0.2551,0.4839 -0.2568,0.487 -0.2567,0.4963 -0.2551,0.4964 -0.2443,0.4854 -0.249,0.4979 -0.2505,0.5104 -0.2443,0.5041 -0.2427,0.5072 -0.2427,0.5104 -0.2303,0.4901 -0.2396,0.5228 -0.249,0.5399 -0.224,0.4948 -0.2287,0.5134 -0.235,0.5275 -0.221,0.5041 -0.4543,1.0565 -0.2209,0.515 -0.2179,0.5181 -0.2163,0.5182 -0.2054,0.4994 -0.2146,0.5259 -0.2163,0.5306 -0.2038,0.5041 -0.2039,0.5088 -0.2085,0.5259 -0.1992,0.5073 -0.1883,0.4823 -0.1976,0.5135 -0.2038,0.5305 -0.1898,0.4902 -0.1899,0.5025 -0.1836,0.4855 -0.182,0.4839 -0.1868,0.5057 -0.1789,0.4808 -0.1774,0.4776 -0.1742,0.4824 -0.182,0.4916 -0.1666,0.459 -0.168,0.4622 -0.1774,0.4901 -0.1618,0.4481 -0.1572,0.4356 -0.078,0.221 c 12.9921,-4.464 24.3457,-13.7591 31.1203,-26.9442 3.3421,-6.5084 5.2668,-13.3701 5.8845,-20.2349 l -0.3485,0.2241 z"
       style="fill:#ffffff;fill-opacity:1;fill-rule:evenodd;stroke:none"
       id="path4249"
       inkscape:connector-curvature="0" />
    <path
       d="m 18.9787,11.7267 0.2645,-0.3812 0.2707,-0.3936 0.2941,-0.4295 0.2769,-0.4045 0.277,-0.403 0.2941,-0.4341 0.2894,-0.4217 0.2863,-0.4232 0.2863,-0.4263 0.3018,-0.4465 0.2879,-0.4295 0.2878,-0.431 0.2972,-0.4465 0.2894,-0.4404 0.3112,-0.4745 0.3034,-0.4606 0.2816,-0.4325 0.2972,-0.459 0.305,-0.4746 0.2956,-0.4621 0.291,-0.459 0.3049,-0.4855 0.3034,-0.4808 0.2863,-0.4574 0.2941,-0.4777 0.2956,-0.4792 0.2894,-0.4792 0.596,-0.9834 0.28,-0.4745 0.2925,-0.4979 0.2832,-0.4839 0.2723,-0.4715 0.2941,-0.5165 0.2847,-0.4995 0.2661,-0.4715 0.2723,-0.4947 0.2707,-0.4933 0.2676,-0.4917 0.2692,-0.501 0.2599,-0.4916 0.2521,-0.4808 0.2551,-0.4979 0.2552,-0.4979 0.2458,-0.4917 0.2443,-0.4901 0.2319,-0.4792 0.2365,-0.4933 0.2349,-0.4963 0.2241,-0.4824 0.2178,-0.4761 0.2147,-0.4777 0.2116,-0.4792 0.2008,-0.4699 0.1991,-0.4745 0.193,-0.4668 0.1914,-0.473 0.1836,-0.4684 0.1758,-0.4574 0.1712,-0.4559 0.154,-0.4216 0,-0.012 0,-0.01 0.016,-0.056 0.017,-0.068 0.033,-0.1307 0.03,-0.1292 0.04,-0.1945 0.045,-0.2162 0.031,-0.165 0.04,-0.2411 0.039,-0.2319 0.037,-0.2458 0.047,-0.319 0.042,-0.3097 0.039,-0.3158 0.037,-0.3206 0.036,-0.3205 0.039,-0.3827 0.036,-0.3704 0.031,-0.3734 0.036,-0.4045 0.031,-0.4388 0.033,-0.4372 0.027,-0.3983 0.026,-0.4295 0.025,-0.4745 0.025,-0.4637 0.02,-0.4466 0.02,-0.4978 0.017,-0.4871 0.017,-0.4963 0.014,-0.5041 0.014,-0.5415 0.014,-0.529 0.01,-0.4824 0.01,-0.543 0.01,-0.5461 0,-0.5384 0,-0.571 0,-0.543 0,-0.5539 0,-0.5897 0,-0.5664 -0.01,-0.565 0,-0.5991 -0.01,-0.5819 -0.01,-0.5928 -0.01,-0.5819 -0.014,-0.5804 -0.012,-0.624 -0.012,-0.5897 -0.033,-1.2151 -0.017,-0.5913 -0.02,-0.6162 -0.02,-0.6223 -0.022,-0.6053 -0.02,-0.6021 -0.025,-0.6208 -0.025,-0.6395 -0.023,-0.5975 -0.026,-0.6053 -0.028,-0.6301 -0.026,-0.6022 -0.014,-0.3189 c -5.1926,4.4886 -9.6286,10.0293 -12.9583,16.5082 -6.7558,13.1524 -7.7143,27.7548 -3.8105,40.8916 l 0.089,-0.1307 z"
       style="fill:#ffffff;fill-opacity:1;fill-rule:evenodd;stroke:none"
       id="path4251"
       inkscape:connector-curvature="0" />
    <path
       d="m 126.6806,-7.6182 c 0,0 -23.8821,-0.7375 -49.4212,10.557 -26.801,11.8547 -45.3525,31.3615 -45.3525,31.3615 l -0.022,0.016 c -4.0455,-4.212 -7.3472,-9.0042 -9.8398,-14.1591 l 0.047,-0.019 c 0,0 20.0077,-22.2281 48.6105,-37.442 25.1051,-13.3531 48.6355,-14.2788 48.6355,-14.2788 4.2399,7.3097 6.759,15.5251 7.3425,23.9645 z"
       style="fill:#b3b3b3;fill-opacity:1;fill-rule:evenodd;stroke:none"
       id="path4253"
       inkscape:connector-curvature="0" />
    <path
       d="m 48.7749,19.6153 c 7.2802,-10.599 11.0953,-21.265 11.0953,-21.265 l 0.067,-0.1323 0.062,-0.1322 0.075,-0.1696 0.075,-0.1727 0.075,-0.1898 0.087,-0.2241 0.087,-0.2365 0.093,-0.2676 0.092,-0.2676 0.087,-0.2676 0.095,-0.3097 0.095,-0.3081 0.09,-0.3205 0.1,-0.3563 0.098,-0.3594 0.095,-0.3672 0.095,-0.3797 0.092,-0.3765 0.095,-0.4092 0.098,-0.4217 0.09,-0.4139 0.095,-0.4403 0.095,-0.4605 0.095,-0.4544 0.089,-0.4465 0.089,-0.4699 0.092,-0.4901 0.089,-0.4917 0.087,-0.4901 0.087,-0.5104 0.086,-0.5119 0.085,-0.5197 0.084,-0.5243 0.084,-0.5415 0.085,-0.5477 0.078,-0.5321 0.079,-0.5524 0.081,-0.5586 0.078,-0.5632 0.078,-0.5741 0.076,-0.5664 0.073,-0.5757 0.076,-0.5944 0.075,-0.5819 0.07,-0.5866 0.072,-0.6006 0.072,-0.5974 0.068,-0.6022 0.07,-0.6037 0.064,-0.6021 0.067,-0.6177 0.065,-0.6053 0.1275,-1.2401 0.061,-0.613 0.061,-0.6177 0.061,-0.6255 0.059,-0.6224 0.058,-0.6161 0.057,-0.6271 0.058,-0.6364 0.055,-0.6161 0.055,-0.6239 0.053,-0.6286 0.051,-0.6146 0.051,-0.6271 0.051,-0.6255 0.05,-0.6192 0.047,-0.6193 0.048,-0.6177 0.048,-0.6286 0.045,-0.6115 0.089,-1.2183 0.042,-0.6099 0.044,-0.6099 0.04,-0.5991 0.04,-0.6006 0.041,-0.5974 0.039,-0.5897 0.037,-0.5866 0.036,-0.5804 0.036,-0.5897 0.037,-0.5803 0.034,-0.5633 0.034,-0.5695 0.033,-0.5586 0.031,-0.5601 0.033,-0.5617 0.031,-0.5368 0.03,-0.5306 0.03,-0.543 0.028,-0.5275 0.026,-0.5165 0.028,-0.5135 0.025,-0.5119 0.026,-0.5041 0.025,-0.4808 0.023,-0.4917 0.025,-0.487 0.022,-0.4574 0.022,-0.4606 0.021,-0.4636 0.022,-0.4419 0.019,-0.4404 0.022,-0.4185 0.016,-0.4092 0.019,-0.4248 0.017,-0.4014 0.019,-0.3812 0.016,-0.375 0.014,-0.3719 0.016,-0.3641 0.014,-0.3516 0.014,-0.333 0,-0.041 -0.4404,0.047 -0.3127,0.034 -0.7577,0.089 -0.3843,0.048 -0.7329,0.1011 -0.3065,0.047 -0.7889,0.123 -0.3283,0.058 -0.6877,0.1213 -0.5352,0.1027 -0.543,0.1073 -0.5166,0.109 -0.5959,0.1307 -0.044,0.01 -0.2677,0.064 -0.7748,0.1836 0,0 c -0.3472,0.086 -0.6926,0.1758 -1.0381,0.2691 l -1.0315,0.2879 -0.5571,0.1665 -0.4699,0.1416 -0.062,0.02 -0.4279,0.137 -0.627,0.2022 -0.4466,0.1541 -0.6037,0.21 -0.5492,0.2008 -0.4481,0.1649 -0.5431,0.2085 -0.5757,0.2287 -0.4247,0.1743 -0.5322,0.2225 -0.5617,0.2427 -0.445,0.1961 -0.5803,0.2661 -0.3625,0.1695 -0.708,0.3377 -0.065,0.031 -0.1199,0.061 -0.767,0.3844 -0.3719,0.196 -0.5244,0.2739 -0.5228,0.2863 -0.5103,0.2831 -0.036,0.019 c -0.3149,0.1759 -0.6246,0.3548 -0.9342,0.5384 l -0.4061,0.2459 -0.4917,0.2956 0.048,0.8215 0.031,0.6131 0.034,0.6286 0.033,0.6192 0.033,0.6208 0.031,0.6209 0.03,0.6255 0.03,0.6286 0.028,0.6145 0.028,0.6302 0.028,0.627 0.023,0.6178 0.025,0.6379 0.025,0.6301 0.022,0.6178 0.022,0.6254 0.02,0.6286 0.02,0.6209 0.017,0.6145 0.034,1.2464 0.012,0.6083 0.012,0.6208 0.013,0.6069 0.01,0.6068 0.01,0.6052 0.01,0.6037 0.01,0.6037 0,0.5897 0,0.5882 0,0.599 0,0.5819 0,0.5695 0,0.5788 0,0.571 -0.01,0.5633 -0.01,0.5586 -0.01,0.5368 -0.016,0.5539 -0.013,0.5477 -0.016,0.5306 -0.016,0.5259 -0.02,0.5196 -0.02,0.5166 -0.022,0.4979 -0.028,0.4995 -0.026,0.4963 -0.028,0.4792 -0.03,0.4528 -0.036,0.4637 -0.034,0.4683 -0.037,0.4481 -0.036,0.4232 -0.044,0.4295 -0.042,0.4201 -0.041,0.3843 -0.047,0.389 -0.048,0.3765 -0.05,0.3688 -0.053,0.3656 -0.048,0.3299 -0.055,0.319 -0.055,0.3174 -0.053,0.2754 -0.056,0.277 -0.058,0.2801 -0.058,0.2459 -0.056,0.2318 -0.051,0.1992 -0.05,0.1805 -0.053,0.1774 -0.047,0.14 -0.048,0.1385 -0.1805,0.4948 -0.193,0.515 -0.1991,0.515 -0.207,0.5259 -0.2116,0.5259 -0.2131,0.5166 -0.221,0.5259 -0.2256,0.5243 -0.2318,0.5275 -0.235,0.5228 -0.2396,0.5244 -0.2458,0.5305 -0.2521,0.5322 -0.252,0.529 -0.2599,0.5305 -0.2614,0.5259 -0.2629,0.5275 -0.2723,0.5321 -0.2723,0.5306 -0.2754,0.5244 -0.2785,0.5243 -0.2817,0.5259 -0.2847,0.5259 -0.2894,0.5259 -0.2894,0.5213 -0.2879,0.515 -0.2971,0.5197 -0.3019,0.529 -0.291,0.5072 -0.3018,0.5135 -0.3034,0.5166 -0.3003,0.5072 -0.3081,0.5088 -0.3065,0.5088 -0.3065,0.5057 -0.3081,0.4994 -0.3065,0.4995 -0.3065,0.4885 -0.3112,0.4964 -0.3112,0.4932 -0.305,0.4808 -0.3096,0.4823 -0.3128,0.487 -0.3065,0.4746 -0.3003,0.4606 -0.3096,0.4714 -0.3143,0.4792 -0.3003,0.4544 -0.3018,0.4543 -0.3019,0.4543 -0.3018,0.4481 -0.3035,0.4497 -0.2925,0.4341 -0.2971,0.4388 -0.2957,0.4341 -0.2909,0.4263 -0.2863,0.4217 -0.2879,0.4154 -0.2863,0.417 -0.28,0.4092 -0.277,0.3999 -0.2754,0.3968 -0.2691,0.3905 -0.2692,0.3874 -0.2599,0.375 -0.2614,0.3765 -0.266,0.3844 -0.2521,0.364 -0.2443,0.3501 -0.2459,0.3548 -0.238,0.3439 -0.2365,0.3407 -0.1073,0.1572 0.098,0.2054 0.1634,0.3298 0.3299,0.6613 0.1649,0.3143 0.3081,0.5866 0.1572,0.2926 0.3765,0.6799 0.196,0.3439 0.3112,0.5414 0.3175,0.5306 0.2209,0.3657 0.2878,0.4652 0.3314,0.5228 0.2132,0.3283 0.3688,0.5601 0.252,0.3719 0.3454,0.5041 0.2661,0.3766 0.3936,0.5492 0.1899,0.2567 0.4496,0.6037 0.2505,0.3252 0.4046,0.5181 0.2381,0.3003 0.4403,0.5431 0.2894,0.3469 0.4248,0.5041 0.1929,0.2225 0.5617,0.6411 0.047,0.051 0.1059,0.1135 0.5585,0.6131 0.2241,0.2365 0.6037,0.6364 c 0.946,0.974 1.9309,1.9153 2.9563,2.824 1.9122,-2.2266 7.6832,-9.1131 13.6424,-17.7875 z"
       style="fill:#ffffff;fill-opacity:1;fill-rule:evenodd;stroke:none"
       id="path4255"
       inkscape:connector-curvature="0" />
    <path
       d="m 115.0453,-37.973 -0.2552,-0.3267 -0.4154,-0.5104 -0.3346,-0.4061 -0.308,-0.3625 -0.3843,-0.4466 -0.319,-0.3641 -0.4077,-0.4574 -0.3158,-0.3423 -0.4201,-0.4528 -0.2894,-0.3065 -0.4528,-0.4683 -0.4294,-0.4326 -0.2568,-0.2552 -0.501,-0.487 -0.3563,-0.3392 -0.4512,-0.4201 -0.2816,-0.2614 -0.4917,-0.4387 -0.3999,-0.3548 -0.4372,-0.3734 -0.333,-0.2848 -0.5321,-0.4372 -0.361,-0.294 -0.4248,-0.3361 -0.4496,-0.3517 -0.333,-0.252 -0.5772,-0.4357 -0.3206,-0.2334 -0.5274,-0.3796 -0.5975,-0.417 -0.3065,-0.2085 -0.8994,-0.5991 -0.6535,-0.4185 -0.3563,-0.2256 -0.918,-0.557 -0.4481,-0.2599 -0.5834,-0.3376 -0.9632,-0.5322 -1.0191,-0.5383 c -0.3439,-0.1759 -0.6877,-0.347 -1.0316,-0.515 l -0.9989,-0.4762 -0.037,-0.018 -0.2816,-0.1261 -0.7624,-0.3423 -0.9849,-0.4217 -0.5741,-0.2318 -0.5057,-0.2023 -0.034,-0.014 -0.2567,-0.097 -0.7578,-0.2878 -0.041,-0.016 -0.4139,-0.1478 -0.5663,-0.2007 -0.5804,-0.1945 -0.4714,-0.1572 -0.529,-0.1664 -0.5633,-0.1743 -0.3516,-0.1011 -0.7126,-0.2069 -0.4731,-0.1276 -0.5601,-0.1478 -0.4761,-0.1214 -0.6084,-0.1478 -0.4387,-0.1 -0.6691,-0.1493 -0.3454,-0.07 -0.6707,-0.1369 -0.5041,-0.095 -0.6006,-0.1073 -0.431,-0.073 -0.6068,-0.098 -0.4979,-0.072 -0.627,-0.087 -0.3999,-0.051 -0.6364,-0.076 -0.5072,-0.055 -0.5633,-0.056 -0.5414,-0.047 -0.5073,-0.041 -0.4963,-0.033 -0.6862,-0.042 -0.3563,-0.017 -0.4076,-0.015 c 0,0 5.5251,13.2302 3.5164,31.153 -1.2681,11.3086 -4.8763,22.2873 -4.8763,22.2873 0,0 6.8679,-9.3014 15.3384,-16.9115 13.4355,-12.0725 27.3922,-15.3167 27.3922,-15.3167 l -0.1945,-0.2458 z"
       style="fill:#ffffff;fill-opacity:1;fill-rule:evenodd;stroke:none"
       id="path4257"
       inkscape:connector-curvature="0" />
    <path
       d="M 65.9711,28.4515 C 70.3495,16.3603 76.7988,7.048 76.7988,7.048 l 0.069,-0.1323 0.072,-0.1276 0.095,-0.1587 0.097,-0.1602 0.1104,-0.1727 0.1307,-0.2007 0.1433,-0.2085 0.1618,-0.2319 0.1649,-0.2319 0.1665,-0.2256 0.196,-0.2583 0.1961,-0.2551 0.2069,-0.2614 0.2318,-0.2879 0.2366,-0.2878 0.2426,-0.2925 0.2521,-0.2988 0.2521,-0.2925 0.2785,-0.3158 0.2847,-0.3252 0.2848,-0.3143 0.3018,-0.333 0.3205,-0.3455 0.3143,-0.3423 0.3112,-0.3314 0.3298,-0.347 0.3454,-0.3594 0.347,-0.3578 0.3501,-0.3564 0.3625,-0.3672 0.3672,-0.3687 0.3719,-0.3719 0.3781,-0.375 0.3905,-0.3827 0.3952,-0.3874 0.3874,-0.3735 0.403,-0.3874 0.4061,-0.3906 0.4139,-0.3905 0.4201,-0.3983 0.417,-0.3905 0.4248,-0.3968 0.4387,-0.4077 0.431,-0.3983 0.4357,-0.3983 0.4466,-0.4092 0.445,-0.4061 0.4496,-0.4061 0.4481,-0.4077 0.4528,-0.4045 0.4621,-0.4123 0.4559,-0.4046 0.9336,-0.8277 0.4621,-0.4061 0.4668,-0.4092 0.4745,-0.4139 0.4715,-0.4108 0.4668,-0.4045 0.4776,-0.4108 0.4839,-0.4186 0.4668,-0.4029 0.4777,-0.4077 0.4792,-0.4092 0.4699,-0.3999 0.4808,-0.4061 0.4777,-0.4061 0.4745,-0.4014 0.4761,-0.3983 0.4746,-0.3984 0.4823,-0.4045 0.4699,-0.3936 0.9398,-0.7827 0.4715,-0.389 0.4698,-0.3905 0.4637,-0.3812 0.4653,-0.3828 0.4621,-0.3796 0.4574,-0.3766 0.4544,-0.3718 0.4496,-0.3672 0.459,-0.3719 0.4512,-0.3688 0.4373,-0.3563 0.4434,-0.3578 0.4341,-0.3532 0.4388,-0.3517 0.4372,-0.3532 0.417,-0.3376 0.4154,-0.333 0.4248,-0.3392 0.4108,-0.3314 0.4045,-0.3221 0.4014,-0.3221 0.403,-0.3174 0.3937,-0.3158 0.3765,-0.3003 0.3859,-0.305 0.3827,-0.3034 0.3595,-0.2847 0.3609,-0.2848 0.3641,-0.2862 0.347,-0.2754 0.3469,-0.2723 0.3283,-0.2614 0.3237,-0.2521 0.3345,-0.2613 0.3159,-0.249 0.3003,-0.2349 0.2956,-0.2318 0.2941,-0.2288 0.2863,-0.224 0.277,-0.2163 0.2629,-0.2054 0.031,-0.023 0.2194,0.3843 0.154,0.2739 0.3704,0.6675 0.182,0.3407 0.347,0.6551 0.14,0.2754 0.3579,0.7142 0.1463,0.3003 0.3003,0.6286 0.2288,0.4948 0.2287,0.5041 0.2116,0.4839 0.2427,0.5617 0.017,0.04 0.1042,0.2537 0.3003,0.7375 0,0 c 0.1324,0.3314 0.2598,0.6644 0.3859,0.9989 l 0.3672,1.0083 0.1883,0.5492 0.1587,0.4637 0.021,0.064 0.1369,0.4278 0.2007,0.6271 0.1354,0.4528 0.182,0.613 0.1556,0.5632 0.126,0.459 0.1464,0.5633 0.1493,0.6021 0.1073,0.4466 0.1276,0.5632 0.1307,0.596 0.1,0.4761 0.1213,0.627 0.075,0.3937 0.137,0.7717 0.012,0.072 0.021,0.1339 0.1354,0.8464 0.057,0.417 0.081,0.5866 0.073,0.5912 0.065,0.5773 0.01,0.042 c 0.039,0.3564 0.073,0.7127 0.1058,1.0705 l 0.036,0.473 0.047,0.5711 -0.6971,0.4403 -0.5166,0.3314 -0.5306,0.3377 -0.5212,0.336 -0.5243,0.3346 -0.5228,0.3361 -0.5259,0.3407 -0.5291,0.3408 -0.515,0.336 -0.529,0.3439 -0.5259,0.3423 -0.515,0.3408 -0.5353,0.3516 -0.5259,0.347 -0.515,0.3407 -0.5197,0.347 -0.5228,0.3501 -0.5165,0.3454 -0.5104,0.3423 -1.0331,0.7002 -0.5026,0.3439 -0.5119,0.35 -0.501,0.3424 -0.4979,0.3454 -0.4979,0.3454 -0.4948,0.3455 -0.4948,0.3469 -0.4823,0.3392 -0.4792,0.3408 -0.4886,0.3485 -0.4715,0.3376 -0.4621,0.3345 -0.4699,0.3392 -0.4605,0.3361 -0.4544,0.3345 -0.4496,0.3315 -0.4295,0.3205 -0.4418,0.3345 -0.4373,0.3299 -0.4232,0.3221 -0.417,0.3205 -0.4107,0.3174 -0.4077,0.319 -0.3936,0.3066 -0.389,0.3127 -0.389,0.3112 -0.3719,0.3018 -0.3516,0.2879 -0.3563,0.2987 -0.361,0.3003 -0.3408,0.291 -0.3252,0.277 -0.3236,0.2847 -0.3159,0.2785 -0.2894,0.2568 -0.2894,0.2645 -0.277,0.2582 -0.2722,0.2552 -0.2661,0.2552 -0.2396,0.2319 -0.2272,0.2303 -0.2272,0.2303 -0.1929,0.2023 -0.1929,0.2069 -0.193,0.2101 -0.168,0.1898 -0.1556,0.1805 -0.1307,0.1572 -0.1182,0.1463 -0.1136,0.1463 -0.087,0.1182 -0.084,0.1214 -0.2972,0.4356 -0.3065,0.4559 -0.3034,0.4621 -0.3065,0.473 -0.3036,0.4793 -0.2972,0.4745 -0.2987,0.487 -0.2941,0.4886 -0.2925,0.4948 -0.2894,0.4948 -0.2878,0.4994 -0.2879,0.5104 -0.2847,0.515 -0.2832,0.5119 -0.2816,0.5197 -0.2738,0.5181 -0.2754,0.5228 -0.2739,0.5306 -0.2738,0.5305 -0.2661,0.5291 -0.2645,0.5321 -0.2629,0.5352 -0.2614,0.5368 -0.2598,0.5415 -0.2552,0.5383 -0.2505,0.5353 -0.249,0.543 -0.2552,0.5539 -0.2426,0.5337 -0.2428,0.543 -0.2427,0.5462 -0.2364,0.5414 -0.2349,0.5462 -0.235,0.5461 -0.2319,0.543 -0.2272,0.5415 -0.2272,0.5399 -0.2209,0.5337 -0.2209,0.5415 -0.2194,0.5399 -0.2132,0.529 -0.2116,0.5321 -0.2147,0.5384 -0.207,0.5259 -0.1991,0.5103 -0.2023,0.5275 -0.207,0.5352 -0.1945,0.5073 -0.1945,0.5119 -0.1929,0.5088 -0.1898,0.5072 -0.1883,0.5072 -0.1821,0.4917 -0.1836,0.4964 -0.1805,0.4932 -0.1774,0.4839 -0.1758,0.4792 -0.1712,0.4746 -0.1727,0.4761 -0.1696,0.4668 -0.1634,0.4574 -0.1618,0.4559 -0.1603,0.445 -0.1587,0.445 -0.1525,0.4294 -0.1555,0.431 -0.1556,0.4419 -0.1493,0.4154 -0.1432,0.403 -0.1447,0.4061 -0.1416,0.3952 -0.1401,0.3906 -0.064,0.1774 -0.2256,0.04 -0.3626,0.061 -0.7297,0.115 -0.3516,0.05 -0.6566,0.092 -0.3299,0.042 -0.7717,0.089 -0.3937,0.042 -0.6208,0.062 -0.6162,0.05 -0.4263,0.034 -0.5446,0.036 -0.6192,0.036 -0.3906,0.017 -0.669,0.028 -0.4512,0.01 -0.61,0.012 -0.4621,0 -0.6737,0 -0.3205,0 -0.7531,-0.014 -0.4092,-0.014 -0.6582,-0.028 -0.3812,-0.019 -0.6971,-0.042 -0.4527,-0.033 -0.6566,-0.053 -0.2926,-0.025 -0.8495,-0.086 -0.069,-0.01 -0.154,-0.019 -0.8231,-0.098 -0.3237,-0.044 -0.8682,-0.1198 c -1.3427,-0.2023 -2.6824,-0.4559 -4.0174,-0.7609 0.6971,-2.8505 2.9345,-11.5512 6.5163,-21.447 z"
       style="fill:#ffffff;fill-opacity:1;fill-rule:evenodd;stroke:none"
       id="path4259"
       inkscape:connector-curvature="0" />
  </g>
</svg>
