<?xml version="1.0" encoding="UTF-8" standalone="no"?>
<!-- Created with Inkscape (http://www.inkscape.org/) -->

<svg
   xmlns:dc="http://purl.org/dc/elements/1.1/"
   xmlns:cc="http://creativecommons.org/ns#"
   xmlns:rdf="http://www.w3.org/1999/02/22-rdf-syntax-ns#"
   xmlns:svg="http://www.w3.org/2000/svg"
   xmlns="http://www.w3.org/2000/svg"
   xmlns:sodipodi="http://sodipodi.sourceforge.net/DTD/sodipodi-0.dtd"
   xmlns:inkscape="http://www.inkscape.org/namespaces/inkscape"
   width="64"
   height="64"
   id="svg3756"
   version="1.1"
   inkscape:version="0.91 r13725"
   viewBox="0 0 64 64"
   inkscape:export-filename="/home/william/LogoHorsgle.png"
   inkscape:export-xdpi="90"
   inkscape:export-ydpi="90"
   sodipodi:docname="horsgle.svg">
  <defs
     id="defs3758" />
  <sodipodi:namedview
     id="base"
     pagecolor="#ffffff"
     bordercolor="#666666"
     borderopacity="1.0"
     inkscape:pageopacity="0.0"
     inkscape:pageshadow="2"
     inkscape:zoom="5.5"
     inkscape:cx="-7.4545455"
     inkscape:cy="32"
     inkscape:current-layer="layer1"
     showgrid="true"
     inkscape:document-units="px"
     inkscape:grid-bbox="true"
     inkscape:window-width="1920"
     inkscape:window-height="1020"
     inkscape:window-x="0"
     inkscape:window-y="31"
     inkscape:window-maximized="1" />
  <metadata
     id="metadata3761">
    <rdf:RDF>
      <cc:Work
         rdf:about="">
        <dc:format>image/svg+xml</dc:format>
        <dc:type
           rdf:resource="http://purl.org/dc/dcmitype/StillImage" />
        <dc:title></dc:title>
      </cc:Work>
    </rdf:RDF>
  </metadata>
  <g
     id="layer1"
     inkscape:label="Layer 1"
     inkscape:groupmode="layer">
    <path
       inkscape:connector-curvature="0"
       id="path16"
       style="fill:#004e75;fill-opacity:1;fill-rule:evenodd;stroke:none"
       d="M 46.713036,4.3157548 C 46.515166,4.2145781 46.317319,4.1161004 46.119455,4.0194087 L 45.544672,3.745443 45.523174,3.7347451 45.361134,3.6621975 44.922437,3.4652339 44.355713,3.2226082 44.025346,3.0892051 43.734372,2.9728146 43.714568,2.9650362 43.56684,2.9095297 43.130829,2.7438982 43.107535,2.7348336 42.869378,2.6497773 42.543491,2.5342789 42.209543,2.4223615 41.938268,2.3319419 41.633862,2.2361427 41.309766,2.1358725 41.107424,2.0777099 40.697375,1.9586286 40.425199,1.8852216 40.102893,1.8001656 39.828927,1.7303536 39.47887,1.6452976 l -0.252475,-0.057305 -0.384989,-0.085947 -0.198768,-0.04026 -0.385877,-0.078803 -0.290078,-0.054647 -0.345589,-0.06176 -0.247993,-0.042059 -0.349178,-0.056446 -0.286495,-0.041201 -0.360808,-0.050111 -0.230095,-0.029552 -0.366178,-0.043857 -0.291866,-0.031351 -0.324099,-0.032208 -0.311566,-0.026894 -0.291876,-0.023298 -0.285595,-0.018844 -0.39483,-0.024156 -0.205025,-0.00988 -0.234572,-0.0089 -0.01266,0.3142567 C 33.130404,8.5399653 32.091852,29.996835 29.153459,35.715146 24.221224,45.3137 14.442712,54.528178 12.436331,57.343909 c 1.614234,1.283868 3.377982,2.428072 5.281402,3.406633 1.90968,0.980361 3.872193,1.749428 5.861557,2.314369 1.35997,-3.646344 4.906278,-20.493293 7.832131,-26.189216 3.29021,-6.402325 19.800521,-19.273221 25.577924,-23.647676 L 57.246294,13.033741 57.134375,12.89228 56.987544,12.704271 56.748499,12.410604 56.555999,12.176928 56.378728,11.968324 56.157594,11.71137 55.974036,11.501873 55.739468,11.238648 55.557729,11.041682 55.316008,10.781147 55.149482,10.604773 54.888948,10.335287 54.641841,10.086391 54.494118,9.939559 54.205833,9.659333 54.000807,9.464157 53.741163,9.222423 53.57912,9.07201 53.296202,8.819535 53.066108,8.61541 52.814522,8.400536 52.62293,8.236692 52.316731,7.985116 52.109027,7.815902 51.864603,7.622518 51.605867,7.420175 51.414273,7.275141 51.082114,7.024455 50.897683,6.890147 50.594166,6.671693 50.250378,6.431747 50.073995,6.311776 49.556512,5.9670888 49.180485,5.7262531 48.975459,5.596432 48.447229,5.2759152 48.189383,5.1263939 47.853645,4.9321191 47.299446,4.6259228 46.713022,4.3161457 Z" />
    <path
       inkscape:connector-curvature="0"
       id="path18"
       style="fill:#00adef;fill-opacity:1;fill-rule:evenodd;stroke:none"
       d="M 23.610603,49.229605 12.436305,57.34375 c 1.614233,1.283867 3.37799,2.428071 5.281401,3.406631 1.909691,0.980362 3.872193,1.749429 5.861565,2.314369 l 0.03136,-13.835145 z" />
    <path
       inkscape:connector-curvature="0"
       id="path20"
       style="fill:#006e9e;fill-opacity:1;fill-rule:evenodd;stroke:none"
       d="m 15.532269,5.5450107 c 0,0 8.347821,10.9236133 11.621049,26.6550093 3.435285,16.510313 0.525552,31.724218 0.525552,31.724218 l 0,0.01511 c 3.32605,0.48078 6.673594,0.419898 9.920863,-0.141461 l -0.0067,-0.02777 c 0,0 3.694921,-16.807553 1.227468,-35.28574 C 36.65465,12.266997 29.203929,0.9485474 29.203929,0.9485474 24.363016,1.4150058 19.676095,2.9889506 15.532626,5.5450448 Z" />
    <path
       inkscape:connector-curvature="0"
       id="path22"
       style="fill:#007eb2;fill-opacity:1;fill-rule:evenodd;stroke:none"
       d="m 11.454162,8.536225 c 0,0 5.928707,17.29639 20.393247,24.71309 14.455578,7.411335 31.971314,2.137993 31.971314,2.137993 L 42.525699,62.534727 c 0,0 -3.30904,-15.976708 -14.544222,-21.762165 C 16.726604,34.97725 1.8054644,41.564901 1.8054644,41.564901 L 11.454162,8.536225 Z" />
    <path
       inkscape:connector-curvature="0"
       id="path24"
       style="fill:#00adef;fill-opacity:1;fill-rule:evenodd;stroke:none"
       d="m 63.618181,35.51623 -0.290078,0.189805 -0.304406,0.19787 -0.292767,0.190705 -0.286497,0.188907 -0.307987,0.203239 -0.298136,0.196074 -0.289178,0.191602 -0.290084,0.193399 -0.297236,0.198769 -0.295457,0.196971 -0.282016,0.190704 -0.580152,0.391249 -0.279337,0.19248 -0.297244,0.20324 -0.275757,0.188009 -0.274856,0.190704 -0.280225,0.194277 -0.274866,0.19248 -0.281126,0.196972 -0.266798,0.187111 -0.265014,0.188907 -0.276646,0.19787 -0.258746,0.184437 -0.253366,0.183558 -0.265906,0.19248 -0.250684,0.18264 -0.253374,0.186233 -0.251576,0.186233 -0.222935,0.164735 -0.242627,0.184437 -0.247995,0.188009 -0.230995,0.175474 -0.226511,0.173677 -0.222036,0.171901 -0.226506,0.175474 -0.202341,0.159366 -0.208604,0.16743 -0.213974,0.171003 -0.191603,0.155773 -0.17727,0.145034 -0.193379,0.162938 -0.194277,0.161142 -0.178169,0.1522 -0.163836,0.139644 -0.162041,0.141461 -0.165633,0.145953 -0.137889,0.123536 -0.137868,0.125353 -0.134295,0.124434 -0.130722,0.123536 -0.133417,0.128048 -0.102059,0.09936 -0.09579,0.09581 -0.09849,0.100262 -0.06717,0.07076 -0.08683,0.09312 -0.07701,0.0842 -0.0501,0.05637 -0.05106,0.0591 -0.02595,0.03136 -0.0215,0.02595 -0.0035,0.0051 -0.0035,0.0043 -0.145953,0.213074 -0.155793,0.232785 -0.154894,0.235466 -0.15757,0.243524 -0.156691,0.247097 -0.153976,0.247104 -0.154895,0.252477 -0.152179,0.251584 -0.153997,0.258743 -0.151301,0.260529 -0.149505,0.261434 -0.151322,0.266796 -0.153098,0.276657 -0.151302,0.274854 -0.146851,0.269486 -0.14683,0.278437 -0.147729,0.280238 -0.147708,0.285595 -0.146831,0.285607 -0.140563,0.279335 -0.143258,0.286497 -0.144156,0.293655 -0.140562,0.290084 -0.139665,0.291869 -0.139644,0.293657 -0.132519,0.282024 -0.137889,0.300818 -0.143237,0.310676 -0.128926,0.284705 -0.1316,0.295447 -0.135214,0.303507 -0.127129,0.290085 -0.261425,0.607905 -0.127129,0.296348 -0.125353,0.298134 -0.124455,0.298136 -0.118187,0.287397 -0.123536,0.302614 -0.124434,0.305298 -0.117289,0.290076 -0.117289,0.292769 -0.119984,0.302615 -0.114614,0.291866 -0.108347,0.277545 -0.113695,0.295448 -0.117289,0.305296 -0.109245,0.282026 -0.109225,0.289186 -0.105652,0.279335 -0.104753,0.278439 -0.107449,0.290974 -0.102957,0.276647 -0.102058,0.274856 -0.100262,0.277546 -0.104754,0.282917 -0.09581,0.264115 -0.09671,0.265905 -0.102058,0.282027 -0.09312,0.257845 -0.09042,0.250684 -0.04479,0.127129 c 7.475794,-2.568623 14.008827,-7.917168 17.906989,-15.503981 1.923112,-3.74506 3.030605,-7.693353 3.386034,-11.64343 l -0.200545,0.128925 z" />
    <path
       inkscape:connector-curvature="0"
       id="path26"
       style="fill:#00adef;fill-opacity:1;fill-rule:evenodd;stroke:none"
       d="M 1.8564968,41.4897 2.0086926,41.270354 2.1644836,41.043841 2.333698,40.796732 2.4930536,40.563959 2.6524255,40.332074 2.8216399,40.082279 2.9881737,39.839653 3.1529069,39.596129 3.317642,39.350815 3.4913336,39.093868 3.6569589,38.846763 3.8225924,38.598758 3.9935952,38.341812 4.160129,38.088436 4.3391818,37.81537 4.5137656,37.550357 4.6758161,37.301468 4.8468209,37.037352 5.0222948,36.764279 5.1924075,36.498373 5.3598294,36.234266 5.5353033,35.954931 5.7098871,35.678276 5.8746284,35.415059 6.0438428,35.140203 6.2139473,34.864447 6.3804709,34.58869 6.7233777,34.022858 6.884532,33.749792 l 0.168314,-0.286495 0.1629447,-0.278445 0.1566812,-0.271277 0.1692144,-0.297236 0.163845,-0.287395 0.1531023,-0.271275 0.1566668,-0.284709 0.155791,-0.283814 0.1539948,-0.282916 0.154901,-0.288286 0.149521,-0.282916 0.14505,-0.276647 0.146816,-0.286497 0.146833,-0.286503 0.141453,-0.282916 0.140563,-0.282018 0.133401,-0.275756 0.136089,-0.283805 0.135184,-0.285609 0.12893,-0.277544 0.1253508,-0.273966 0.12355,-0.274854 0.121768,-0.275757 0.115498,-0.270379 0.114609,-0.273065 0.111027,-0.268595 0.110121,-0.272175 0.105648,-0.269487 0.101176,-0.263217 0.09849,-0.262322 0.08864,-0.242628 0.0026,-0.0067 8.32e-4,-0.0041 0.0091,-0.03222 0.0099,-0.0394 0.01882,-0.07521 0.01705,-0.07433 0.0233,-0.111919 0.02595,-0.124435 0.01791,-0.09491 0.0233,-0.138766 0.02236,-0.133417 0.0215,-0.141461 0.02689,-0.183559 0.02416,-0.178169 0.02236,-0.181741 0.0215,-0.184437 0.02056,-0.184436 0.02236,-0.220246 0.02056,-0.213084 0.01791,-0.214874 0.02056,-0.232777 0.0179,-0.252476 0.01882,-0.251584 0.01523,-0.229194 0.01523,-0.247105 0.01425,-0.273068 0.01425,-0.266804 0.01166,-0.256947 0.01166,-0.286495 0.0099,-0.280238 0.0099,-0.285595 0.0078,-0.290086 0.0078,-0.311557 0.0078,-0.304408 0.0052,-0.277545 0.0042,-0.312466 0.0034,-0.314246 0.0026,-0.309778 0.0018,-0.328576 0.0018,-0.312457 -8.55e-4,-0.318728 -8.31e-4,-0.339327 0,-0.325888 -0.0034,-0.325117 -0.0026,-0.344699 -0.0042,-0.334837 -0.0052,-0.341116 -0.0042,-0.334838 -0.0078,-0.333947 -0.0067,-0.359055 -0.0068,-0.339327 -0.01882,-0.699225 -0.0099,-0.340218 -0.01166,-0.354547 -0.01166,-0.358117 -0.01247,-0.348277 -0.01166,-0.346479 -0.01425,-0.357227 -0.01425,-0.367967 -0.01345,-0.343799 -0.01523,-0.348276 -0.01605,-0.362598 -0.01523,-0.346478 -0.0078,-0.183542 C 8.4674852,11.11968 5.9149698,14.307859 3.9990185,18.035909 0.11160518,25.603919 -0.43990482,34.006352 1.8064137,41.565402 l 0.05105,-0.07521 z" />
    <path
       inkscape:connector-curvature="0"
       id="path28"
       style="fill:#008dc6;fill-opacity:1;fill-rule:evenodd;stroke:none"
       d="m 63.829474,30.358381 c 0,0 -13.742035,-0.424377 -28.437558,6.074639 C 19.970293,43.254346 9.2955772,54.478777 9.2955772,54.478777 l -0.01247,0.009 C 6.9553111,52.064163 5.0554703,49.306624 3.6211902,46.340482 l 0.026894,-0.01082 c 0,0 11.5127248,-12.790316 27.9711088,-21.544603 14.445737,-7.683504 27.985427,-8.216214 27.985427,-8.216214 2.439704,4.206139 3.889204,8.93335 4.224942,13.789485 z" />
    <path
       inkscape:connector-curvature="0"
       id="path30"
       style="fill:#008dc6;fill-opacity:1;fill-rule:evenodd;stroke:none"
       d="m 51.006028,42.187143 c -8.861727,10.71769 -13.413455,21.583104 -13.413455,21.583104 -3.24458,0.565833 -6.589441,0.630294 -9.913703,0.153997 l 0.01,-0.03222 0.04924,-0.171901 0.04745,-0.168329 0.04659,-0.171003 0.04924,-0.184436 0.04659,-0.179945 0.04745,-0.184436 0.04565,-0.189806 0.04745,-0.193379 0.04839,-0.199666 0.04565,-0.199647 0.04745,-0.201442 0.04924,-0.215767 0.04745,-0.212184 0.04745,-0.208604 0.0501,-0.226514 0.0501,-0.225617 0.05106,-0.235466 0.05106,-0.232783 0.05192,-0.234565 0.05192,-0.243526 0.05192,-0.239945 0.05465,-0.248893 0.05731,-0.263217 0.05551,-0.257846 0.05551,-0.256957 0.05729,-0.264113 0.05816,-0.266798 0.05908,-0.272174 0.05996,-0.273067 0.06176,-0.278435 0.06355,-0.284715 0.0627,-0.283806 0.06449,-0.285609 0.06449,-0.290074 0.06717,-0.294558 0.06715,-0.297235 0.06802,-0.293667 0.07076,-0.303506 0.07074,-0.303506 0.0716,-0.305298 0.07254,-0.305296 0.07433,-0.304405 0.07787,-0.320518 0.07701,-0.316047 0.07615,-0.307087 0.0788,-0.314256 0.08238,-0.323207 0.08146,-0.319618 0.0824,-0.316935 0.08593,-0.324109 0.08595,-0.326786 0.08595,-0.320516 0.08952,-0.324997 0.08952,-0.324997 0.09222,-0.327676 0.09312,-0.329478 0.09401,-0.327676 0.09581,-0.326788 0.09759,-0.330367 0.09848,-0.327677 0.09849,-0.323207 0.103876,-0.333948 0.102957,-0.328576 0.102957,-0.323207 0.105652,-0.325889 0.108346,-0.329474 0.109245,-0.325 0.110123,-0.324995 0.11192,-0.324097 0.112797,-0.320516 0.116391,-0.324107 0.117288,-0.323196 0.118188,-0.317838 0.119085,-0.316045 0.12176,-0.316939 0.122658,-0.314246 0.125353,-0.314257 0.126231,-0.312458 0.126231,-0.306194 0.129824,-0.304408 0.129824,-0.303505 0.132519,-0.300817 0.133418,-0.299927 0.134295,-0.292766 0.137868,-0.295454 0.139644,-0.293659 0.138766,-0.285605 0.141461,-0.282916 0.13697,-0.270379 0.0394,-0.07615 0.0412,-0.07339 0.05465,-0.09132 0.05551,-0.09222 0.06356,-0.09936 0.07521,-0.115492 0.08238,-0.119984 0.09312,-0.133417 0.09491,-0.133417 0.09581,-0.129824 0.112798,-0.148607 0.112797,-0.14683 0.119086,-0.150404 0.133417,-0.165633 0.136071,-0.165613 0.139644,-0.168329 0.145034,-0.171901 0.145055,-0.168328 0.160264,-0.181742 0.163837,-0.187111 0.163837,-0.180863 0.173697,-0.191582 0.184437,-0.198769 0.180843,-0.196971 0.179047,-0.190704 0.189805,-0.199647 0.198769,-0.206814 0.199646,-0.205924 0.201443,-0.205024 0.208604,-0.211293 0.211296,-0.212186 0.213972,-0.213976 0.217557,-0.215772 0.224723,-0.220244 0.227405,-0.222926 0.222935,-0.214877 0.231885,-0.222932 0.233675,-0.224725 0.238146,-0.224715 0.241734,-0.229196 0.239945,-0.224725 0.244416,-0.228302 0.252474,-0.234567 0.247997,-0.229205 0.250684,-0.229196 0.256957,-0.235463 0.256053,-0.233676 0.258746,-0.233675 0.257846,-0.234565 0.260536,-0.232783 0.265906,-0.237257 0.262324,-0.232777 0.537183,-0.476298 0.265906,-0.233676 0.268588,-0.235466 0.273072,-0.238154 0.271275,-0.236364 0.268588,-0.232775 0.274865,-0.236358 0.278437,-0.240843 0.268594,-0.231883 0.274856,-0.234567 0.275754,-0.235466 0.270379,-0.230092 0.276655,-0.233676 0.274858,-0.233675 0.273065,-0.230985 0.273964,-0.229198 0.273066,-0.229202 0.277547,-0.232775 0.270376,-0.226515 0.54077,-0.45034 0.271277,-0.223823 0.270377,-0.224727 0.266804,-0.219341 0.267696,-0.220248 0.265906,-0.218453 0.263217,-0.216665 0.261435,-0.213976 0.258736,-0.211294 0.264115,-0.213976 0.259642,-0.212191 0.251578,-0.205026 0.255165,-0.205914 0.249785,-0.20324 0.252476,-0.202341 0.251584,-0.203239 0.239937,-0.194277 0.239045,-0.191602 0.244426,-0.195175 0.236354,-0.190684 0.232785,-0.185335 0.230985,-0.185334 0.231884,-0.18264 0.226516,-0.181742 0.216663,-0.172799 0.222036,-0.175495 0.220244,-0.174575 0.206816,-0.163837 0.207706,-0.163837 0.209503,-0.164735 0.199646,-0.158468 0.199647,-0.156671 0.188887,-0.150403 0.186233,-0.145034 0.1925,-0.150403 0.181742,-0.143237 0.172799,-0.135194 0.170125,-0.133397 0.169207,-0.1316 0.164735,-0.128926 0.159365,-0.124434 0.151302,-0.118187 0.01797,-0.01347 c 2.439702,4.206141 3.889204,8.93156 4.22494,13.789484 0,0 -6.739853,4.470256 -12.823444,11.828763 z" />
    <path
       inkscape:connector-curvature="0"
       id="path32"
       style="fill:#008dc6;fill-opacity:1;fill-rule:evenodd;stroke:none"
       d="M 13.383543,22.857521 C 9.8300772,36.302308 3.6479962,46.329715 3.6479962,46.329715 c 1.4298004,2.967042 3.32516,5.723682 5.647581,8.149062 l 0.02056,-0.02595 0.111027,-0.140563 0.109229,-0.136071 0.111919,-0.137868 0.120862,-0.147729 0.119971,-0.14236 0.1217538,-0.145932 0.127148,-0.147749 0.130712,-0.151302 0.133401,-0.154894 0.136089,-0.153997 0.136074,-0.155773 0.146832,-0.165633 0.144142,-0.162061 0.14236,-0.159386 0.154884,-0.173677 0.154901,-0.171901 0.161154,-0.179047 0.159372,-0.176372 0.161154,-0.179047 0.167424,-0.184436 0.164734,-0.181742 0.170114,-0.188907 0.181746,-0.199647 0.176374,-0.195175 0.177273,-0.195175 0.180853,-0.200544 0.183534,-0.20324 0.186225,-0.205916 0.187115,-0.207714 0.190704,-0.212186 0.194283,-0.217563 0.194275,-0.215764 0.195175,-0.219346 0.196974,-0.221142 0.200544,-0.226517 0.203234,-0.227404 0.198756,-0.226515 0.205924,-0.234566 0.205024,-0.233675 0.206814,-0.236362 0.205924,-0.237256 0.204126,-0.237256 0.215772,-0.249786 0.211286,-0.246215 0.205924,-0.240835 0.209505,-0.247104 0.214866,-0.255159 0.212194,-0.252474 0.209495,-0.251584 0.213982,-0.258746 0.215766,-0.259636 0.210395,-0.256956 0.211294,-0.261424 0.213084,-0.262327 0.212185,-0.265008 0.213084,-0.268594 0.212186,-0.267694 0.210395,-0.266796 0.210401,-0.272177 0.209495,-0.271278 0.205924,-0.267694 0.210395,-0.279335 0.207715,-0.274856 0.203239,-0.272177 0.20324,-0.275755 0.204117,-0.279335 0.201443,-0.278437 0.199646,-0.278437 0.19787,-0.280233 0.195175,-0.278437 0.196073,-0.282917 0.193379,-0.283814 0.189806,-0.280229 0.188009,-0.281126 0.187131,-0.283815 0.183559,-0.282916 0.18264,-0.284706 0.179945,-0.284705 0.176372,-0.281128 0.171901,-0.282016 0.171003,-0.282916 0.16743,-0.282916 0.165633,-0.282916 0.160264,-0.279335 0.159366,-0.284705 0.157569,-0.284709 0.1522,-0.279335 0.146831,-0.279335 0.140563,-0.268595 0.03854,-0.07615 0.03581,-0.07607 0.04302,-0.09757 0.04302,-0.09938 0.043,-0.109245 0.0501,-0.128926 0.0501,-0.136092 0.05371,-0.153996 0.05286,-0.153997 0.0501,-0.153996 0.05465,-0.178169 0.05465,-0.177271 0.0519,-0.184436 0.05729,-0.205024 0.05645,-0.206814 0.05465,-0.211293 0.05465,-0.218456 0.05286,-0.216664 0.05465,-0.235466 0.05637,-0.242624 0.05192,-0.238154 0.05465,-0.253367 0.05465,-0.265015 0.05465,-0.261427 0.05106,-0.256953 0.05106,-0.270385 0.05286,-0.282018 0.05106,-0.282916 0.0501,-0.282026 0.0501,-0.293657 0.04924,-0.294557 0.04924,-0.299027 0.0483,-0.301713 0.04838,-0.311569 0.04924,-0.315145 0.04479,-0.306196 0.04567,-0.31784 0.04659,-0.321414 0.04479,-0.324099 0.04481,-0.330365 0.04387,-0.325889 0.04206,-0.331265 0.04387,-0.342008 0.043,-0.334837 0.04026,-0.337537 0.0412,-0.345588 0.0412,-0.343797 0.0394,-0.346476 0.04026,-0.347379 0.03675,-0.346487 0.03846,-0.355438 0.03761,-0.348269 0.07339,-0.713555 0.03493,-0.352756 0.03493,-0.355429 0.03493,-0.359917 0.03399,-0.358118 0.03313,-0.354547 0.03314,-0.360808 0.03314,-0.366178 0.03136,-0.354537 0.03134,-0.359018 0.03042,-0.361707 0.02956,-0.353639 0.02956,-0.360809 0.02956,-0.359916 0.02862,-0.356327 0.02689,-0.356338 0.02777,-0.355429 0.02776,-0.361707 0.02595,-0.351856 0.05106,-0.701018 0.02415,-0.350966 0.02509,-0.350958 0.0233,-0.344688 0.02329,-0.345587 0.0233,-0.343797 0.02235,-0.339326 0.0215,-0.337527 0.02058,-0.333948 0.02056,-0.339318 0.0215,-0.333948 0.0198,-0.324105 0.0198,-0.327678 0.01899,-0.321416 0.01797,-0.322307 0.01899,-0.323208 0.01797,-0.308876 0.01715,-0.305306 0.01715,-0.312466 0.01592,-0.303507 0.01511,-0.297237 0.01592,-0.2954553 0.01429,-0.2945558 0.01511,-0.2900762 0.01429,-0.2766471 0.01327,-0.2829152 0.01429,-0.2802355 0.01245,-0.2632162 0.01245,-0.265006 0.01184,-0.2668046 0.01266,-0.2542667 0.01082,-0.2533753 0.01245,-0.2408341 0.009,-0.2354663 0.01082,-0.2444146 0.01,-0.2309866 0.01082,-0.2193527 0.0092,-0.2157656 0.0078,-0.2139838 0.0092,-0.2094956 0.0078,-0.2023431 0.0078,-0.1915942 8.57e-4,-0.023299 c -4.841048,0.4664637 -9.526176,2.0404072 -13.671436,4.5965025 0,0 0.290976,8.081914 -2.148735,17.312512 z" />
    <path
       inkscape:connector-curvature="0"
       id="path34"
       style="fill:#00adef;fill-opacity:1;fill-rule:evenodd;stroke:none"
       d="m 19.001573,46.028896 c 4.189132,-6.098819 6.384418,-12.23613 6.384418,-12.23613 l 0.03854,-0.07615 0.03581,-0.07607 0.043,-0.09757 0.04302,-0.09938 0.04302,-0.109245 0.0501,-0.128926 0.0501,-0.136071 0.05371,-0.153997 0.05286,-0.153996 0.0501,-0.153997 0.05465,-0.178168 0.05465,-0.177271 0.05192,-0.184436 0.05729,-0.205022 0.05645,-0.206816 0.05465,-0.211294 0.05465,-0.218453 0.05286,-0.216665 0.05465,-0.235467 0.05637,-0.242624 0.05192,-0.238154 0.05465,-0.253367 0.05465,-0.265015 0.05465,-0.261427 0.05106,-0.256953 0.05106,-0.270385 0.05286,-0.282018 0.05106,-0.282916 0.0501,-0.282026 0.0501,-0.293657 0.04924,-0.294556 0.04924,-0.299026 0.04838,-0.301717 0.0483,-0.311566 0.04924,-0.315148 0.04481,-0.306197 0.04565,-0.317835 0.04651,-0.321416 0.04479,-0.324097 0.04481,-0.330367 0.04387,-0.325887 0.04206,-0.331269 0.04387,-0.342006 0.043,-0.334839 0.04026,-0.337535 0.0412,-0.345589 0.0412,-0.343798 0.0394,-0.346477 0.04026,-0.347375 0.03667,-0.346489 0.03855,-0.355437 0.03761,-0.348267 0.07339,-0.713557 0.03495,-0.352757 0.03493,-0.355429 0.03495,-0.359916 0.03399,-0.358118 0.03314,-0.354547 0.03313,-0.360809 0.03313,-0.366178 0.03136,-0.354537 0.03134,-0.359018 0.03042,-0.361707 0.02956,-0.353638 0.02956,-0.360809 0.02956,-0.359916 0.02862,-0.356328 0.02689,-0.356337 0.02776,-0.355429 0.02777,-0.361707 0.02595,-0.351856 0.05106,-0.701018 0.02415,-0.350966 0.02509,-0.350958 0.0233,-0.344686 0.02329,-0.345589 0.02329,-0.343796 0.02236,-0.339327 0.0215,-0.337528 0.02058,-0.333948 0.02056,-0.339317 0.0215,-0.333947 0.0198,-0.324106 0.0198,-0.327677 0.01899,-0.321417 0.01797,-0.322308 0.01899,-0.323206 0.01797,-0.308877 0.01715,-0.305305 0.01715,-0.312467 0.01592,-0.303507 0.01511,-0.297237 0.01592,-0.2954549 0.01429,-0.2945558 0.01511,-0.2900778 0.01429,-0.2766453 0.01327,-0.2829168 0.01429,-0.2802339 0.01245,-0.2632178 0.01245,-0.2650062 0.01184,-0.2668046 0.01245,-0.2542649 0.01082,-0.2533755 0.01245,-0.2408355 0.009,-0.2354649 0.01082,-0.2444161 0.01,-0.2309851 0.01082,-0.2193542 0.0092,-0.2157641 0.0078,-0.2139836 0.0092,-0.2094958 0.0078,-0.2023431 0.0078,-0.1915942 8.58e-4,-0.023299 -0.253375,0.026894 -0.179945,0.019722 -0.436016,0.05105 -0.221138,0.027751 -0.421689,0.058163 -0.176372,0.026894 -0.453917,0.070751 -0.188907,0.033147 -0.395722,0.069812 -0.307987,0.059102 -0.312464,0.061758 -0.297238,0.062699 -0.342897,0.075208 -0.02509,0.00519 -0.153996,0.036744 -0.445859,0.1056478 -8.57e-4,0 c -0.199792,0.049245 -0.398556,0.1011711 -0.59731,0.1548769 l -0.593594,0.1656335 -0.320516,0.095799 -0.270385,0.081461 -0.03581,0.011658 -0.246207,0.078803 -0.360808,0.1163905 -0.256954,0.088637 -0.347377,0.1208779 -0.316039,0.1154984 -0.257853,0.094907 -0.31246,0.1199715 -0.331265,0.1316044 -0.244416,0.1002866 -0.306196,0.1280234 -0.323205,0.1396727 -0.256057,0.1128096 -0.333948,0.1531023 -0.208605,0.097579 -0.407358,0.194285 -0.03761,0.017905 -0.06894,0.034948 L 17.716508,4.314873 17.502534,4.4276846 17.200817,4.58526 16.899992,4.7500033 16.606335,4.912948 16.585776,4.9236459 C 16.404565,5.0248471 16.226407,5.127802 16.048242,5.233446 l -0.233675,0.141453 -0.282916,0.1701127 0.02775,0.4727203 0.0179,0.352747 0.01968,0.361707 0.01884,0.356338 0.01884,0.357218 0.0179,0.357229 0.01705,0.359917 0.01705,0.361697 0.01611,0.353648 0.01611,0.362597 0.01611,0.360808 0.01345,0.355438 0.01431,0.367077 0.01431,0.362598 0.01252,0.355437 0.01252,0.359908 0.01164,0.361707 0.01164,0.357228 0.0098,0.353638 0.01968,0.717145 0.0069,0.350059 0.0069,0.357228 0.0077,0.349167 0.0051,0.349168 0.0051,0.348277 0.0034,0.347377 0.0034,0.347377 0.0026,0.339317 8.4e-4,0.338427 0.0017,0.344699 0,0.334837 -0.0017,0.327686 -0.0017,0.333047 -0.0026,0.328579 -0.0043,0.324105 -0.0043,0.321416 -0.0051,0.308877 -0.009,0.318727 -0.0077,0.315147 -0.009,0.305298 -0.0089,0.302618 -0.01164,0.299024 -0.01164,0.29725 -0.01252,0.286493 -0.01611,0.287397 -0.01525,0.285597 -0.01611,0.275757 -0.01705,0.260532 -0.02055,0.266798 -0.01968,0.269495 -0.0215,0.257845 -0.02055,0.243516 -0.0251,0.247105 -0.02415,0.241737 -0.0233,0.221142 -0.0269,0.223825 -0.02775,0.216665 -0.02861,0.212185 -0.03041,0.210393 -0.02775,0.189806 -0.03135,0.183559 -0.03135,0.182639 -0.03041,0.158488 -0.0322,0.159366 -0.03315,0.161163 -0.03315,0.141481 -0.0322,0.133417 -0.02955,0.114615 -0.02861,0.103855 -0.03041,0.102059 -0.0269,0.0806 -0.02775,0.07966 -0.103852,0.284706 -0.111021,0.296346 -0.114594,0.296346 -0.119081,0.302615 -0.121762,0.302607 -0.122654,0.297249 -0.127133,0.302615 -0.129822,0.301717 -0.133395,0.303506 -0.135194,0.300818 -0.13788,0.301726 -0.141453,0.305298 -0.145042,0.306194 -0.145034,0.304398 -0.149521,0.305298 -0.150395,0.302615 -0.15132,0.303506 -0.156684,0.306196 -0.156681,0.305298 -0.158465,0.301717 -0.160264,0.301725 -0.162053,0.302607 -0.163835,0.302616 -0.166533,0.302605 -0.166524,0.299937 -0.165634,0.296335 -0.171002,0.299039 -0.173684,0.304406 -0.167422,0.291866 -0.173693,0.295448 -0.174584,0.297246 -0.172793,0.291864 -0.177267,0.292767 -0.1763738,0.292769 -0.176374,0.290974 -0.177273,0.287387 -0.176374,0.287396 -0.176374,0.281125 -0.179063,0.285605 -0.179065,0.283809 -0.175474,0.276644 -0.178173,0.277547 -0.179953,0.280233 -0.176374,0.273068 -0.1727936,0.265007 -0.1781647,0.271276 -0.1808535,0.275754 -0.1727932,0.261435 -0.1736835,0.261426 -0.1736936,0.261424 -0.1736834,0.257848 -0.1745899,0.258744 -0.168312,0.249798 -0.1710049,0.252476 -0.1701045,0.249783 -0.1674219,0.245314 -0.1647352,0.242626 -0.1656314,0.239047 -0.1647352,0.239943 -0.1611542,0.235467 -0.1593557,0.230093 -0.1584654,0.228306 -0.1548846,0.224717 -0.1548845,0.222932 -0.1495213,0.215764 -0.1504115,0.216665 -0.1531022,0.221142 -0.1450503,0.209497 -0.1405628,0.201443 -0.1414693,0.204138 -0.1369656,0.19787 -0.1360898,0.196073 -0.06176,0.09044 0.056366,0.118187 0.094017,0.189806 0.1898038,0.3805 0.094907,0.180863 0.1772664,0.337529 0.090436,0.168328 0.2166648,0.391249 0.1128096,0.19787 0.179063,0.311566 0.1826439,0.305304 0.1271313,0.210397 0.1656314,0.267694 0.1906959,0.300819 0.1226439,0.188907 0.2121952,0.322307 0.145036,0.213976 0.1987642,0.290084 0.1530859,0.216665 0.2265137,0.316039 0.1092286,0.147728 0.2587459,0.347377 0.1441418,0.187111 0.2327835,0.298139 0.1369819,0.172799 0.2533739,0.312456 0.1665256,0.199646 0.2444245,0.290086 0.1110111,0.128028 0.323206,0.368869 0.0269,0.02956 0.0609,0.06535 0.321408,0.352746 0.12893,0.136092 0.347377,0.366186 c 0.544346,0.560451 1.1110767,1.102103 1.7010797,1.624964 1.100324,-1.281178 4.421015,-5.243801 7.850029,-10.23512 z" />
    <path
       inkscape:connector-curvature="0"
       id="path36"
       style="fill:#00adef;fill-opacity:1;fill-rule:evenodd;stroke:none"
       d="M 57.134381,12.891886 56.98755,12.703877 56.748506,12.410212 56.556005,12.176536 56.378734,11.967932 56.1576,11.710972 55.974056,11.501477 55.739491,11.238252 55.557747,11.041288 55.316014,10.780753 55.149488,10.604379 54.888954,10.334893 54.641849,10.085997 54.494124,9.939165 54.205839,9.658938 54.000813,9.463764 53.741169,9.222029 53.579124,9.071616 53.296208,8.81914 53.066116,8.615015 52.81453,8.400142 52.622936,8.236298 52.316739,7.984723 52.109033,7.815508 51.864609,7.622124 51.605873,7.41978 51.414279,7.274746 51.08212,7.024061 50.897687,6.889753 50.594172,6.671298 50.250384,6.431353 50.07401,6.311382 49.556518,5.966695 49.180491,5.7258593 48.975467,5.5960382 48.447235,5.2755214 48.189389,5.1259995 47.853651,4.9317249 47.29946,4.6255285 46.713028,4.3157515 C 46.515174,4.2145742 46.317311,4.1160979 46.119447,4.0194054 l -0.574783,-0.2739657 -0.0215,-0.010698 -0.16204,-0.072548 -0.438697,-0.1969635 -0.566723,-0.2426258 -0.330368,-0.133403 -0.290975,-0.1163906 -0.0198,-0.00778 -0.147729,-0.055506 -0.43601,-0.1656335 -0.02329,-0.00906 L 42.86937,2.649772 42.543481,2.5342736 42.209537,2.4223562 41.93826,2.3319366 41.633854,2.2361374 41.309757,2.1358672 41.107416,2.0777046 40.697367,1.9586253 40.425191,1.8852182 40.102885,1.8001619 39.828919,1.73035 39.478861,1.6452937 39.226387,1.5879885 38.841398,1.5020421 38.64263,1.4617821 38.256753,1.3829791 37.966675,1.3283321 37.621088,1.2665722 37.373093,1.2245136 37.023915,1.168068 36.73742,1.1268668 36.376612,1.0767562 36.146517,1.0472043 35.780339,1.0033471 35.488475,0.9719966 35.164374,0.9397886 34.852808,0.9128948 l -0.291877,-0.023299 -0.285594,-0.018844 -0.394832,-0.024156 -0.205021,-0.00988 -0.234574,-0.0089 c 0,0 3.179227,7.612781 2.02339,17.9257922 -0.729673,6.507068 -2.805887,12.824345 -2.805887,12.824345 0,0 3.951874,-5.352136 8.825916,-9.731068 7.730957,-6.946669 15.761828,-8.813378 15.761828,-8.813378 l -0.111919,-0.141464 z" />
    <path
       inkscape:connector-curvature="0"
       id="path38"
       style="fill:#00adef;fill-opacity:1;fill-rule:evenodd;stroke:none"
       d="M 28.896477,51.113325 C 31.41587,44.155917 35.126909,38.79752 35.126909,38.79752 l 0.0394,-0.07615 0.0412,-0.0734 0.05465,-0.09132 0.05551,-0.09222 0.06356,-0.09936 0.07521,-0.115492 0.08242,-0.119984 0.09312,-0.133417 0.09491,-0.133417 0.09579,-0.129825 0.112797,-0.148606 0.112797,-0.146831 0.119086,-0.150403 0.133397,-0.165633 0.136091,-0.165614 0.139645,-0.168328 0.145033,-0.171901 0.145055,-0.168328 0.160264,-0.181742 0.163837,-0.187111 0.163837,-0.180863 0.173677,-0.191603 0.184436,-0.198768 0.180844,-0.196972 0.179046,-0.190704 0.189806,-0.199646 0.198748,-0.206816 0.199646,-0.205922 0.201443,-0.205026 0.208605,-0.211294 0.211293,-0.212183 0.213974,-0.213976 0.217555,-0.215773 0.224727,-0.220246 0.227404,-0.222926 0.222932,-0.214874 0.231887,-0.222933 0.233675,-0.224725 0.238145,-0.224715 0.241737,-0.229196 0.239943,-0.224725 0.244416,-0.228304 0.252474,-0.234567 0.247997,-0.229204 0.250684,-0.229194 0.256955,-0.235464 0.256057,-0.233675 0.258746,-0.233676 0.257846,-0.234565 0.260534,-0.232785 0.265904,-0.237254 0.262329,-0.232777 0.537181,-0.476299 0.265903,-0.233675 0.268589,-0.235464 0.273073,-0.238157 0.271275,-0.236364 0.268587,-0.232775 0.274866,-0.236358 0.278437,-0.240843 0.268594,-0.231883 0.274856,-0.234567 0.275755,-0.235464 0.270377,-0.230096 0.276654,-0.233673 0.274858,-0.233676 0.273066,-0.230986 0.273968,-0.229196 0.273063,-0.229202 0.277545,-0.232775 0.270377,-0.226516 0.540772,-0.45034 0.271275,-0.223823 0.270377,-0.224727 0.266806,-0.219343 0.267696,-0.220246 0.265904,-0.218455 0.263216,-0.216663 0.261437,-0.213976 0.258736,-0.211293 0.264115,-0.213976 0.259644,-0.212192 0.251578,-0.205026 0.255163,-0.205914 0.249788,-0.203239 0.252474,-0.202341 0.251584,-0.20324 0.239937,-0.194277 0.239044,-0.191602 0.244424,-0.195175 0.236358,-0.190684 0.232783,-0.185334 0.230985,-0.185335 0.231887,-0.18264 0.226513,-0.181742 0.216665,-0.172799 0.222036,-0.175494 0.220244,-0.174576 0.206812,-0.163837 0.207707,-0.163837 0.209502,-0.164735 0.199647,-0.158467 0.199646,-0.156671 0.188907,-0.150404 0.186233,-0.145033 0.192501,-0.150404 0.181742,-0.143237 0.172799,-0.135194 0.170125,-0.133396 0.169206,-0.131601 0.164735,-0.128926 0.159366,-0.124434 0.151302,-0.118187 0.01797,-0.01348 0.126231,0.221145 0.08863,0.157569 0.213084,0.384086 0.104753,0.196074 0.199646,0.376929 0.0806,0.158467 0.205914,0.410948 0.0842,0.1728 0.172799,0.361707 0.131621,0.284706 0.1316,0.290076 0.12178,0.278437 0.139665,0.323207 0.01,0.02329 0.05996,0.145933 0.172799,0.424367 8.58e-4,8.39e-4 c 0.07615,0.190704 0.149505,0.3823 0.222034,0.574784 l 0.211293,0.580163 0.108347,0.316036 0.09132,0.266806 0.01184,0.03675 0.0788,0.246206 0.115492,0.360807 0.07787,0.260534 0.104754,0.352749 0.08952,0.324097 0.07254,0.264115 0.08419,0.324099 0.08593,0.346487 0.06176,0.256953 0.07339,0.324099 0.07521,0.342898 0.05731,0.273964 0.06982,0.360808 0.043,0.226514 0.07881,0.44407 0.0067,0.0412 0.01184,0.07701 0.07787,0.487041 0.03314,0.239945 0.04659,0.337527 0.04206,0.340217 0.03761,0.332157 0.0035,0.02415 c 0.02236,0.205034 0.04206,0.410058 0.0609,0.615974 l 0.02056,0.272175 0.02689,0.328576 -0.401095,0.253364 -0.297238,0.190705 -0.305306,0.194297 -0.299927,0.193378 -0.301717,0.192481 -0.300817,0.193399 -0.302617,0.196073 -0.304404,0.196073 -0.296346,0.193379 -0.304397,0.19787 -0.302616,0.196972 -0.296345,0.196073 -0.307987,0.202341 -0.302616,0.199647 -0.296341,0.196073 -0.299033,0.199646 -0.300827,0.201443 -0.297235,0.198768 -0.293657,0.196972 -0.594484,0.40288 -0.289188,0.19787 -0.294555,0.201442 -0.288284,0.196972 -0.286497,0.198768 -0.286499,0.198769 -0.284705,0.198768 -0.284715,0.199646 -0.277534,0.195175 -0.275756,0.196074 -0.281128,0.200544 -0.271277,0.194277 -0.265904,0.192481 -0.270385,0.195175 -0.265007,0.193378 -0.261435,0.192501 -0.258738,0.190704 -0.247103,0.184436 -0.254266,0.192501 -0.251584,0.189806 -0.243526,0.185335 -0.239937,0.184436 -0.236362,0.18264 -0.234565,0.183558 -0.226516,0.176373 -0.223825,0.179945 -0.223826,0.179067 -0.213982,0.173677 -0.202342,0.165633 -0.205025,0.171902 -0.207713,0.172799 -0.196073,0.16743 -0.187132,0.159386 -0.186233,0.163837 -0.181741,0.160264 -0.166532,0.147729 -0.166532,0.1522 -0.159365,0.148607 -0.156671,0.146851 -0.153099,0.14683 -0.137868,0.133417 -0.130722,0.132519 -0.130722,0.132519 -0.111022,0.116391 -0.111,0.119085 -0.111021,0.120862 -0.09669,0.109245 -0.08952,0.103855 -0.07521,0.09044 -0.06802,0.08419 -0.06535,0.0842 -0.0501,0.06802 -0.0483,0.06982 -0.171002,0.250684 -0.176373,0.262325 -0.174596,0.265906 -0.176372,0.272177 -0.174678,0.275752 -0.171002,0.273066 -0.171922,0.280225 -0.169206,0.281126 -0.168308,0.284707 -0.166532,0.284706 -0.165613,0.287396 -0.165633,0.293657 -0.163837,0.296345 -0.162939,0.294558 -0.16204,0.299036 -0.157569,0.298134 -0.158468,0.300819 -0.157569,0.305306 -0.157569,0.305296 -0.153098,0.304406 -0.1522,0.306188 -0.151302,0.307987 -0.150403,0.308877 -0.149505,0.311568 -0.146831,0.309773 -0.144156,0.307987 -0.143257,0.312468 -0.146831,0.318725 -0.139644,0.307089 -0.139665,0.312455 -0.139644,0.314257 -0.136071,0.311566 -0.135173,0.314248 -0.135214,0.314254 -0.133417,0.31246 -0.130723,0.311566 -0.130722,0.310675 -0.12713,0.307089 -0.127129,0.311566 -0.126231,0.310667 -0.122678,0.304406 -0.12176,0.306196 -0.123536,0.309775 -0.119086,0.30261 -0.114614,0.293665 -0.116391,0.303505 -0.119085,0.307987 -0.11192,0.291869 -0.111919,0.294553 -0.111021,0.292767 -0.109225,0.291866 -0.108347,0.291869 -0.104753,0.282914 -0.105652,0.285607 -0.103875,0.283804 -0.102059,0.278447 -0.101181,0.275754 -0.09849,0.273068 -0.09938,0.273966 -0.09757,0.268584 -0.09401,0.263219 -0.09312,0.262323 -0.09222,0.256057 -0.09132,0.256065 -0.08775,0.247105 -0.08952,0.247995 -0.08952,0.254265 -0.08593,0.239046 -0.0824,0.231885 -0.08326,0.233675 -0.08146,0.227404 -0.0806,0.224727 -0.03667,0.102059 -0.129824,0.02329 -0.208605,0.03495 -0.419898,0.06621 -0.202341,0.0287 -0.377819,0.05286 -0.189806,0.02415 -0.44407,0.05106 -0.226505,0.02415 -0.357228,0.03579 -0.354545,0.02862 -0.245308,0.0198 -0.313356,0.02056 -0.356336,0.02056 -0.224717,0.01 -0.384987,0.01592 -0.259636,0.0059 -0.350958,0.0067 -0.265906,0.0027 -0.387667,-8.31e-4 -0.184437,-0.0027 -0.433329,-0.0078 -0.235464,-0.0078 -0.378709,-0.01592 -0.219354,-0.01082 -0.401099,-0.02415 -0.260526,-0.01899 -0.377817,-0.03042 -0.168329,-0.01429 -0.48883,-0.04924 -0.0394,-0.0043 -0.08865,-0.01082 -0.47361,-0.05645 -0.186233,-0.02509 -0.499579,-0.06897 c -0.772646,-0.11639 -1.543513,-0.262327 -2.31168,-0.437801 0.401099,-1.640204 1.688547,-6.64674 3.749531,-12.340881 z" />
  </g>
</svg>
