<?xml version="1.0" encoding="UTF-8" standalone="no"?>
<!-- Created with Inkscape (http://www.inkscape.org/) -->

<svg
   xmlns:dc="http://purl.org/dc/elements/1.1/"
   xmlns:cc="http://creativecommons.org/ns#"
   xmlns:rdf="http://www.w3.org/1999/02/22-rdf-syntax-ns#"
   xmlns:svg="http://www.w3.org/2000/svg"
   xmlns="http://www.w3.org/2000/svg"
   xmlns:sodipodi="http://sodipodi.sourceforge.net/DTD/sodipodi-0.dtd"
   xmlns:inkscape="http://www.inkscape.org/namespaces/inkscape"
   width="110.09856"
   height="110.24459"
   id="svg3756"
   version="1.1"
   inkscape:version="0.92.1 r15371"
   viewBox="0 0 110.09856 110.24459"
   inkscape:export-filename="C:\Users\William\logo para Moovit.png"
   inkscape:export-xdpi="90"
   inkscape:export-ydpi="90"
   sodipodi:docname="horsgle3 mais logo lateral default.svg">
  <defs
     id="defs3758" />
  <sodipodi:namedview
     id="base"
     pagecolor="#ffffff"
     bordercolor="#666666"
     borderopacity="1.0"
     inkscape:pageopacity="0.0"
     inkscape:pageshadow="2"
     inkscape:zoom="0.060766989"
     inkscape:cx="4323.2608"
     inkscape:cy="-2533.3638"
     inkscape:current-layer="layer1"
     showgrid="true"
     inkscape:document-units="ft"
     inkscape:grid-bbox="true"
     inkscape:window-width="1920"
     inkscape:window-height="1003"
     inkscape:window-x="-9"
     inkscape:window-y="-9"
     inkscape:window-maximized="1"
     fit-margin-top="0"
     fit-margin-left="0"
     fit-margin-right="0"
     fit-margin-bottom="0" />
  <metadata
     id="metadata3761">
    <rdf:RDF>
      <cc:Work
         rdf:about="">
        <dc:format>image/svg+xml</dc:format>
        <dc:type
           rdf:resource="http://purl.org/dc/dcmitype/StillImage" />
        <dc:title></dc:title>
      </cc:Work>
    </rdf:RDF>
  </metadata>
  <g
     id="layer1"
     inkscape:label="Layer 1"
     inkscape:groupmode="layer"
     transform="translate(-16.587047,58.9405)">
    <rect
       style="opacity:1;fill:#333333;fill-opacity:1;stroke:none;stroke-width:7.55905485;stroke-miterlimit:4;stroke-dasharray:none;stroke-opacity:1"
       id="rect4492"
       width="3789.8135"
       height="3756.1924"
       x="-93.384659"
       y="-161.50452"
       rx="1.32583"
       ry="1.32583"
       inkscape:export-xdpi="90"
       inkscape:export-ydpi="90" />
    <g
       id="g4564"
       transform="matrix(0.86773413,0,0,0.86773413,261.99431,69.215486)"
       style="stroke-width:1.15242672">
      <path
         inkscape:connector-curvature="0"
         id="path4241"
         style="fill:#808080;fill-opacity:1;fill-rule:evenodd;stroke:none;stroke-width:1.15242684"
         d="m 2180.7897,875.81597 c -4.1094,-2.10068 -8.2175,-4.1464 -12.3269,-6.15388 l -11.9361,-5.69025 -0.4422,-0.21509 -3.3661,-1.5068 -9.1101,-4.09024 -11.7689,-5.03901 -6.86,-2.76985 -6.0428,-2.41734 -0.4063,-0.16729 -3.0674,-1.15908 -9.0551,-3.439 -0.4899,-0.19119 -4.9447,-1.76611 -6.768,-2.39822 -6.9354,-2.32413 -5.6329,-1.87843 -6.3212,-1.98836 -6.731,-2.08276 -4.2014,-1.20808 -8.515,-2.4723 -5.652,-1.52473 -6.694,-1.76611 -5.6891,-1.44944 -7.2699,-1.7673 -5.2422,-1.19493 -7.9952,-1.78403 -4.1273,-0.83645 -8.0132,-1.63586 -6.0248,-1.13518 -7.1768,-1.28216 -5.1489,-0.8723 -7.2521,-1.17103 -5.9495,-0.86034 -7.4922,-1.03959 -4.7785,-0.60942 -7.6046,-0.90814 -6.0606,-0.65721 -6.7299,-0.66916 -6.4705,-0.56162 -6.0619,-0.48992 -5.9304,-0.39433 -8.1996,-0.50187 -4.2575,-0.20313 -4.8706,-0.17924 -0.2629,6.5255 c -6.1861,153.62837 -27.7522,599.21243 -88.7724,717.96083 -102.4257,199.3284 -305.4906,390.6807 -347.1566,449.1533 33.5225,26.6613 70.1495,50.4224 109.6765,70.7446 39.6573,20.358 80.4115,36.3294 121.7238,48.0612 28.2421,-75.7226 101.8856,-425.5738 162.6453,-543.8586 68.3272,-132.9537 411.1881,-400.2365 531.1637,-491.0785 l 5.3365,-4.0353 -2.3241,-2.9372 -3.0495,-3.9038 -4.9637,-6.0989 -3.9983,-4.8526 -3.6803,-4.3316 -4.5921,-5.3366 -3.8131,-4.3507 -4.8705,-5.4656 -3.7736,-4.0902 -5.0199,-5.4107 -3.4581,-3.6624 -5.4106,-5.5971 -5.1322,-5.16805 -3.0674,-3.04946 -5.9866,-5.8193 -4.2575,-4.0532 -5.3916,-5.01989 -3.3649,-3.12355 -5.8754,-5.24334 -4.7786,-4.23841 -5.2242,-4.46187 -3.9791,-3.40315 -6.3582,-5.22423 -4.3137,-3.51429 -5.0761,-4.01496 -5.3724,-4.20256 -3.9791,-3.01122 -6.8983,-5.2063 -3.8297,-2.78897 -6.3021,-4.53714 -7.1397,-4.98285 -3.6625,-2.49143 -10.7471,-7.15762 -7.8089,-5.00077 -4.2575,-2.69576 -10.9695,-6.65695 -5.3544,-3.10442 -6.9725,-4.03408 -11.5083,-6.35941 -12.1775,-6.4323 z" />
      <path
         inkscape:connector-curvature="0"
         id="path4243"
         style="fill:#ffffff;fill-opacity:1;fill-rule:evenodd;stroke:none;stroke-width:1.15242684"
         d="m 1701.0331,1808.5186 -232.0504,168.5029 c 33.5214,26.6612 70.1483,50.4223 109.6753,70.7433 39.6585,20.358 80.4128,36.3294 121.725,48.0612 l 0.6572,-287.3074 z" />
      <path
         inkscape:connector-curvature="0"
         id="path4245"
         style="fill:#999999;fill-opacity:1;fill-rule:evenodd;stroke:none;stroke-width:1.15242684"
         d="m 1533.2747,901.34323 c 0,0 173.3554,226.84527 241.3277,553.53027 71.3396,342.8621 10.9145,658.8012 10.9145,658.8012 v 0.3106 c 69.0704,9.9849 138.5866,8.7206 206.0212,-2.9371 l -0.1434,-0.5736 c 0,0 76.73,-349.0338 25.4902,-732.76 -44.9771,-336.7786 -199.7024,-571.82226 -199.7024,-571.82226 -100.5293,9.68609 -197.8598,42.37217 -283.9055,95.45328 z" />
      <path
         inkscape:connector-curvature="0"
         id="path4247"
         style="fill:#cccccc;fill-opacity:1;fill-rule:evenodd;stroke:none;stroke-width:1.15242684"
         d="m 1448.5865,963.46039 c 0,0 123.1183,359.18471 423.4958,513.20391 300.1923,153.9068 663.9321,44.3987 663.9321,44.3987 l -442.1809,563.7565 c 0,0 -68.7167,-331.7802 -302.0325,-451.9243 -233.7244,-120.3484 -543.5837,16.4542 -543.5837,16.4542 z" />
      <path
         inkscape:connector-curvature="0"
         id="path4249"
         style="fill:#ffffff;fill-opacity:1;fill-rule:evenodd;stroke:none;stroke-width:1.15242684"
         d="m 2531.8501,1523.7397 -6.0236,3.942 -6.3212,4.1094 -6.0798,3.96 -5.9495,3.9229 -6.3965,4.2205 -6.1909,4.0711 -6.0057,3.9792 -6.0237,4.0161 -6.173,4.1285 -6.1347,4.0902 -5.8576,3.96 -12.0472,8.1255 -5.8002,3.9971 -6.173,4.2205 -5.7273,3.9038 -5.707,3.96 -5.8193,4.0353 -5.7082,3.997 -5.8384,4.0902 -5.5397,3.8859 -5.5038,3.923 -5.7452,4.1082 -5.3724,3.8309 -5.2625,3.8118 -5.5218,3.9971 -5.2051,3.7927 -5.2624,3.8667 -5.2243,3.868 -4.6291,3.4211 -5.039,3.8298 -5.1502,3.9038 -4.7964,3.6445 -4.7044,3.6063 -4.6101,3.5705 -4.7044,3.6433 -4.2014,3.3099 -4.3328,3.4773 -4.4427,3.5501 -3.9791,3.2359 -3.6816,3.0112 -4.015,3.384 -4.0353,3.3458 -3.6994,3.1606 -3.402,2.9001 -3.3649,2.9384 -3.4402,3.0303 -2.8631,2.5655 -2.863,2.6038 -2.789,2.5834 -2.7149,2.5655 -2.771,2.6587 -2.1186,2.0637 -1.9896,1.9895 -2.0457,2.0828 -1.3945,1.4685 -1.8031,1.9346 -1.5988,1.7482 -1.0396,1.171 -1.0635,1.2272 -0.5377,0.6453 -0.4421,0.5377 -0.1195,0.1195 -0.1195,0.1195 -3.0304,4.4248 -3.2358,4.8335 -3.2168,4.8908 -3.2717,5.057 -3.2538,5.131 -3.1976,5.131 -3.2168,5.2434 -3.1606,5.2242 -3.1976,5.3736 -3.1414,5.4106 -3.1057,5.4286 -3.1414,5.5409 -3.1797,5.7452 -3.1415,5.707 -3.0507,5.597 -3.0482,5.7823 -3.0686,5.8193 -3.0674,5.9304 -3.0482,5.9316 -2.9193,5.8002 -2.9753,5.9496 -2.9933,6.0989 -2.9192,6.0236 -2.9001,6.0607 -2.9001,6.0989 -2.7519,5.8563 -2.8631,6.2471 -2.9754,6.4515 -2.6766,5.9125 -2.7328,6.1347 -2.8081,6.3033 -2.6408,6.0236 -5.4285,12.6244 -2.6396,6.1539 -2.6038,6.1909 -2.5846,6.1922 -2.4544,5.9674 -2.5643,6.2842 -2.5846,6.3402 -2.4353,6.0237 -2.4365,6.0798 -2.4914,6.2841 -2.3803,6.0619 -2.25,5.7631 -2.3612,6.136 -2.4353,6.3391 -2.2679,5.8575 -2.2692,6.0045 -2.1939,5.8014 -2.1748,5.7823 -2.2321,6.0427 -2.1377,5.7452 -2.1198,5.707 -2.0816,5.7643 -2.1748,5.8743 -1.9907,5.4847 -2.0075,5.523 -2.1198,5.8563 -1.9334,5.3545 -1.8784,5.2051 -0.9321,2.6408 c 155.2463,-53.3416 290.9137,-164.4114 371.8654,-321.9639 39.9357,-77.7707 62.9345,-159.7631 70.3155,-241.7926 l -4.1643,2.6778 z" />
      <path
         inkscape:connector-curvature="0"
         id="path4251"
         style="fill:#ffffff;fill-opacity:1;fill-rule:evenodd;stroke:none;stroke-width:1.15242684"
         d="m 1249.2772,1647.7876 3.1606,-4.5551 3.2347,-4.7032 3.5142,-5.1322 3.3088,-4.8335 3.3099,-4.8156 3.5143,-5.1872 3.4582,-5.039 3.421,-5.0569 3.4211,-5.094 3.6063,-5.3354 3.4402,-5.1322 3.439,-5.1501 3.5513,-5.3354 3.4582,-5.2624 3.7186,-5.67 3.6254,-5.5038 3.3649,-5.1681 3.5513,-5.4847 3.6446,-5.6711 3.5322,-5.5218 3.4772,-5.4847 3.6434,-5.8014 3.6254,-5.7452 3.4211,-5.4656 3.5142,-5.7082 3.5322,-5.7261 3.4582,-5.7261 7.1217,-11.7509 3.3458,-5.67 3.4952,-5.9495 3.384,-5.7823 3.2538,-5.634 3.5143,-6.1719 3.402,-5.9686 3.1797,-5.6341 3.2538,-5.9113 3.2346,-5.8946 3.1977,-5.8755 3.2167,-5.9866 3.1056,-5.8742 3.0125,-5.7452 3.0482,-5.9496 3.0495,-5.9495 2.9371,-5.8755 2.9192,-5.8563 2.7711,-5.7261 2.826,-5.8946 2.8069,-5.9305 2.6778,-5.7643 2.6025,-5.689 2.5656,-5.7082 2.5284,-5.7261 2.3994,-5.615 2.3791,-5.6699 2.3063,-5.578 2.287,-5.652 2.1939,-5.597 2.1007,-5.4656 2.0457,-5.4477 1.8402,-5.0378 v -0.1434 -0.1195 l 0.1912,-0.6692 0.2032,-0.8125 0.3943,-1.5618 0.3585,-1.5438 0.4779,-2.3242 0.5378,-2.5834 0.3704,-1.9716 0.4779,-2.881 0.4661,-2.771 0.4421,-2.9372 0.5616,-3.8118 0.5019,-3.7007 0.466,-3.7736 0.4421,-3.8309 0.4302,-3.8298 0.466,-4.5729 0.4302,-4.4261 0.3704,-4.4618 0.4302,-4.8335 0.3704,-5.2434 0.3944,-5.2242 0.3226,-4.7594 0.3107,-5.1322 0.2987,-5.6699 0.2987,-5.5409 0.239,-5.3366 0.239,-5.9483 0.2031,-5.8205 0.2032,-5.9305 0.1673,-6.0236 0.1673,-6.4705 0.1672,-6.3212 0.1195,-5.7643 0.1195,-6.4885 0.1195,-6.5255 v -6.4335 -6.823 -6.4885 -6.6187 -7.0465 -6.7681 l -0.1195,-6.7513 v -7.1588 l -0.1195,-6.9533 -0.1195,-7.0836 -0.1194,-6.9533 -0.1673,-6.9353 -0.1434,-7.4564 -0.1434,-7.0465 -0.3943,-14.5195 -0.2032,-7.0657 -0.239,-7.3631 -0.239,-7.436 -0.2628,-7.2329 -0.239,-7.1947 -0.2988,-7.4181 -0.2987,-7.6416 -0.2748,-7.13969 -0.3107,-7.23291 -0.3346,-7.52924 -0.3107,-7.19586 -0.1673,-3.81063 c -62.0478,53.63553 -115.0548,119.84293 -154.8424,197.26123 -80.727,157.1617 -92.1803,331.65 -45.5327,488.6253 l 1.0635,-1.5617 z" />
      <path
         inkscape:connector-curvature="0"
         id="path4253"
         style="fill:#b3b3b3;fill-opacity:1;fill-rule:evenodd;stroke:none;stroke-width:1.15242684"
         d="m 2536.2379,1416.6299 c 0,0 -285.374,-8.8126 -590.548,126.1486 -320.2528,141.6551 -541.93,374.7475 -541.93,374.7475 l -0.2628,0.1911 c -48.3409,-50.3303 -87.7938,-107.5937 -117.5786,-169.1911 l 0.5616,-0.227 c 0,0 239.0777,-265.6099 580.8607,-447.4051 299.988,-159.56 581.1595,-170.6215 581.1595,-170.6215 50.6637,87.3457 80.7652,185.5139 87.7376,286.3587 z" />
      <path
         inkscape:connector-curvature="0"
         id="path4255"
         style="fill:#ffffff;fill-opacity:1;fill-rule:evenodd;stroke:none;stroke-width:1.15242684"
         d="m 1605.3205,1742.0507 c 86.9932,-126.6505 132.5809,-254.1015 132.5809,-254.1015 l 0.8006,-1.5809 0.7408,-1.5797 0.8962,-2.0266 0.8962,-2.0637 0.8962,-2.2679 1.0396,-2.6779 1.0396,-2.826 1.1113,-3.1976 1.0993,-3.1976 1.0396,-3.1977 1.1352,-3.7007 1.1352,-3.6815 1.0754,-3.8298 1.1949,-4.2575 1.1711,-4.2946 1.1352,-4.3878 1.1351,-4.5371 1.0994,-4.4989 1.1351,-4.8897 1.1711,-5.039 1.0754,-4.9458 1.1352,-5.2612 1.1352,-5.5027 1.1352,-5.4297 1.0634,-5.3354 1.0635,-5.615 1.0994,-5.8563 1.0635,-5.8755 1.0395,-5.8563 1.0396,-6.0989 1.0277,-6.1169 1.0157,-6.21 1.0037,-6.265 1.0037,-6.4706 1.0157,-6.5446 0.9321,-6.3582 0.944,-6.6008 0.9679,-6.6749 0.932,-6.7298 0.932,-6.8601 0.9082,-6.7681 0.8723,-6.8792 0.9081,-7.1026 0.8962,-6.9533 0.8365,-7.0095 0.8603,-7.1767 0.8604,-7.1385 0.8125,-7.1959 0.8365,-7.2137 0.7647,-7.1947 0.8006,-7.3811 0.7767,-7.2329 1.5236,-14.8183 0.7289,-7.3249 0.7289,-7.3811 0.7289,-7.4743 0.705,-7.4372 0.6931,-7.3619 0.6811,-7.4934 0.693,-7.6046 0.6572,-7.3619 0.6572,-7.4552 0.6334,-7.5113 0.6094,-7.344 0.6094,-7.4934 0.6094,-7.4743 0.5975,-7.399 0.5616,-7.4002 0.5735,-7.3811 0.5736,-7.5113 0.5377,-7.307 1.0635,-14.5578 0.5019,-7.2879 0.5258,-7.2878 0.4779,-7.1588 0.478,-7.1768 0.4899,-7.1385 0.466,-7.0465 0.4422,-7.0094 0.4301,-6.9354 0.4302,-7.04649 0.4421,-6.93417 0.4063,-6.73103 0.4063,-6.80512 0.3943,-6.67487 0.3704,-6.6928 0.3944,-6.71191 0.3704,-6.41438 0.3585,-6.34029 0.3585,-6.48846 0.3345,-6.30325 0.3107,-6.1718 0.3346,-6.13596 0.2987,-6.11684 0.3107,-6.02363 0.2987,-5.74522 0.2749,-5.87546 0.2987,-5.81931 0.2629,-5.4656 0.2629,-5.50384 0.2509,-5.53969 0.2629,-5.28039 0.227,-5.26246 0.2629,-5.00078 0.1912,-4.88964 0.227,-5.07606 0.2032,-4.79644 0.227,-4.55507 0.1912,-4.48098 0.1673,-4.44394 0.1912,-4.35074 0.1673,-4.20137 0.1673,-3.97911 v -0.48992 l -5.2625,0.56162 -3.7365,0.40627 -9.054,1.06349 -4.5921,0.57357 -8.7577,1.20807 -3.6624,0.56162 -9.4268,1.46976 -3.923,0.69306 -8.2175,1.44944 -6.3952,1.2272 -6.4885,1.28215 -6.173,1.30248 -7.1206,1.56177 -0.5257,0.11949 -3.1989,0.76475 -9.2583,2.19389 v 0 c -4.1488,1.02764 -8.2761,2.10069 -12.4045,3.21556 l -12.3257,3.44019 -6.657,1.98956 -5.6149,1.69202 -0.7409,0.23899 -5.1131,1.63705 -7.4922,2.41614 -5.3365,1.84139 -7.2138,2.50935 -6.5626,2.39941 -5.3544,1.97044 -6.4897,2.49143 -6.8792,2.7328 -5.0749,2.08276 -6.3594,2.65871 -6.7119,2.9001 -5.3174,2.34325 -6.9342,3.17971 -4.3316,2.0254 -8.4601,4.03527 -0.7767,0.37043 -1.4327,0.72891 -9.1651,4.5933 -4.444,2.34206 -6.2662,3.27291 -6.2471,3.42108 -6.0977,3.38284 -0.4302,0.22704 c -3.7628,2.10188 -7.4635,4.23961 -11.163,6.4335 l -4.8526,2.93832 -5.8754,3.53221 0.5735,9.81634 0.3705,7.32611 0.4062,7.51132 0.3944,7.399 0.3943,7.41811 0.3704,7.41931 0.3585,7.47428 0.3585,7.51132 0.3345,7.34284 0.3346,7.53044 0.3346,7.4922 0.2748,7.38227 0.2988,7.62242 0.2987,7.5293 0.2629,7.3822 0.2629,7.4731 0.239,7.5113 0.2389,7.4194 0.2032,7.3428 0.4063,14.8936 0.1433,7.2687 0.1434,7.4181 0.1554,7.2521 0.1195,7.2508 0.1195,7.2317 0.1195,7.2138 0.1195,7.2138 v 7.0465 7.0285 7.1576 6.9533 6.8052 6.9162 6.823 l -0.1195,6.7311 -0.1195,6.6748 -0.1195,6.4144 -0.1912,6.6187 -0.1554,6.5447 -0.1911,6.3402 -0.1912,6.2842 -0.239,6.2088 -0.239,6.173 -0.2629,5.9496 -0.3346,5.9686 -0.3106,5.9305 -0.3346,5.7261 -0.3585,5.4106 -0.4302,5.5409 -0.4063,5.5958 -0.4421,5.3545 -0.4302,5.0569 -0.5257,5.1323 -0.5019,5.0199 -0.4899,4.5921 -0.5616,4.6482 -0.5736,4.499 -0.5975,4.4068 -0.6333,4.3687 -0.5735,3.9421 -0.6573,3.8118 -0.6572,3.7927 -0.6333,3.2908 -0.6691,3.31 -0.6931,3.347 -0.693,2.9383 -0.6692,2.7699 -0.6094,2.3802 -0.5975,2.1569 -0.6333,2.1198 -0.5616,1.6729 -0.5736,1.655 -2.1568,5.9125 -2.3062,6.1539 -2.3791,6.1538 -2.4735,6.2842 -2.5285,6.2841 -2.5464,6.173 -2.6408,6.2841 -2.6958,6.265 -2.7698,6.3033 -2.8081,6.2471 -2.863,6.2662 -2.9372,6.3391 -3.0124,6.3594 -3.0112,6.3212 -3.1056,6.3391 -3.1236,6.2841 -3.1414,6.3032 -3.2538,6.3582 -3.2538,6.3403 -3.2908,6.2662 -3.3279,6.2651 -3.3661,6.2841 -3.402,6.2841 -3.4581,6.2841 -3.4581,6.2292 -3.4402,6.1539 -3.5502,6.21 -3.6075,6.3212 -3.4772,6.0607 -3.6063,6.1359 -3.6254,6.173 -3.5884,6.0607 -3.6816,6.0798 -3.6624,6.0798 -3.6625,6.0428 -3.6815,5.9674 -3.6625,5.9687 -3.6625,5.8372 -3.7186,5.9316 -3.7186,5.8934 -3.6445,5.7453 -3.6995,5.7631 -3.7378,5.8193 -3.6624,5.6711 -3.5884,5.5039 -3.6995,5.6329 -3.7556,5.7261 -3.5884,5.4297 -3.6063,5.4286 -3.6075,5.4285 -3.6063,5.3545 -3.6266,5.3736 -3.4952,5.1872 -3.5501,5.2433 -3.5334,5.1872 -3.476,5.094 -3.4211,5.039 -3.4402,4.9637 -3.4211,4.9829 -3.3458,4.8896 -3.31,4.7786 -3.2908,4.7414 -3.2155,4.6662 -3.2168,4.6292 -3.1056,4.481 -3.1236,4.4989 -3.1785,4.5933 -3.0124,4.3495 -2.9192,4.1835 -2.9383,4.2396 -2.8439,4.1093 -2.8261,4.0711 -1.2821,1.8785 1.171,2.4544 1.9525,3.9408 3.9421,7.9021 1.9704,3.7557 3.6816,7.0094 1.8784,3.4964 4.4989,8.1243 2.3421,4.1093 3.7186,6.4694 3.7939,6.3403 2.6396,4.3698 3.439,5.5588 3.96,6.2471 2.5476,3.923 4.4069,6.6928 3.0112,4.4439 4.1273,6.0236 3.1797,4.5001 4.7032,6.5626 2.2692,3.0674 5.3724,7.2138 2.9933,3.8859 4.8347,6.1909 2.8451,3.5884 5.2613,6.4896 3.4581,4.1452 5.0761,6.0237 2.305,2.6587 6.7119,7.6607 0.5616,0.6094 1.2654,1.3562 6.6737,7.3261 2.6779,2.826 7.2137,7.6046 c 11.3041,11.6386 23.0729,22.8864 35.3257,33.7447 22.8494,-26.6062 91.8088,-108.895 163.0169,-212.5479 z" />
      <path
         inkscape:connector-curvature="0"
         id="path4257"
         style="fill:#ffffff;fill-opacity:1;fill-rule:evenodd;stroke:none;stroke-width:1.15242684"
         d="m 2397.2044,1053.9117 -3.0495,-3.9038 -4.9637,-6.0989 -3.9982,-4.8527 -3.6804,-4.3316 -4.5921,-5.3365 -3.8119,-4.3508 -4.8717,-5.4656 -3.7736,-4.0902 -5.0199,-5.4106 -3.4581,-3.6625 -5.4106,-5.5958 -5.131,-5.1693 -3.0686,-3.04946 -5.9866,-5.8193 -4.2575,-4.05319 -5.3916,-5.0199 -3.3649,-3.12354 -5.8754,-5.24215 -4.7786,-4.23961 -5.2242,-4.46186 -3.9791,-3.40316 -6.3582,-5.22423 -4.3137,-3.51309 -5.0761,-4.01615 -5.3724,-4.20256 -3.9791,-3.01122 -6.8971,-5.20631 -3.8309,-2.78896 -6.3021,-4.53595 -7.1397,-4.98285 -3.6624,-2.49143 -10.7472,-7.15881 -7.8089,-5.00078 -4.2575,-2.69576 -10.9695,-6.65575 -5.3544,-3.10562 -6.9713,-4.03408 -11.5095,-6.35941 -12.1775,-6.4323 c -4.1094,-2.10188 -8.2175,-4.1464 -12.3269,-6.15388 l -11.9361,-5.69025 -0.4422,-0.21509 -3.3649,-1.5068 -9.1101,-4.09024 -11.7689,-5.03901 -6.8601,-2.76985 -6.0427,-2.41734 -0.4063,-0.16729 -3.0674,-1.15908 -9.0551,-3.439 -0.49,-0.19119 -4.9458,-1.76611 -6.7668,-2.39822 -6.9354,-2.32413 -5.6329,-1.87843 -6.3212,-1.98836 -6.731,-2.08276 -4.2014,-1.20808 -8.515,-2.4723 -5.6532,-1.52473 -6.6928,-1.76611 -5.6891,-1.45064 -7.2699,-1.7661 -5.2422,-1.19493 -7.9953,-1.78403 -4.1272,-0.83645 -8.0144,-1.63586 -6.0237,-1.13518 -7.1767,-1.28216 -5.1501,-0.8723 -7.2509,-1.17103 -5.9495,-0.86034 -7.4922,-1.03959 -4.7785,-0.60942 -7.6046,-0.90814 -6.0606,-0.65721 -6.7311,-0.66916 -6.4693,-0.56162 -6.0619,-0.48992 -5.9304,-0.39433 -8.1996,-0.50187 -4.2575,-0.20313 -4.8706,-0.17924 c 0,0 66.021,158.09143 42.0185,372.25603 -15.1529,135.1297 -58.2683,266.3173 -58.2683,266.3173 0,0 82.0665,-111.145 183.2829,-202.0803 160.5446,-144.2577 327.3172,-183.0236 327.3172,-183.0236 l -2.3241,-2.9371 z" />
      <path
         inkscape:connector-curvature="0"
         id="path4259"
         style="fill:#ffffff;fill-opacity:1;fill-rule:evenodd;stroke:none;stroke-width:1.15242684"
         d="m 1810.8028,1847.637 c 52.3187,-144.4812 129.3832,-255.7565 129.3832,-255.7565 l 0.8245,-1.5809 0.8604,-1.5248 1.1352,-1.8963 1.1591,-1.9143 1.3192,-2.0636 1.5617,-2.3982 1.7124,-2.4915 1.9334,-2.771 1.9704,-2.7711 1.9896,-2.6957 2.342,-3.0865 2.3433,-3.0483 2.4723,-3.1235 2.7698,-3.4402 2.8272,-3.439 2.8989,-3.4952 3.0124,-3.5704 3.0124,-3.4952 3.3279,-3.7736 3.402,-3.8859 3.4031,-3.7557 3.6063,-3.9791 3.8298,-4.1284 3.7556,-4.0903 3.7187,-3.96 3.9408,-4.1464 4.1273,-4.2945 4.1464,-4.2755 4.1835,-4.2587 4.3316,-4.3878 4.3878,-4.4057 4.4439,-4.4439 4.518,-4.481 4.6662,-4.573 4.7224,-4.6292 4.6291,-4.463 4.8156,-4.6292 4.8526,-4.6674 4.9458,-4.6662 5.0199,-4.7594 4.9828,-4.6662 5.0761,-4.7414 5.2422,-4.8718 5.1501,-4.7594 5.2063,-4.7594 5.3366,-4.8896 5.3174,-4.8526 5.3724,-4.8526 5.3545,-4.8717 5.4106,-4.8335 5.5218,-4.9267 5.4476,-4.8347 11.1559,-9.8904 5.5218,-4.8526 5.5779,-4.8897 5.6699,-4.9458 5.6341,-4.9088 5.5779,-4.8334 5.707,-4.9088 5.7823,-5.002 5.5779,-4.8143 5.7082,-4.8718 5.7261,-4.8896 5.6149,-4.7785 5.7452,-4.8526 5.7082,-4.8526 5.67,-4.7965 5.689,-4.7594 5.6711,-4.7606 5.7632,-4.8335 5.615,-4.7032 11.2299,-9.3527 5.6341,-4.6483 5.6138,-4.6662 5.5408,-4.555 5.56,-4.5742 5.5218,-4.536 5.4656,-4.5001 5.4298,-4.4427 5.3724,-4.3878 5.4847,-4.4439 5.3915,-4.4069 5.2254,-4.2576 5.2983,-4.2754 5.1872,-4.2205 5.2434,-4.2026 5.2242,-4.2205 4.9828,-4.034 4.9638,-3.9792 5.076,-4.0531 4.9088,-3.96 4.8335,-3.8489 4.7964,-3.8489 4.8156,-3.7927 4.7044,-3.7736 4.4989,-3.5883 4.6113,-3.6446 4.5729,-3.6254 4.2958,-3.4019 4.3125,-3.4032 4.3507,-3.4199 4.1465,-3.2908 4.1452,-3.2538 3.9229,-3.1235 3.868,-3.0125 3.997,-3.1223 3.7748,-2.9754 3.5884,-2.8069 3.5322,-2.7698 3.5143,-2.734 3.4211,-2.6766 3.3099,-2.5847 3.1415,-2.4544 0.3704,-0.2748 2.6217,4.5921 1.8402,3.2729 4.426,7.9762 2.1747,4.0711 4.1464,7.828 1.6729,3.2908 4.2767,8.5342 1.7482,3.5884 3.5883,7.5113 2.734,5.9125 2.7328,6.0236 2.5285,5.7823 2.9001,6.7119 0.2031,0.478 1.2452,3.0315 3.5883,8.8126 v 0 c 1.5821,3.96 3.1045,7.9391 4.6113,11.9361 l 4.3877,12.0485 2.2501,6.5625 1.8963,5.5409 0.251,0.7648 1.6358,5.1119 2.3983,7.4934 1.6179,5.4106 2.1748,7.3249 1.8593,6.7299 1.5056,5.4847 1.7493,6.731 1.7841,7.1947 1.2821,5.3365 1.5248,6.7299 1.5617,7.1217 1.195,5.6891 1.4494,7.4922 0.8962,4.7044 1.6371,9.2213 0.1434,0.8603 0.2509,1.6001 1.6179,10.1138 0.6811,4.9829 0.9679,7.0094 0.8723,7.0645 0.7767,6.8983 0.1195,0.5018 c 0.466,4.2588 0.8723,8.5163 1.2642,12.7918 l 0.4302,5.652 0.5616,6.8242 -8.3298,5.2613 -6.173,3.96 -6.3403,4.0352 -6.228,4.015 -6.265,3.9982 -6.2471,4.0162 -6.2841,4.0711 -6.3224,4.0723 -6.1538,4.015 -6.3212,4.1093 -6.2841,4.0903 -6.1539,4.0723 -6.3965,4.2014 -6.2841,4.1464 -6.1539,4.0711 -6.21,4.1464 -6.2471,4.1834 -6.1718,4.1273 -6.0989,4.0903 -12.3448,8.3668 -6.0058,4.1094 -6.1168,4.1823 -5.9866,4.0914 -5.9495,4.1273 -5.9496,4.1273 -5.9125,4.1284 -5.9125,4.1452 -5.7631,4.0532 -5.7261,4.0724 -5.8385,4.1643 -5.634,4.0341 -5.5218,3.997 -5.615,4.0532 -5.5026,4.0162 -5.4298,3.997 -5.3724,3.9612 -5.1322,3.8297 -5.2792,3.9971 -5.2254,3.942 -5.0569,3.8489 -4.9829,3.8297 -4.9076,3.7927 -4.8717,3.8119 -4.7032,3.6636 -4.6483,3.7366 -4.6483,3.7186 -4.4439,3.6063 -4.2014,3.4402 -4.2575,3.5692 -4.3137,3.5884 -4.0723,3.4772 -3.8859,3.31 -3.8668,3.4019 -3.7748,3.3279 -3.4581,3.0686 -3.4581,3.1606 -3.31,3.0853 -3.2526,3.0494 -3.1797,3.0495 -2.863,2.771 -2.7149,2.752 -2.7149,2.7519 -2.305,2.4173 -2.305,2.4723 -2.3062,2.5106 -2.0075,2.2679 -1.8593,2.1569 -1.5618,1.8784 -1.4124,1.7482 -1.3574,1.7482 -1.0396,1.4124 -1.0038,1.4506 -3.5513,5.2051 -3.6625,5.4477 -3.6254,5.5218 -3.6624,5.652 -3.6278,5.7273 -3.5514,5.6699 -3.5692,5.8193 -3.5143,5.8384 -3.4952,5.9125 -3.4581,5.9126 -3.439,5.9674 -3.4402,6.0989 -3.4019,6.1539 -3.3841,6.1169 -3.3649,6.21 -3.2717,6.1909 -3.2909,6.2471 -3.2729,6.3403 -3.2717,6.3391 -3.1797,6.3224 -3.1606,6.3582 -3.1414,6.3952 -3.1236,6.4144 -3.1044,6.4706 -3.0495,6.4323 -2.9933,6.3964 -2.9753,6.4885 -3.0495,6.6187 -2.8989,6.3773 -2.9013,6.4885 -2.9001,6.5267 -2.8248,6.4693 -2.8069,6.5267 -2.808,6.5255 -2.7711,6.4885 -2.7149,6.4705 -2.7148,6.4514 -2.6396,6.3774 -2.6396,6.4705 -2.6217,6.4514 -2.5476,6.3212 -2.5285,6.3582 -2.5655,6.4335 -2.4735,6.2841 -2.3791,6.0978 -2.4173,6.3032 -2.4735,6.3953 -2.3241,6.0618 -2.3242,6.1169 -2.305,6.0798 -2.268,6.0607 -2.25,6.0606 -2.176,5.8755 -2.1939,5.9316 -2.1568,5.8934 -2.1198,5.7823 -2.1007,5.7261 -2.0457,5.6711 -2.0637,5.689 -2.0266,5.578 -1.9525,5.4656 -1.9334,5.4477 -1.9154,5.3174 -1.8964,5.3174 -1.8223,5.131 -1.8581,5.1502 -1.8593,5.2804 -1.784,4.9637 -1.7112,4.8156 -1.729,4.8526 -1.692,4.7223 -1.6741,4.6674 -0.7648,2.1198 -2.6957,0.478 -4.3329,0.7289 -8.7193,1.3742 -4.2014,0.5974 -7.8459,1.0994 -3.9421,0.5018 -9.2212,1.0635 -4.7045,0.5019 -7.4181,0.7408 -7.3631,0.5975 -5.094,0.4063 -6.5076,0.4302 -7.399,0.4301 -4.6674,0.2032 -7.9941,0.3346 -5.3915,0.1194 -7.289,0.1434 h -5.5218 -8.0502 -3.8298 l -8.999,-0.1673 -4.8896,-0.1672 -7.8651,-0.3346 -4.555,-0.2271 -8.3299,-0.5018 -5.4094,-0.3944 -7.8459,-0.6333 -3.4964,-0.2987 -10.1509,-1.0276 -0.8245,-0.1195 -1.8402,-0.2271 -9.8354,-1.171 -3.868,-0.5258 -10.3744,-1.4315 c -16.0443,-2.4173 -32.0528,-5.4477 -48.0051,-9.0922 8.3299,-34.0614 35.0652,-138.0286 77.8652,-256.2763 z" />
    </g>
    <path
       inkscape:connector-curvature="0"
       id="path16"
       style="fill:#004e75;fill-opacity:1;fill-rule:evenodd;stroke:none;stroke-width:1"
       d="m 5929.2388,1074.6046 c -1.9534,-0.9989 -3.9082,-1.9718 -5.8601,-2.9262 l -5.6756,-2.7048 -0.2151,-0.1537 -1.5999,-0.7223 -4.3309,-1.9457 -5.5957,-2.3944 -3.2612,-1.3217 -2.8724,-1.1527 -0.1998,-0.1537 -1.46,-0.5532 -4.3048,-1.6353 -0.2305,-0.1536 -2.3514,-0.8453 -3.2182,-1.1373 -3.2965,-1.1065 -2.6773,-0.8914 -3.0061,-0.9375 -3.2012,-0.9836 -1.9964,-0.5686 -4.0481,-1.168 -2.6864,-0.7224 -3.1829,-0.8452 -2.7049,-0.6916 -3.4564,-0.8453 -2.4927,-0.5686 -3.8007,-0.8453 -1.9626,-0.3996 -3.8099,-0.7838 -2.8631,-0.5379 -3.4134,-0.5994 -2.4467,-0.4149 -3.4487,-0.5533 -2.8278,-0.3996 -3.5625,-0.4918 -2.2714,-0.292 -3.6147,-0.4303 -2.8832,-0.3074 -3.1997,-0.3227 -3.0753,-0.2766 -2.8816,-0.2306 -2.8201,-0.1844 -3.8975,-0.2459 -2.0241,-0.1537 -2.316,-0.1537 -0.1537,3.103 c -2.94,73.0393 -13.194,284.8786 -42.2037,341.3352 -48.6955,94.7644 -145.238,185.7373 -165.0466,213.5376 15.9373,12.6745 33.3514,23.9719 52.1426,33.6327 18.8542,9.6791 38.2294,17.2727 57.8705,22.85 13.4276,-36.001 48.4388,-202.3277 77.3256,-258.563 32.4831,-63.2095 195.4887,-190.2818 252.5262,-233.4707 l 2.5374,-1.9164 -1.1065,-1.3986 -1.4447,-1.8565 -2.3606,-2.9001 -1.8996,-2.3068 -1.7505,-2.0594 -2.1838,-2.5358 -1.812,-2.0702 -2.316,-2.5973 -1.7936,-1.9456 -2.3867,-2.5712 -1.6444,-1.7428 -2.5712,-2.6603 -2.4406,-2.4574 -1.46,-1.4447 -2.8462,-2.7663 -2.0241,-1.9273 -2.5635,-2.3867 -1.5998,-1.4908 -2.7925,-2.4927 -2.273,-2.0149 -2.4821,-2.1208 -1.8934,-1.6183 -3.0214,-2.4836 -2.0517,-1.6706 -2.4129,-1.9088 -2.5543,-1.9994 -1.8919,-1.4293 -3.2796,-2.4759 -1.8212,-1.3217 -2.9953,-2.1562 -3.395,-2.3698 -1.7412,-1.1834 -5.1086,-3.4026 -3.713,-2.3776 -2.0241,-1.2756 -5.2145,-3.1643 -2.5466,-1.4754 -3.315,-1.9196 -5.4712,-3.023 -5.7894,-3.0583 z"
       inkscape:export-filename="C:\Users\William\text4685.png"
       inkscape:export-xdpi="90"
       inkscape:export-ydpi="90" />
    <path
       inkscape:connector-curvature="0"
       id="path18"
       style="fill:#00adef;fill-opacity:1;fill-rule:evenodd;stroke:none;stroke-width:1"
       d="m 5701.1502,1518.032 -110.322,80.1089 c 15.9372,12.676 33.3514,23.9735 52.1426,33.6342 18.8542,9.6791 38.2294,17.2712 57.8705,22.85 l 0.3074,-136.5931 z"
       inkscape:export-filename="C:\Users\William\text4685.png"
       inkscape:export-xdpi="90"
       inkscape:export-ydpi="90" />
    <path
       inkscape:connector-curvature="0"
       id="path20"
       style="fill:#006e9e;fill-opacity:1;fill-rule:evenodd;stroke:none;stroke-width:1"
       d="m 5621.3948,1086.7397 c 0,0 82.4173,107.8477 114.7328,263.1613 33.917,163.004 5.1885,313.2091 5.1885,313.2091 v 0.1537 c 32.8381,4.7474 65.8883,4.1465 97.9472,-1.3985 v -0.2767 c 0,0 36.4789,-165.9379 12.1197,-348.371 -21.3839,-160.1117 -94.9442,-271.8568 -94.9442,-271.8568 -47.7933,4.606 -94.0667,20.1452 -134.9748,45.3804 z"
       inkscape:export-filename="C:\Users\William\text4685.png"
       inkscape:export-xdpi="90"
       inkscape:export-ydpi="90" />
    <path
       inkscape:connector-curvature="0"
       id="path22"
       style="fill:#007eb2;fill-opacity:1;fill-rule:evenodd;stroke:none;stroke-width:1"
       d="m 5581.1321,1116.272 c 0,0 58.5329,170.7652 201.3396,243.9889 142.7175,73.1715 315.6481,21.1088 315.6481,21.1088 l -210.2226,268.0224 c 0,0 -32.6705,-157.7357 -143.5935,-214.8547 -111.1181,-57.2173 -258.4308,7.8227 -258.4308,7.8227 z"
       inkscape:export-filename="C:\Users\William\text4685.png"
       inkscape:export-xdpi="90"
       inkscape:export-ydpi="90" />
    <path
       inkscape:connector-curvature="0"
       id="path24"
       style="fill:#00adef;fill-opacity:1;fill-rule:evenodd;stroke:none;stroke-width:1"
       d="m 6096.1403,1382.6423 -2.8647,1.8734 -3.0045,1.9533 -2.8909,1.8827 -2.8293,1.8657 -3.0399,2.0056 -2.9431,1.9365 -2.8555,1.8919 -2.8632,1.9087 -2.9354,1.9626 -2.917,1.9457 -2.7847,1.8826 -5.7279,3.8622 -2.7572,1.8995 -2.9338,2.0072 -2.7233,1.8565 -2.7126,1.8826 -2.7679,1.9181 -2.7125,1.901 -2.7756,1.9442 -2.6357,1.8473 -2.6158,1.8642 -2.731,1.9549 -2.5542,1.8196 -2.502,1.812 -2.625,1.9011 -2.4743,1.8027 -2.5021,1.8396 -2.4835,1.8381 -2.2008,1.626 -2.396,1.8212 -2.4482,1.8565 -2.2807,1.7321 -2.2361,1.7151 -2.1931,1.6967 -2.2362,1.732 -1.9979,1.5738 -2.0594,1.6537 -2.1116,1.6874 -1.8919,1.5384 -1.7505,1.4293 -1.9088,1.6091 -1.918,1.5907 -1.7581,1.5061 -1.6183,1.3832 -1.5999,1.3985 -1.6352,1.4446 -1.3678,1.2142 -1.3678,1.2448 -1.3217,1.2295 -1.291,1.2141 -1.3217,1.2603 -1.0143,0.9835 -0.9375,0.9529 -0.9682,0.9836 -0.6609,0.6916 -0.8606,0.9221 -0.7531,0.8299 -0.4918,0.5533 -0.5072,0.584 -0.2612,0.3073 -0.2152,0.2613 v 0 0 l -1.4446,2.104 -1.5384,2.2976 -1.5369,2.3253 -1.5553,2.4036 -1.5476,2.439 -1.5215,2.4405 -1.5369,2.4928 -1.5061,2.4836 -1.5215,2.5543 -1.4907,2.5727 -1.4754,2.5803 -1.4908,2.6342 -1.5061,2.731 -1.4908,2.7141 -1.4446,2.6603 -1.4447,2.7495 -1.46,2.7663 -1.46,2.8202 -1.4446,2.8201 -1.3832,2.7571 -1.4139,2.8279 -1.4293,2.9 -1.3832,2.8632 -1.3832,2.8831 -1.3831,2.8986 -1.3064,2.7832 -1.3524,2.9708 -1.4139,3.0675 -1.2756,2.811 -1.291,2.9169 -1.337,2.9969 -1.2603,2.8632 -2.5819,6.0014 -1.2602,2.9262 -1.2449,2.9431 -1.2295,2.9431 -1.168,2.8386 -1.2141,2.9876 -1.2295,3.0138 -1.1526,2.8647 -1.1527,2.8893 -1.1834,2.9877 -1.1372,2.8816 -1.0758,2.7402 -1.122,2.917 -1.1526,3.0137 -1.0758,2.7848 -1.0758,2.854 -1.0451,2.7586 -1.0297,2.7495 -1.0604,2.8724 -1.0143,2.731 -0.999,2.7141 -0.9836,2.7402 -1.0297,2.794 -0.9528,2.6065 -0.9529,2.625 -0.9989,2.7848 -0.9222,2.545 -0.8913,2.4759 -0.4457,1.2602 c 73.8077,-25.3597 138.3067,-78.1662 176.7943,-153.0682 18.9864,-36.9754 29.9196,-75.9563 33.4283,-114.9557 l -1.9795,1.2756 z"
       inkscape:export-filename="C:\Users\William\text4685.png"
       inkscape:export-xdpi="90"
       inkscape:export-ydpi="90" />
    <path
       inkscape:connector-curvature="0"
       id="path26"
       style="fill:#00adef;fill-opacity:1;fill-rule:evenodd;stroke:none;stroke-width:1"
       d="m 5486.3754,1441.6177 1.5062,-2.1669 1.5384,-2.2362 1.6705,-2.439 1.5738,-2.2991 1.5722,-2.2884 1.6721,-2.4666 1.6429,-2.3945 1.626,-2.4052 1.6275,-2.4205 1.7136,-2.5374 1.6353,-2.4405 1.6367,-2.4482 1.6875,-2.5359 1.6444,-2.502 1.7674,-2.6956 1.7244,-2.6173 1.5983,-2.4574 1.689,-2.6081 1.7321,-2.6956 1.6797,-2.625 1.6537,-2.608 1.7321,-2.7572 1.7228,-2.7325 1.6275,-2.5973 1.6706,-2.7141 1.6798,-2.7218 1.6429,-2.7233 3.3857,-5.5865 1.5922,-2.6956 1.6613,-2.8279 1.6091,-2.7494 1.5461,-2.6788 1.6706,-2.9338 1.6183,-2.8371 1.5061,-2.6787 1.5476,-2.8109 1.5369,-2.8017 1.5215,-2.7941 1.5368,-2.8462 1.4754,-2.7925 1.4293,-2.731 1.4446,-2.8294 1.4447,-2.8293 1.3985,-2.7925 1.3832,-2.7832 1.3217,-2.7234 1.3371,-2.8017 1.337,-2.8201 1.2756,-2.7402 1.2449,-2.7049 1.2141,-2.7141 1.1988,-2.7218 1.1372,-2.6695 1.1373,-2.6957 1.0912,-2.6526 1.0912,-2.6864 1.045,-2.6603 0.999,-2.5988 0.9682,-2.5912 0.876,-2.3944 v 0 0 l 0.1537,-0.3228 0.1537,-0.3842 0.1844,-0.7377 0.1691,-0.7377 0.2305,-1.1065 0.2613,-1.2295 0.169,-0.9375 0.2306,-1.3678 0.2151,-1.3217 0.2152,-1.3985 0.2612,-1.812 0.2459,-1.7597 0.2306,-1.7935 0.2151,-1.8212 0.1998,-1.8212 0.2152,-2.1731 0.1998,-2.1055 0.169,-2.1209 0.1998,-2.2976 0.1691,-2.4928 0.1844,-2.4835 0.1537,-2.2638 0.1537,-2.439 0.1537,-2.6957 0.1536,-2.6341 0.1537,-2.5374 0.1537,-2.8278 0.1537,-2.7679 0.1537,-2.8186 0.1537,-2.8647 0.1537,-3.0753 0.1536,-3.0045 v -2.7418 -3.083 -3.1044 -3.0584 -3.2427 -3.0861 -3.1459 -3.3504 -3.2166 -3.2105 -3.4026 -3.3074 -3.3672 -3.3058 l -0.1536,-3.2981 v -3.544 -3.3504 l -0.1845,-6.902 -0.1537,-3.3596 -0.1536,-3.501 -0.1537,-3.5347 -0.1537,-3.4395 -0.1537,-3.4211 -0.1537,-3.5255 -0.1537,-3.6332 -0.1537,-3.3949 -0.1536,-3.438 -0.1691,-3.5793 -0.1537,-3.4211 -0.1537,-1.8119 c -29.5,25.4996 -54.6999,56.976 -73.6171,93.7823 -38.3785,74.7176 -43.8236,157.6742 -21.6467,232.3042 l 0.5071,-0.7377 z"
       inkscape:export-filename="C:\Users\William\text4685.png"
       inkscape:export-xdpi="90"
       inkscape:export-ydpi="90" />
    <path
       inkscape:connector-curvature="0"
       id="path28"
       style="fill:#008dc6;fill-opacity:1;fill-rule:evenodd;stroke:none;stroke-width:1"
       d="m 6098.2259,1331.7199 c 0,0 -135.6726,-4.191 -280.7599,59.9729 -152.2553,67.3468 -257.6455,178.1637 -257.6455,178.1637 l -0.1537,0.1537 c -22.9822,-23.9289 -41.7381,-51.1529 -55.9002,-80.4378 l 0.2612,-0.1537 c 0,0 113.6632,-126.2761 276.1555,-212.7061 142.6207,-75.8595 276.2953,-81.1186 276.2953,-81.1186 24.0872,41.5275 38.3969,88.1974 41.7119,136.1428 z"
       inkscape:export-filename="C:\Users\William\text4685.png"
       inkscape:export-xdpi="90"
       inkscape:export-ydpi="90" />
    <path
       inkscape:connector-curvature="0"
       id="path34"
       style="fill:#00adef;fill-opacity:1;fill-rule:evenodd;stroke:none;stroke-width:1"
       d="m 5655.6468,1486.4326 c 41.3585,-60.2127 63.0328,-120.8065 63.0328,-120.8065 l 0.3689,-0.753 0.3535,-0.7531 0.4303,-0.9682 0.4303,-0.9836 0.4303,-1.0758 0.4918,-1.2756 0.4918,-1.3371 0.5379,-1.5215 0.5226,-1.5215 0.4917,-1.5215 0.538,-1.7597 0.5379,-1.7489 0.5071,-1.8212 0.5687,-2.024 0.5532,-2.0425 0.5379,-2.0855 0.5379,-2.1563 0.5226,-2.1408 0.5379,-2.3237 0.5532,-2.396 0.5072,-2.3514 0.5379,-2.5005 0.5379,-2.6172 0.5379,-2.5804 0.5072,-2.5374 0.5071,-2.6695 0.5226,-2.7833 0.5071,-2.794 0.4918,-2.7832 0.4918,-2.9001 0.4918,-2.9077 0.4764,-2.9523 0.4765,-2.98 0.4764,-3.0753 0.4764,-3.1121 0.4457,-3.023 0.4457,-3.1368 0.4611,-3.1736 0.4456,-3.1997 0.4457,-3.2628 0.4304,-3.2166 0.4149,-3.2705 0.4303,-3.3764 0.4304,-3.3058 0.3995,-3.332 0.3996,-3.4133 0.3996,-3.3934 0.3842,-3.4211 0.3996,-3.4302 0.3535,-3.4195 0.3842,-3.5102 0.3688,-3.438 0.7224,-7.045 0.3534,-3.4825 0.3535,-3.5086 0.3535,-3.5533 0.3381,-3.5363 0.3227,-3.501 0.3228,-3.5609 0.3227,-3.6162 0.3074,-3.501 0.3074,-3.544 0.292,-3.5701 0.292,-3.4917 0.292,-3.5625 0.292,-3.5532 0.2766,-3.5179 0.2613,-3.5194 0.2613,-3.5086 0.2766,-3.5702 0.2613,-3.4748 0.5071,-6.9205 0.2459,-3.4656 0.2459,-3.4641 0.2305,-3.4026 0.2306,-3.4118 0.2305,-3.395 0.2305,-3.3503 0.2152,-3.3319 0.1998,-3.2966 0.1998,-3.3504 0.2151,-3.2981 0.1998,-3.1982 0.1998,-3.2366 0.1844,-3.1736 0.1691,-3.1813 0.1844,-3.1905 0.1844,-3.0492 0.1691,-3.0138 0.1691,-3.086 0.1536,-2.9969 0.1537,-2.9338 0.1537,-2.917 0.1537,-2.9093 0.1537,-2.8631 0.1537,-2.731 0.1537,-2.794 0.1536,-2.7664 0.1537,-2.5988 0.1537,-2.6158 0.1537,-2.6341 0.1537,-2.5097 0.1537,-2.502 0.1537,-2.3776 0.1536,-2.3252 0.1537,-2.4129 0.1537,-2.2807 0.1537,-2.1655 0.1537,-2.13 0.1537,-2.1132 0.1537,-2.0686 0.1537,-1.998 0.1536,-1.8903 v -0.2305 l -2.502,0.2612 -1.7766,0.1998 -4.3047,0.5072 -2.1824,0.2613 -4.1633,0.5686 -1.7413,0.2613 -4.4815,0.7069 -1.8657,0.3228 -3.9052,0.6916 -3.0414,0.584 -3.0861,0.6147 -2.9338,0.6147 -3.3857,0.7377 h -0.2459 l -1.5215,0.3689 -4.4016,1.0451 v 0 c -1.9733,0.4917 -3.9359,0.9989 -5.8985,1.5368 l -5.86,1.6337 -3.1644,0.9528 -2.6695,0.7992 -0.3535,0.1537 -2.4313,0.7838 -3.5625,1.1526 -2.5358,0.8761 -3.4303,1.1987 -3.1198,1.1373 -2.5466,0.9375 -3.0844,1.1834 -3.2705,1.3063 -2.4129,0.9836 -3.023,1.2602 -3.1905,1.3832 -2.5281,1.1065 -3.2981,1.5061 -2.0579,0.9683 -4.0219,1.9195 -0.3689,0.1844 -0.6762,0.3535 -4.357,2.1839 -2.1132,1.1065 -2.9784,1.5553 -2.9708,1.6276 -2.8985,1.6075 -0.1998,0.1537 c -1.7889,0.999 -3.5486,2.0164 -5.3083,3.0584 l -2.3053,1.3985 -2.794,1.6798 0.2613,4.6674 0.1844,3.4826 0.1998,3.5701 0.1844,3.5194 0.1844,3.5271 0.1844,3.5256 0.1691,3.5532 0.169,3.5716 0.1691,3.4918 0.1691,3.5793 0.169,3.5625 0.1537,3.5086 0.1537,3.624 0.1537,3.5808 0.1537,3.5087 0.1536,3.5532 0.1537,3.5717 0.1537,3.5271 0.1537,3.4917 0.1998,7.0803 v 3.4549 3.5271 l 0.1537,3.4472 v 3.4472 3.4379 3.4303 3.4303 3.3488 3.3427 3.4026 3.3057 3.2351 3.2889 3.2428 3.1997 3.1737 3.0491 l -0.1537,3.1475 -0.1537,3.1106 -0.1537,3.0153 -0.1537,2.9877 -0.1537,2.9523 -0.1536,2.9338 -0.1537,2.8294 -0.1691,2.8371 -0.1537,2.8201 -0.1537,2.7218 -0.169,2.5711 -0.1998,2.6358 -0.1998,2.6603 -0.2152,2.545 -0.1997,2.4037 -0.2459,2.4405 -0.2459,2.3867 -0.2306,2.1839 -0.2612,2.2085 -0.2613,2.1393 -0.2766,2.0963 -0.292,2.0763 -0.2613,1.8734 -0.3074,1.8135 -0.3074,1.8027 -0.292,1.5646 -0.3227,1.5737 -0.3227,1.5907 -0.3228,1.3985 -0.3227,1.3217 -0.292,1.1373 -0.2767,1.0297 -0.292,1.0143 -0.2612,0.7992 -0.2613,0.7838 -1.0297,2.8109 -1.0912,2.9262 -1.1372,2.9262 -1.1681,2.9876 -1.1987,2.9877 -1.2141,2.9354 -1.2602,2.9876 -1.2756,2.9769 -1.3217,2.9984 -1.3371,2.9693 -1.3525,2.9784 -1.3985,3.0153 -1.4293,3.0215 -1.4293,3.0061 -1.4753,3.0138 -1.4908,2.9876 -1.4908,2.9969 -1.5476,3.023 -1.5461,3.0138 -1.566,2.9784 -1.5814,2.98 -1.5999,2.9877 -1.6183,2.9876 -1.6429,2.9877 -1.6445,2.96 -1.6352,2.9262 -1.689,2.9523 -1.7136,3.0061 -1.6537,2.8816 -1.7151,2.9169 -1.7228,2.9339 -1.7075,2.8816 -1.7489,2.8909 -1.7413,2.8908 -1.7413,2.8724 -1.7504,2.837 -1.7413,2.8371 -1.7413,2.7755 -1.7674,2.8202 -1.7673,2.8017 -1.7336,2.731 -1.7582,2.7402 -1.7766,2.7679 -1.7413,2.6956 -1.7074,2.6173 -1.7582,2.6772 -1.7858,2.7218 -1.7059,2.5819 -1.7152,2.5804 -1.7151,2.5804 -1.7136,2.5466 -1.7244,2.5543 -1.6613,2.4666 -1.6875,2.4928 -1.6798,2.4651 -1.6536,2.4221 -1.626,2.396 -1.6353,2.3606 -1.6275,2.3683 -1.5906,2.3253 -1.5722,2.2699 -1.5661,2.2561 -1.5369,2.2177 -1.5215,2.2008 -1.4753,2.1301 -1.4908,2.1393 -1.5061,2.1839 -1.4293,2.0671 -1.3832,1.9902 -1.3985,2.0148 -1.3525,1.9534 -1.337,1.9364 -0.5994,0.8914 0.5533,1.168 0.9221,1.8734 1.8749,3.7561 0.9375,1.7859 1.749,3.3319 0.8914,1.6629 2.1393,3.8636 1.1065,1.9534 1.7689,3.0752 1.8028,3.0154 1.2602,2.0763 1.6352,2.6434 1.8827,2.9692 1.2141,1.8657 2.0947,3.1813 1.4293,2.1132 1.9611,2.8647 1.5061,2.1378 2.2361,3.1214 1.0758,1.46 2.5543,3.4302 1.4293,1.8474 2.2976,2.943 1.3524,1.706 2.502,3.0844 1.6444,1.9718 2.4129,2.8632 1.0912,1.2602 3.1905,3.6424 0.2613,0.292 0.5994,0.6455 3.1736,3.4825 1.2756,1.3371 3.4302,3.6147 c 5.3744,5.5342 10.9686,10.8809 16.7933,16.0433 10.8641,-12.6484 43.6484,-51.7707 77.5024,-101.0502 z"
       inkscape:export-filename="C:\Users\William\text4685.png"
       inkscape:export-xdpi="90"
       inkscape:export-ydpi="90" />
    <path
       inkscape:connector-curvature="0"
       id="path36"
       style="fill:#00adef;fill-opacity:1;fill-rule:evenodd;stroke:none;stroke-width:1"
       d="m 6032.1255,1159.2749 -1.4447,-1.8565 -2.3621,-2.8985 -1.8996,-2.3069 -1.7505,-2.0609 -2.1823,-2.5358 -1.8135,-2.0686 -2.3145,-2.5989 -1.7951,-1.9441 -2.3867,-2.5727 -1.6445,-1.7413 -2.5711,-2.6603 -2.4406,-2.4574 -1.46,-1.4447 -2.8462,-2.7663 -2.0241,-1.9272 -2.5619,-2.3868 -1.6015,-1.4907 -2.7924,-2.4928 -2.2715,-2.0148 -2.4836,-2.1209 -1.8919,-1.6183 -3.023,-2.4821 -2.0517,-1.6721 -2.4113,-1.9087 -2.5558,-1.998 -1.8903,-1.4292 -3.2812,-2.4744 -1.8197,-1.3217 -2.9969,-2.1562 -3.3949,-2.3698 -1.7412,-1.1834 -5.1086,-3.4011 -3.7115,-2.3791 -2.0256,-1.2756 -5.2145,-3.1644 -2.5451,-1.4753 -3.315,-1.918 -5.4712,-3.023 -5.7894,-3.0584 c -1.9533,-0.999 -3.9082,-1.9718 -5.86,-2.9262 l -5.6756,-2.7049 -0.2152,-0.1536 -1.5999,-0.7224 -4.3309,-1.9456 -5.5957,-2.3945 -3.2612,-1.3217 -2.8724,-1.1526 -0.1998,-0.1537 -1.46,-0.5533 -4.3047,-1.6352 -0.2306,-0.1537 -2.3529,-0.8452 -3.2166,-1.1373 -3.2966,-1.1066 -2.6772,-0.8913 -3.0061,-0.9529 -3.2013,-0.9836 -1.9964,-0.5686 -4.0481,-1.168 -2.6879,-0.7224 -3.1813,-0.8452 -2.7049,-0.6916 -3.4564,-0.8453 -2.4928,-0.5686 -3.8007,-0.8453 -1.9625,-0.3996 -3.8099,-0.7838 -2.8632,-0.5379 -3.4134,-0.6147 -2.4466,-0.415 -3.4488,-0.5533 -2.8278,-0.3995 -3.5624,-0.4918 -2.2715,-0.292 -3.6162,-0.4304 -2.8817,-0.3073 -3.1997,-0.3228 -3.0753,-0.2612 -2.8816,-0.2306 -2.8201,-0.1844 -3.8975,-0.2459 -2.024,-0.1537 -2.3161,-0.1537 c 0,0 31.3873,75.1587 19.9761,176.9788 -7.2032,64.2423 -27.7019,126.6112 -27.7019,126.6112 0,0 39.0163,-52.8404 87.137,-96.0723 76.3266,-68.5839 155.6148,-87.0139 155.6148,-87.0139 l -1.1065,-1.3986 z"
       inkscape:export-filename="C:\Users\William\text4685.png"
       inkscape:export-xdpi="90"
       inkscape:export-ydpi="90" />
    <path
       inkscape:connector-curvature="0"
       id="path38"
       style="fill:#00adef;fill-opacity:1;fill-rule:evenodd;stroke:none;stroke-width:1"
       d="m 5753.3374,1536.6296 c 24.8741,-68.69 61.5128,-121.5919 61.5128,-121.5919 l 0.3843,-0.753 0.3995,-0.7223 0.5379,-0.9068 0.5533,-0.9067 0.6301,-0.9836 0.7377,-1.1373 0.8146,-1.1834 0.9221,-1.3217 0.9375,-1.3217 0.9374,-1.2756 1.122,-1.46 1.1065,-1.4447 1.1834,-1.4907 1.3217,-1.6352 1.3524,-1.6352 1.3832,-1.6614 1.4293,-1.6982 1.4292,-1.6614 1.583,-1.7935 1.6168,-1.8488 1.6183,-1.7843 1.7136,-1.8919 1.8212,-1.9626 1.7858,-1.9441 1.7674,-1.8842 1.8734,-1.9703 1.9626,-2.0424 1.9703,-2.0333 1.9902,-2.0225 2.0594,-2.0871 2.0855,-2.0947 2.1132,-2.1117 2.147,-2.1316 2.2192,-2.1746 2.2454,-2.2008 2.2008,-2.1209 2.2883,-2.2023 2.3084,-2.2177 2.3499,-2.2177 2.3867,-2.2638 2.3699,-2.2192 2.4128,-2.2531 2.4928,-2.316 2.4482,-2.2638 2.4744,-2.2623 2.5373,-2.3252 2.5282,-2.3069 2.5542,-2.3068 2.5466,-2.316 2.5712,-2.2976 2.6249,-2.3422 2.5912,-2.2976 5.3022,-4.7028 2.6265,-2.3084 2.651,-2.3237 2.6957,-2.3514 2.6787,-2.333 2.6511,-2.2991 2.7157,-2.333 2.7479,-2.3775 2.6526,-2.2899 2.7125,-2.3161 2.7234,-2.3252 2.668,-2.2715 2.7325,-2.3068 2.7126,-2.3069 2.6971,-2.2807 2.7034,-2.2622 2.6972,-2.2623 2.7402,-2.2991 2.6695,-2.2362 5.3375,-4.4461 2.6803,-2.21 2.668,-2.2192 2.6342,-2.1655 2.6434,-2.1746 2.625,-2.1547 2.5988,-2.1409 2.5819,-2.1116 2.5527,-2.0871 2.6081,-2.1116 2.5635,-2.0948 2.4851,-2.0255 2.5189,-2.0318 2.4651,-2.0071 2.4928,-1.9979 2.4851,-2.0056 2.3668,-1.918 2.3621,-1.8919 2.4114,-1.9272 2.3345,-1.8827 2.2976,-1.8304 2.2807,-1.8304 2.2899,-1.8027 2.2361,-1.7935 2.1393,-1.706 2.1916,-1.732 2.1746,-1.7244 2.0425,-1.6183 2.0502,-1.6167 2.0686,-1.626 1.9703,-1.5646 1.9718,-1.5476 1.8657,-1.4907 1.8366,-1.4293 1.9026,-1.4908 1.7935,-1.4139 1.7059,-1.3371 1.6798,-1.3217 1.6706,-1.3063 1.626,-1.2756 1.5737,-1.2295 1.4908,-1.168 0.1844,-0.1537 1.2449,2.1839 0.876,1.5553 2.1039,3.7914 1.0297,1.9365 1.9718,3.7207 0.7992,1.5645 2.0333,4.0574 0.8299,1.7074 1.7059,3.5701 1.3063,2.811 1.291,2.8631 1.1987,2.7495 1.3832,3.1905 0.1537,0.2305 0.5994,1.4447 1.7059,4.1895 v 0 c 0.753,1.8826 1.4754,3.7745 2.1916,5.6741 l 2.087,5.7278 1.0758,3.1214 0.9068,2.6342 0.1536,0.3535 0.7838,2.4313 1.1373,3.5624 0.7685,2.5712 1.0296,3.4825 0.8761,3.2013 0.7223,2.6065 0.8299,3.1997 0.8453,3.4211 0.6147,2.5374 0.7223,3.1997 0.7377,3.3842 0.5687,2.7064 0.6915,3.5609 0.4304,2.2361 0.7838,4.3847 v 0.3996 l 0.1537,0.753 0.7684,4.8089 0.3227,2.3683 0.4611,3.3319 0.4149,3.3596 0.3689,3.2796 v 0.2459 c 0.2151,2.0241 0.4149,4.0496 0.5994,6.0814 l 0.1998,2.6879 0.2612,3.2428 -3.9605,2.502 -2.9338,1.8827 -3.0138,1.918 -2.9616,1.9103 -2.9784,1.8996 -2.9707,1.9103 -2.9877,1.9349 -3.0061,1.9364 -2.9262,1.9088 -3.0045,1.9534 -2.9877,1.9441 -2.9246,1.9364 -3.0415,1.998 -2.9877,1.9718 -2.9246,1.9349 -2.9538,1.9702 -2.9693,1.9902 -2.9354,1.9611 -2.8985,1.9456 -5.8693,3.9774 -2.8554,1.9534 -2.9078,1.9887 -2.8463,1.9441 -2.8293,1.9641 -2.8278,1.9611 -2.811,1.9641 -2.8109,1.9702 -2.7402,1.9273 -2.7233,1.9364 -2.774,1.9795 -2.6788,1.9164 -2.625,1.9011 -2.6695,1.9273 -2.6157,1.9087 -2.5819,1.9011 -2.5543,1.8827 -2.4405,1.8212 -2.5097,1.8995 -2.4836,1.8735 -2.4037,1.8304 -2.3698,1.8211 -2.3329,1.8028 -2.3161,1.8135 -2.2361,1.7397 -2.21,1.7782 -2.21,1.7673 -2.1132,1.7136 -1.9979,1.6368 -2.0241,1.6967 -2.0502,1.7059 -1.9349,1.6537 -1.8473,1.5737 -1.8396,1.6168 -1.7935,1.5814 -1.6445,1.46 -1.6444,1.5062 -1.5737,1.4754 -1.5461,1.4446 -1.5061,1.4447 -1.3679,1.3217 -1.2909,1.3063 -1.291,1.3063 -1.0912,1.1527 -1.0911,1.168 -1.0912,1.1987 -0.9528,1.0758 -0.8761,1.0297 -0.7377,0.8914 -0.6762,0.8299 -0.6455,0.8299 -0.4917,0.6762 -0.4765,0.6916 -1.6874,2.4744 -1.7413,2.5896 -1.7244,2.6249 -1.7412,2.688 -1.7244,2.7218 -1.689,2.6972 -1.6967,2.7663 -1.6706,2.7756 -1.6613,2.8094 -1.6444,2.8124 -1.6353,2.8371 -1.6352,2.8985 -1.6168,2.9262 -1.6091,2.9077 -1.5998,2.9539 -1.5569,2.9415 -1.563,2.9708 -1.5553,3.0138 -1.5568,3.0137 -1.5061,3.0061 -1.5061,3.023 -1.4908,3.04 -1.4908,3.0506 -1.4753,3.0753 -1.4447,3.0583 -1.4293,3.0415 -1.4139,3.0845 -1.4446,3.1475 -1.3832,3.0322 -1.3832,3.0845 -1.3832,3.1013 -1.337,3.0768 -1.3371,3.103 -1.3371,3.1013 -1.3217,3.0861 -1.2909,3.0752 -1.291,3.0676 -1.2602,3.0322 -1.2602,3.0753 -1.2449,3.0676 -1.2141,3.0045 -1.1988,3.023 -1.2141,3.0599 -1.1834,2.9861 -1.1373,2.9001 -1.1526,2.9969 -1.1834,3.0399 -1.1065,2.8831 -1.1066,2.9078 -1.0911,2.8893 -1.0758,2.8816 -1.0758,2.8816 -1.0297,2.7925 -1.0451,2.8201 -1.0297,2.8032 -1.0143,2.748 -0.999,2.7233 -0.9682,2.6956 -0.9836,2.7049 -0.9682,2.6511 -0.9221,2.6004 -0.9222,2.588 -0.9067,2.5297 -0.9067,2.5266 -0.8607,2.4405 -0.876,2.4483 -0.876,2.5112 -0.8453,2.3591 -0.8145,2.2899 -0.8146,2.3068 -0.7991,2.2454 -0.7992,2.2177 -0.3535,1.0143 -1.2756,0.2305 -2.0594,0.3535 -4.1449,0.6455 -1.9979,0.2766 -3.7315,0.5225 -1.8734,0.2459 -4.3847,0.5072 -2.2361,0.2459 -3.5256,0.3535 -3.5009,0.2766 -2.4221,0.1844 -3.0937,0.1998 -3.5179,0.1998 -2.2192,0.1537 -3.8007,0.1537 h -2.5635 -3.4656 -2.625 -3.8267 -1.8212 l -4.2786,-0.1537 -2.3253,-0.1537 -3.7377,-0.1537 -2.1654,-0.1537 -3.9605,-0.2458 -2.5712,-0.1845 -3.7315,-0.3073 -1.6613,-0.1537 -4.8257,-0.4918 h -0.3843 l -0.876,-0.1537 -4.6751,-0.5533 -1.8396,-0.2459 -4.9318,-0.6762 c -7.6274,-1.1526 -15.2395,-2.5896 -22.8224,-4.3232 3.959,-16.1924 16.6703,-65.6224 37.0184,-121.8392 z"
       inkscape:export-filename="C:\Users\William\text4685.png"
       inkscape:export-xdpi="90"
       inkscape:export-ydpi="90" />
    <g
       id="g4662">
      <g
         transform="matrix(1.5098708,0,0,1.5098708,-964.69155,-1242.3155)"
         id="g4570"
         style="stroke-width:0.66230834">
        <text
           xml:space="preserve"
           style="font-style:normal;font-variant:normal;font-weight:normal;font-stretch:normal;font-size:350.3692627px;line-height:1.25;font-family:Roboto;-inkscape-font-specification:Roboto;letter-spacing:0px;word-spacing:0px;fill:#ffffff;fill-opacity:1;stroke:none;stroke-width:0.66230839"
           x="1339.2759"
           y="2394.1418"
           id="text4508"><tspan
             sodipodi:role="line"
             id="tspan4506"
             x="1339.2759"
             y="2394.1418"
             style="font-style:normal;font-variant:normal;font-weight:normal;font-stretch:normal;font-family:'Times New Roman';-inkscape-font-specification:'Times New Roman, ';stroke-width:0.36140674">Horsgle</tspan></text>
        <text
           xml:space="preserve"
           style="font-style:normal;font-variant:normal;font-weight:normal;font-stretch:normal;font-size:127.08908081px;line-height:1.25;font-family:Roboto;-inkscape-font-specification:Roboto;letter-spacing:0px;word-spacing:0px;fill:#cccccc;fill-opacity:1;stroke:none;stroke-width:0.66230839"
           x="1127.387"
           y="2587.1562"
           id="text4514"><tspan
             sodipodi:role="line"
             id="tspan4512"
             x="1127.387"
             y="2587.1562"
             style="font-style:normal;font-variant:normal;font-weight:normal;font-stretch:normal;font-family:'Times New Roman';-inkscape-font-specification:'Times New Roman, ';fill:#cccccc;fill-opacity:1;stroke-width:0.66230839">Desenvolvimento de Sistemas</tspan></text>
      </g>
      <rect
         ry="0.72727281"
         rx="0.72727281"
         y="2445.9553"
         x="960.90039"
         height="13.121366"
         width="1095.1477"
         id="rect4516"
         style="opacity:1;fill:#ffffff;fill-opacity:1;stroke:none;stroke-width:7.55905533;stroke-miterlimit:4;stroke-dasharray:none;stroke-opacity:1" />
      <rect
         style="opacity:1;fill:#ffffff;fill-opacity:1;stroke:none;stroke-width:7.55905533;stroke-miterlimit:4;stroke-dasharray:none;stroke-opacity:1"
         id="rect4518"
         width="420.15823"
         height="13.121366"
         x="2368.167"
         y="2445.9553"
         rx="0.72727281"
         ry="0.72727281" />
      <g
         style="stroke-width:0.66230834"
         id="g4648"
         transform="matrix(1.5098708,0,0,1.5098708,-964.69155,-1242.3155)">
        <text
           id="text4642"
           y="2394.1418"
           x="1339.2759"
           style="font-style:normal;font-variant:normal;font-weight:normal;font-stretch:normal;font-size:350.3692627px;line-height:1.25;font-family:Roboto;-inkscape-font-specification:Roboto;letter-spacing:0px;word-spacing:0px;fill:#ffffff;fill-opacity:1;stroke:none;stroke-width:0.66230839"
           xml:space="preserve"><tspan
             style="font-style:normal;font-variant:normal;font-weight:normal;font-stretch:normal;font-family:'Times New Roman';-inkscape-font-specification:'Times New Roman, ';stroke-width:0.36140674"
             y="2394.1418"
             x="1339.2759"
             id="tspan4640"
             sodipodi:role="line">Horsgle</tspan></text>
        <text
           id="text4646"
           y="2587.1562"
           x="1127.387"
           style="font-style:normal;font-variant:normal;font-weight:normal;font-stretch:normal;font-size:127.08908081px;line-height:1.25;font-family:Roboto;-inkscape-font-specification:Roboto;letter-spacing:0px;word-spacing:0px;fill:#cccccc;fill-opacity:1;stroke:none;stroke-width:0.66230839"
           xml:space="preserve"><tspan
             style="font-style:normal;font-variant:normal;font-weight:normal;font-stretch:normal;font-family:'Times New Roman';-inkscape-font-specification:'Times New Roman, ';fill:#cccccc;fill-opacity:1;stroke-width:0.66230839"
             y="2587.1562"
             x="1127.387"
             id="tspan4644"
             sodipodi:role="line">Desenvolvimento de Sistemas</tspan></text>
      </g>
    </g>
    <g
       id="g4736"
       transform="matrix(0.53225423,0,0,0.53225423,2533.6201,473.97779)"
       style="stroke-width:1.87880158"
       inkscape:export-filename="C:\Users\William\text4685.png"
       inkscape:export-xdpi="90"
       inkscape:export-ydpi="90">
      <rect
         style="opacity:1;fill:#666666;fill-opacity:1;stroke:none;stroke-width:14.20196629;stroke-miterlimit:4;stroke-dasharray:none;stroke-opacity:1"
         id="rect4674"
         width="1536.9111"
         height="19.056259"
         x="6722.5952"
         y="1864.9474"
         rx="1.3664013"
         ry="1.3664013" />
      <rect
         ry="1.3664013"
         rx="1.3664014"
         y="1864.9474"
         x="8712.7998"
         height="19.056259"
         width="579.86139"
         id="rect4676"
         style="opacity:1;fill:#666666;fill-opacity:1;stroke:none;stroke-width:14.20196629;stroke-miterlimit:4;stroke-dasharray:none;stroke-opacity:1" />
    </g>
    <text
       xml:space="preserve"
       style="font-style:normal;font-variant:normal;font-weight:normal;font-stretch:normal;font-size:408.92477417px;line-height:1.25;font-family:Roboto;-inkscape-font-specification:Roboto;letter-spacing:0px;word-spacing:0px;fill:#00adef;fill-opacity:1;stroke:none;stroke-width:1.00000012"
       x="6150.5796"
       y="1409.8464"
       id="text4680"
       inkscape:export-filename="C:\Users\William\text4685.png"
       inkscape:export-xdpi="90"
       inkscape:export-ydpi="90"><tspan
         sodipodi:role="line"
         id="tspan4678"
         x="6150.5796"
         y="1409.8464"
         style="font-style:normal;font-variant:normal;font-weight:normal;font-stretch:normal;font-family:'Times New Roman';-inkscape-font-specification:'Times New Roman, ';fill:#00adef;fill-opacity:1;stroke-width:0.54567748"><tspan
   style="fill:#666666;stroke-width:0.54567748"
   id="tspan4706">Hors</tspan>g<tspan
   style="fill:#666666;stroke-width:0.54567748"
   id="tspan4708">le</tspan></tspan></text>
    <text
       xml:space="preserve"
       style="font-style:normal;font-variant:normal;font-weight:normal;font-stretch:normal;font-size:111.50189972px;line-height:1.25;font-family:Roboto;-inkscape-font-specification:Roboto;letter-spacing:0px;word-spacing:0px;fill:#666666;fill-opacity:1;stroke:none;stroke-width:1.00000012"
       x="6124.4873"
       y="1590.0468"
       id="text4684"
       inkscape:export-filename="C:\Users\William\text4685.png"
       inkscape:export-xdpi="90"
       inkscape:export-ydpi="90"><tspan
         sodipodi:role="line"
         id="tspan4682"
         x="6124.4873"
         y="1590.0468"
         style="font-style:normal;font-variant:normal;font-weight:normal;font-stretch:normal;font-family:'Times New Roman';-inkscape-font-specification:'Times New Roman, ';fill:#808080;fill-opacity:1;stroke-width:1.00000012">Desenvolvimento de Sistemas</tspan></text>
  </g>
</svg>
