<?xml version="1.0" encoding="UTF-8" standalone="no"?>
<!-- Created with Inkscape (http://www.inkscape.org/) -->

<svg
   xmlns:dc="http://purl.org/dc/elements/1.1/"
   xmlns:cc="http://creativecommons.org/ns#"
   xmlns:rdf="http://www.w3.org/1999/02/22-rdf-syntax-ns#"
   xmlns:svg="http://www.w3.org/2000/svg"
   xmlns="http://www.w3.org/2000/svg"
   xmlns:sodipodi="http://sodipodi.sourceforge.net/DTD/sodipodi-0.dtd"
   xmlns:inkscape="http://www.inkscape.org/namespaces/inkscape"
   width="73.229149mm"
   height="52.916668mm"
   viewBox="0 0 73.229149 52.916668"
   version="1.1"
   id="svg4731"
   inkscape:version="0.92.1 r15371"
   sodipodi:docname="modulare-estoque.svg">
  <defs
     id="defs4725" />
  <sodipodi:namedview
     id="base"
     pagecolor="#ffffff"
     bordercolor="#666666"
     borderopacity="1.0"
     inkscape:pageopacity="0.0"
     inkscape:pageshadow="2"
     inkscape:zoom="0.7"
     inkscape:cx="282.11185"
     inkscape:cy="0.96602873"
     inkscape:document-units="mm"
     inkscape:current-layer="layer1"
     showgrid="false"
     fit-margin-top="0"
     fit-margin-left="0"
     fit-margin-right="0"
     fit-margin-bottom="0"
     inkscape:window-width="1920"
     inkscape:window-height="1003"
     inkscape:window-x="-9"
     inkscape:window-y="-9"
     inkscape:window-maximized="1" />
  <metadata
     id="metadata4728">
    <rdf:RDF>
      <cc:Work
         rdf:about="">
        <dc:format>image/svg+xml</dc:format>
        <dc:type
           rdf:resource="http://purl.org/dc/dcmitype/StillImage" />
        <dc:title></dc:title>
      </cc:Work>
    </rdf:RDF>
  </metadata>
  <g
     inkscape:label="Camada 1"
     inkscape:groupmode="layer"
     id="layer1"
     transform="translate(18.702339,-76.261917)">
    <text
       inkscape:export-ydpi="90"
       inkscape:export-xdpi="90"
       id="text4579"
       y="123.98961"
       x="-5.1137156"
       style="font-style:normal;font-variant:normal;font-weight:normal;font-stretch:normal;font-size:4.61419773px;line-height:1.25;font-family:Roboto;-inkscape-font-specification:Roboto;letter-spacing:0px;word-spacing:0px;fill:#ffffff;fill-opacity:1;stroke:none;stroke-width:0.15730217"
       xml:space="preserve"><tspan
         style="font-style:normal;font-variant:normal;font-weight:bold;font-stretch:normal;font-family:Roboto;-inkscape-font-specification:'Roboto Bold';fill:#ffffff;fill-opacity:1;stroke-width:0.15730217"
         y="123.98961"
         x="-5.1137156"
         id="tspan4577"
         sodipodi:role="line">MODULARE ESTOQUE</tspan></text>
    <path
       id="path4581"
       d="m 7.3997689,111.91496 c -1.2614802,0 -2.3613002,-0.7278 -2.89501,-1.77907 v 0 L 0.2835186,94.835854 0.1215288,94.124224 a 1.61734,1.61734 0 0 1 1.6173101,-1.61734 h 7.4074186 l 7.4398005,-10.62592 c 0.29097,-0.4205 0.77633,-0.69546 1.326232,-0.69546 0.550148,0 1.051208,0.27495 1.342369,0.71163 l 7.42361,10.60975 h 7.4074 a 1.61734,1.61734 0 0 1 1.617321,1.61734 l -0.0648,0.46904 -4.318312,15.542636 c -0.533649,1.05127 -1.63353,1.77907 -2.89501,1.77907 H 7.3993987 m 10.5127693,-26.297946 -4.852019,6.88987 h 9.704041 l -4.852022,-6.88987 m 0,13.35923 a 3.2346802,3.2346802 0 0 0 -3.234698,3.234676 3.2346802,3.2346802 0 0 0 3.234698,3.23468 3.2346802,3.2346802 0 0 0 3.23464,-3.23468 3.2346802,3.2346802 0 0 0 -3.23464,-3.234676 z"
       inkscape:connector-curvature="0"
       style="fill:#ffffff;stroke-width:1.61733997"
       inkscape:export-xdpi="90"
       inkscape:export-ydpi="90" />
  </g>
</svg>
