<?xml version="1.0" encoding="UTF-8" standalone="no"?>
<!-- Created with Inkscape (http://www.inkscape.org/) -->

<svg
   xmlns:dc="http://purl.org/dc/elements/1.1/"
   xmlns:cc="http://creativecommons.org/ns#"
   xmlns:rdf="http://www.w3.org/1999/02/22-rdf-syntax-ns#"
   xmlns:svg="http://www.w3.org/2000/svg"
   xmlns="http://www.w3.org/2000/svg"
   xmlns:sodipodi="http://sodipodi.sourceforge.net/DTD/sodipodi-0.dtd"
   xmlns:inkscape="http://www.inkscape.org/namespaces/inkscape"
   width="73.229149mm"
   height="52.916668mm"
   viewBox="0 0 73.229149 52.916668"
   version="1.1"
   id="svg4731"
   inkscape:version="0.92.1 r15371"
   sodipodi:docname="modulare-oficinas.svg">
  <defs
     id="defs4725" />
  <sodipodi:namedview
     id="base"
     pagecolor="#ffffff"
     bordercolor="#666666"
     borderopacity="1.0"
     inkscape:pageopacity="0.0"
     inkscape:pageshadow="2"
     inkscape:zoom="3.959798"
     inkscape:cx="63.622965"
     inkscape:cy="112.11831"
     inkscape:document-units="mm"
     inkscape:current-layer="layer1"
     showgrid="false"
     fit-margin-top="0"
     fit-margin-left="0"
     fit-margin-right="0"
     fit-margin-bottom="0"
     inkscape:window-width="1920"
     inkscape:window-height="1003"
     inkscape:window-x="-9"
     inkscape:window-y="-9"
     inkscape:window-maximized="1" />
  <metadata
     id="metadata4728">
    <rdf:RDF>
      <cc:Work
         rdf:about="">
        <dc:format>image/svg+xml</dc:format>
        <dc:type
           rdf:resource="http://purl.org/dc/dcmitype/StillImage" />
        <dc:title />
      </cc:Work>
    </rdf:RDF>
  </metadata>
  <g
     inkscape:label="Camada 1"
     inkscape:groupmode="layer"
     id="layer1"
     transform="translate(-72.99852,-97.428574)">
    <text
       xml:space="preserve"
       style="font-style:normal;font-variant:normal;font-weight:normal;font-stretch:normal;font-size:4.61419773px;line-height:1.25;font-family:Roboto;-inkscape-font-specification:Roboto;letter-spacing:0px;word-spacing:0px;fill:#1e88e5;fill-opacity:1;stroke:none;stroke-width:0.15730217;"
       x="86.397934"
       y="145.15627"
       id="text4641"
       inkscape:export-xdpi="90"
       inkscape:export-ydpi="90"><tspan
         sodipodi:role="line"
         id="tspan4639"
         x="86.397934"
         y="145.15627"
         style="font-style:normal;font-variant:normal;font-weight:bold;font-stretch:normal;font-family:Roboto;-inkscape-font-specification:'Roboto Bold';fill:#1e88e5;fill-opacity:1;stroke-width:0.15730217;">MODULARE OFICINAS</tspan></text>
    <path
       id="path4643"
       d="m 96.477278,117.74143 2.814861,-8.44449 h 20.642041 l 2.81486,8.44449 m -2.81486,9.38276 a 2.8148285,2.8148285 0 0 1 -2.81481,-2.81483 2.8148285,2.8148285 0 0 1 2.81481,-2.81483 2.8148285,2.8148285 0 0 1 2.81486,2.81483 2.8148285,2.8148285 0 0 1 -2.81486,2.81483 m -20.642041,0 a 2.8148285,2.8148285 0 0 1 -2.814861,-2.81483 2.8148285,2.8148285 0 0 1 2.814861,-2.81483 2.8148285,2.8148285 0 0 1 2.814801,2.81483 2.8148285,2.8148285 0 0 1 -2.814801,2.81483 m 23.306751,-18.76552 c -0.3752,-1.0884 -1.42616,-1.87656 -2.66471,-1.87656 H 99.292139 c -1.23856,0 -2.28945,0.78816 -2.66472,1.87656 l -3.90327,11.25931 v 15.01242 a 1.8765524,1.8765524 0 0 0 1.876599,1.87656 h 1.87653 a 1.8765524,1.8765524 0 0 0 1.87652,-1.87656 v -1.87655 h 22.518642 v 1.87655 a 1.8765524,1.8765524 0 0 0 1.8766,1.87656 h 1.87652 a 1.8765524,1.8765524 0 0 0 1.87653,-1.87656 v -15.01242 z"
       inkscape:connector-curvature="0"
       style="fill:#1e88e5;stroke-width:1.87655234;fill-opacity:1"
       inkscape:export-xdpi="90"
       inkscape:export-ydpi="90" />
    <path
       id="path4626"
       d="m 101.65355,133.75076 -8.215571,-8.21556 c 0.81251,-2.07646 0.36112,-4.51405 -1.354231,-6.22939 -1.80559,-1.80561 -4.51402,-2.16674 -6.680759,-1.17365 l 3.882079,3.88208 -2.70842,2.70843 -3.97238,-3.88208 c -1.08337,2.16674 -0.63197,4.87517 1.17366,6.68079 1.71535,1.71534 4.15291,2.16674 6.22936,1.35421 l 8.215581,8.21557 c 0.36111,0.36112 0.902799,0.36112 1.263939,0 l 2.076462,-2.07647 c 0.4514,-0.36112 0.4514,-0.99308 0.0904,-1.26393 z"
       inkscape:connector-curvature="0"
       style="fill:#1e6de5;stroke-width:0.90280932;fill-opacity:1"
       inkscape:export-xdpi="90"
       inkscape:export-ydpi="90" />
  </g>
</svg>
